<svg width="912" height="152" viewBox="0 0 912 152" fill="none" xmlns="http://www.w3.org/2000/svg">
<g clip-path="url(#clip0_3065_11900)">
<path d="M912 0H0V152H912V0Z" fill="url(#paint0_linear_3065_11900)"/>
<g clip-path="url(#clip1_3065_11900)">
<rect width="179" height="185" transform="translate(32 36)" fill="white" fill-opacity="0.01"/>
<path opacity="0.9" d="M201.106 36H41.8945C36.4299 36 32 39.7749 32 44.4315V212.568C32 217.225 36.4299 221 41.8945 221H201.106C206.57 221 211 217.225 211 212.568V44.4315C211 39.7749 206.57 36 201.106 36Z" fill="#FFB9A9" fill-opacity="0.4"/>
<path opacity="0.5" d="M71.8 74.5004C75.8317 74.5004 79.1 71.2321 79.1 67.2004C79.1 63.1687 75.8317 59.9004 71.8 59.9004C67.7683 59.9004 64.5 63.1687 64.5 67.2004C64.5 71.2321 67.7683 74.5004 71.8 74.5004Z" fill="url(#paint1_linear_3065_11900)"/>
<path opacity="0.5" d="M90.1 75.6V73.6H101.1V75.6H90.1ZM108.1 75.6V73.6H119.1V75.6H108.1ZM126.1 75.6V73.6H137.1V75.6H126.1ZM144.1 75.6V73.6H155.1V75.6H144.1ZM162.1 75.5V73.5H173.1V75.5H162.1Z" fill="url(#paint2_linear_3065_11900)"/>
<path opacity="0.5" d="M71.8 108.1C75.8317 108.1 79.1 104.832 79.1 100.8C79.1 96.7683 75.8317 93.5 71.8 93.5C67.7683 93.5 64.5 96.7683 64.5 100.8C64.5 104.832 67.7683 108.1 71.8 108.1Z" fill="url(#paint3_linear_3065_11900)"/>
<path opacity="0.5" d="M90.1 109.101V107.101H101.1V109.101H90.1ZM108.1 109.101V107.101H119.1V109.101H108.1ZM126.1 109.101V107.101H137.1V109.101H126.1ZM144.1 109.101V107.101H155.1V109.101H144.1ZM162.1 109.101V107.101H173.1V109.101H162.1Z" fill="url(#paint4_linear_3065_11900)"/>
<path opacity="0.5" d="M71.9 141.6C75.9317 141.6 79.2 138.332 79.2 134.3C79.2 130.268 75.9317 127 71.9 127C67.8683 127 64.6 130.268 64.6 134.3C64.6 138.332 67.8683 141.6 71.9 141.6Z" fill="url(#paint5_linear_3065_11900)"/>
<path opacity="0.5" d="M90.1 142.601V140.601H101.1V142.601H90.1ZM108.1 142.601V140.601H119.1V142.601H108.1ZM126.1 142.601V140.601H137.1V142.601H126.1ZM144.1 142.601V140.601H155.1V142.601H144.1ZM162.1 142.601V140.601H173.1V142.601H162.1Z" fill="url(#paint6_linear_3065_11900)"/>
</g>
<g clip-path="url(#clip2_3065_11900)">
<rect width="179" height="185" transform="translate(132 -84)" fill="white" fill-opacity="0.01"/>
<path opacity="0.9" d="M301.106 -84H141.894C136.43 -84 132 -80.2251 132 -75.5685V92.5685C132 97.2251 136.43 101 141.894 101H301.106C306.57 101 311 97.2251 311 92.5685V-75.5685C311 -80.2251 306.57 -84 301.106 -84Z" fill="#FFB9A9" fill-opacity="0.4"/>
<path opacity="0.5" d="M171.9 21.6C175.932 21.6 179.2 18.3317 179.2 14.3C179.2 10.2683 175.932 7 171.9 7C167.868 7 164.6 10.2683 164.6 14.3C164.6 18.3317 167.868 21.6 171.9 21.6Z" fill="url(#paint7_linear_3065_11900)"/>
<path opacity="0.5" d="M190.1 22.6006V20.6006H201.1V22.6006H190.1ZM208.1 22.6006V20.6006H219.1V22.6006H208.1ZM226.1 22.6006V20.6006H237.1V22.6006H226.1ZM244.1 22.6006V20.6006H255.1V22.6006H244.1ZM262.1 22.6006V20.6006H273.1V22.6006H262.1Z" fill="url(#paint8_linear_3065_11900)"/>
<path opacity="0.5" d="M171.9 55.1C175.932 55.1 179.2 51.8317 179.2 47.8C179.2 43.7683 175.932 40.5 171.9 40.5C167.868 40.5 164.6 43.7683 164.6 47.8C164.6 51.8317 167.868 55.1 171.9 55.1Z" fill="url(#paint9_linear_3065_11900)"/>
<path opacity="0.5" d="M190.1 56.1006V54.1006H201.1V56.1006H190.1ZM208.1 56.1006V54.1006H219.1V56.1006H208.1ZM226.1 56.1006V54.1006H237.1V56.1006H226.1ZM244.1 56.1006V54.1006H255.1V56.1006H244.1ZM262.1 56.1006V54.1006H273.1V56.1006H262.1Z" fill="url(#paint10_linear_3065_11900)"/>
</g>
<g clip-path="url(#clip3_3065_11900)">
<rect width="179" height="185" transform="translate(501 -69)" fill="white" fill-opacity="0.01"/>
<path opacity="0.9" d="M670.106 -69H510.894C505.43 -69 501 -65.2251 501 -60.5685V107.568C501 112.225 505.43 116 510.894 116H670.106C675.57 116 680 112.225 680 107.568V-60.5685C680 -65.2251 675.57 -69 670.106 -69Z" fill="#FFB9A9" fill-opacity="0.4"/>
<path opacity="0.5" d="M540.8 3.10001C544.832 3.10001 548.1 -0.168318 548.1 -4.2C548.1 -8.23168 544.832 -11.5 540.8 -11.5C536.768 -11.5 533.5 -8.23168 533.5 -4.2C533.5 -0.168318 536.768 3.10001 540.8 3.10001Z" fill="url(#paint11_linear_3065_11900)"/>
<path opacity="0.5" d="M559.1 4.10059V2.10059H570.1V4.10059H559.1ZM577.1 4.10059V2.10059H588.1V4.10059H577.1ZM595.1 4.10059V2.10059H606.1V4.10059H595.1ZM613.1 4.10059V2.10059H624.1V4.10059H613.1ZM631.1 4.10059V2.10059H642.1V4.10059H631.1Z" fill="url(#paint12_linear_3065_11900)"/>
<path opacity="0.5" d="M540.9 36.6C544.932 36.6 548.2 33.3317 548.2 29.3C548.2 25.2683 544.932 22 540.9 22C536.868 22 533.6 25.2683 533.6 29.3C533.6 33.3317 536.868 36.6 540.9 36.6Z" fill="url(#paint13_linear_3065_11900)"/>
<path opacity="0.5" d="M559.1 37.6006V35.6006H570.1V37.6006H559.1ZM577.1 37.6006V35.6006H588.1V37.6006H577.1ZM595.1 37.6006V35.6006H606.1V37.6006H595.1ZM613.1 37.6006V35.6006H624.1V37.6006H613.1ZM631.1 37.6006V35.6006H642.1V37.6006H631.1Z" fill="url(#paint14_linear_3065_11900)"/>
<path opacity="0.5" d="M540.9 70.1C544.932 70.1 548.2 66.8317 548.2 62.8C548.2 58.7683 544.932 55.5 540.9 55.5C536.868 55.5 533.6 58.7683 533.6 62.8C533.6 66.8317 536.868 70.1 540.9 70.1Z" fill="url(#paint15_linear_3065_11900)"/>
<path opacity="0.5" d="M559.1 71.1006V69.1006H570.1V71.1006H559.1ZM577.1 71.1006V69.1006H588.1V71.1006H577.1ZM595.1 71.1006V69.1006H606.1V71.1006H595.1ZM613.1 71.1006V69.1006H624.1V71.1006H613.1ZM631.1 71.1006V69.1006H642.1V71.1006H631.1Z" fill="url(#paint16_linear_3065_11900)"/>
</g>
<g clip-path="url(#clip4_3065_11900)">
<rect width="179" height="185" transform="translate(343 -9)" fill="white" fill-opacity="0.01"/>
<path opacity="0.9" d="M512.106 -9H352.894C347.43 -9 343 -5.22507 343 -0.568457V167.568C343 172.225 347.43 176 352.894 176H512.106C517.57 176 522 172.225 522 167.568V-0.568457C522 -5.22507 517.57 -9 512.106 -9Z" fill="#FFB9A9" fill-opacity="0.4"/>
<path opacity="0.5" d="M382.8 29.5004C386.832 29.5004 390.1 26.2321 390.1 22.2004C390.1 18.1687 386.832 14.9004 382.8 14.9004C378.768 14.9004 375.5 18.1687 375.5 22.2004C375.5 26.2321 378.768 29.5004 382.8 29.5004Z" fill="url(#paint17_linear_3065_11900)"/>
<path opacity="0.5" d="M401.1 30.6V28.6H412.1V30.6H401.1ZM419.1 30.6V28.6H430.1V30.6H419.1ZM437.1 30.6V28.6H448.1V30.6H437.1ZM455.1 30.6V28.6H466.1V30.6H455.1ZM473.1 30.5V28.5H484.1V30.5H473.1Z" fill="url(#paint18_linear_3065_11900)"/>
<path opacity="0.5" d="M382.8 63.1C386.832 63.1 390.1 59.8317 390.1 55.8C390.1 51.7683 386.832 48.5 382.8 48.5C378.768 48.5 375.5 51.7683 375.5 55.8C375.5 59.8317 378.768 63.1 382.8 63.1Z" fill="url(#paint19_linear_3065_11900)"/>
<path opacity="0.5" d="M401.1 64.1006V62.1006H412.1V64.1006H401.1ZM419.1 64.1006V62.1006H430.1V64.1006H419.1ZM437.1 64.1006V62.1006H448.1V64.1006H437.1ZM455.1 64.1006V62.1006H466.1V64.1006H455.1ZM473.1 64.1006V62.1006H484.1V64.1006H473.1Z" fill="url(#paint20_linear_3065_11900)"/>
<path opacity="0.5" d="M382.9 96.6C386.932 96.6 390.2 93.3317 390.2 89.3C390.2 85.2683 386.932 82 382.9 82C378.868 82 375.6 85.2683 375.6 89.3C375.6 93.3317 378.868 96.6 382.9 96.6Z" fill="url(#paint21_linear_3065_11900)"/>
<path opacity="0.5" d="M401.1 97.6006V95.6006H412.1V97.6006H401.1ZM419.1 97.6006V95.6006H430.1V97.6006H419.1ZM437.1 97.6006V95.6006H448.1V97.6006H437.1ZM455.1 97.6006V95.6006H466.1V97.6006H455.1ZM473.1 97.6006V95.6006H484.1V97.6006H473.1Z" fill="url(#paint22_linear_3065_11900)"/>
<path opacity="0.5" d="M382.9 130.1C386.932 130.1 390.2 126.832 390.2 122.8C390.2 118.768 386.932 115.5 382.9 115.5C378.868 115.5 375.6 118.768 375.6 122.8C375.6 126.832 378.868 130.1 382.9 130.1Z" fill="url(#paint23_linear_3065_11900)"/>
<path opacity="0.5" d="M401.1 131.101V129.101H412.1V131.101H401.1ZM419.1 131.101V129.101H430.1V131.101H419.1ZM437.1 131.101V129.101H448.1V131.101H437.1ZM455.1 131.101V129.101H466.1V131.101H455.1ZM473.1 131.101V129.101H484.1V131.101H473.1Z" fill="url(#paint24_linear_3065_11900)"/>
</g>
<g clip-path="url(#clip5_3065_11900)">
<rect width="179" height="185" transform="translate(712 -104)" fill="white" fill-opacity="0.01"/>
<path opacity="0.9" d="M881.106 -104H721.894C716.43 -104 712 -100.225 712 -95.5685V72.5685C712 77.2251 716.43 81 721.894 81H881.106C886.57 81 891 77.2251 891 72.5685V-95.5685C891 -100.225 886.57 -104 881.106 -104Z" fill="#FFB9A9" fill-opacity="0.4"/>
<path opacity="0.5" d="M751.9 1.60001C755.932 1.60001 759.2 -1.66832 759.2 -5.7C759.2 -9.73168 755.932 -13 751.9 -13C747.868 -13 744.6 -9.73168 744.6 -5.7C744.6 -1.66832 747.868 1.60001 751.9 1.60001Z" fill="url(#paint25_linear_3065_11900)"/>
<path opacity="0.5" d="M770.1 2.60059V0.600586H781.1V2.60059H770.1ZM788.1 2.60059V0.600586H799.1V2.60059H788.1ZM806.1 2.60059V0.600586H817.1V2.60059H806.1ZM824.1 2.60059V0.600586H835.1V2.60059H824.1ZM842.1 2.60059V0.600586H853.1V2.60059H842.1Z" fill="url(#paint26_linear_3065_11900)"/>
<path opacity="0.5" d="M751.9 35.1C755.932 35.1 759.2 31.8317 759.2 27.8C759.2 23.7683 755.932 20.5 751.9 20.5C747.868 20.5 744.6 23.7683 744.6 27.8C744.6 31.8317 747.868 35.1 751.9 35.1Z" fill="url(#paint27_linear_3065_11900)"/>
<path opacity="0.5" d="M770.1 36.1006V34.1006H781.1V36.1006H770.1ZM788.1 36.1006V34.1006H799.1V36.1006H788.1ZM806.1 36.1006V34.1006H817.1V36.1006H806.1ZM824.1 36.1006V34.1006H835.1V36.1006H824.1ZM842.1 36.1006V34.1006H853.1V36.1006H842.1Z" fill="url(#paint28_linear_3065_11900)"/>
</g>
<g clip-path="url(#clip6_3065_11900)">
<rect width="179" height="185" transform="translate(826 57)" fill="white" fill-opacity="0.01"/>
<path opacity="0.9" d="M995.106 57H835.894C830.43 57 826 60.7749 826 65.4315V233.568C826 238.225 830.43 242 835.894 242H995.106C1000.57 242 1005 238.225 1005 233.568V65.4315C1005 60.7749 1000.57 57 995.106 57Z" fill="#FFB9A9" fill-opacity="0.4"/>
<path opacity="0.5" d="M865.8 95.5004C869.832 95.5004 873.1 92.2321 873.1 88.2004C873.1 84.1687 869.832 80.9004 865.8 80.9004C861.768 80.9004 858.5 84.1687 858.5 88.2004C858.5 92.2321 861.768 95.5004 865.8 95.5004Z" fill="url(#paint29_linear_3065_11900)"/>
<path opacity="0.5" d="M884.1 96.6V94.6H895.1V96.6H884.1ZM902.1 96.6V94.6H913.1V96.6H902.1ZM920.1 96.6V94.6H931.1V96.6H920.1ZM938.1 96.6V94.6H949.1V96.6H938.1ZM956.1 96.5V94.5H967.1V96.5H956.1Z" fill="url(#paint30_linear_3065_11900)"/>
<path opacity="0.5" d="M865.8 129.1C869.832 129.1 873.1 125.832 873.1 121.8C873.1 117.768 869.832 114.5 865.8 114.5C861.768 114.5 858.5 117.768 858.5 121.8C858.5 125.832 861.768 129.1 865.8 129.1Z" fill="url(#paint31_linear_3065_11900)"/>
<path opacity="0.5" d="M884.1 130.101V128.101H895.1V130.101H884.1ZM902.1 130.101V128.101H913.1V130.101H902.1ZM920.1 130.101V128.101H931.1V130.101H920.1ZM938.1 130.101V128.101H949.1V130.101H938.1ZM956.1 130.101V128.101H967.1V130.101H956.1Z" fill="url(#paint32_linear_3065_11900)"/>
<path opacity="0.5" d="M865.9 162.6C869.932 162.6 873.2 159.332 873.2 155.3C873.2 151.268 869.932 148 865.9 148C861.868 148 858.6 151.268 858.6 155.3C858.6 159.332 861.868 162.6 865.9 162.6Z" fill="url(#paint33_linear_3065_11900)"/>
</g>
</g>
<defs>
<linearGradient id="paint0_linear_3065_11900" x1="456" y1="152" x2="456" y2="0" gradientUnits="userSpaceOnUse">
<stop stop-color="#FF6947"/>
<stop offset="0.9949" stop-color="#FF5630"/>
</linearGradient>
<linearGradient id="paint1_linear_3065_11900" x1="70.1344" y1="77.3287" x2="76.078" y2="65.6275" gradientUnits="userSpaceOnUse">
<stop stop-color="#FF6845"/>
<stop offset="1" stop-color="#FF613D"/>
</linearGradient>
<linearGradient id="paint2_linear_3065_11900" x1="122.131" y1="76.0068" x2="122.158" y2="73.8899" gradientUnits="userSpaceOnUse">
<stop stop-color="#FF6845"/>
<stop offset="1" stop-color="#FF613D"/>
</linearGradient>
<linearGradient id="paint3_linear_3065_11900" x1="70.1344" y1="110.928" x2="76.078" y2="99.2271" gradientUnits="userSpaceOnUse">
<stop stop-color="#FF6845"/>
<stop offset="1" stop-color="#FF613D"/>
</linearGradient>
<linearGradient id="paint4_linear_3065_11900" x1="122.131" y1="109.488" x2="122.156" y2="107.472" gradientUnits="userSpaceOnUse">
<stop stop-color="#FF6845"/>
<stop offset="1" stop-color="#FF613D"/>
</linearGradient>
<linearGradient id="paint5_linear_3065_11900" x1="70.2344" y1="144.428" x2="76.178" y2="132.727" gradientUnits="userSpaceOnUse">
<stop stop-color="#FF6845"/>
<stop offset="1" stop-color="#FF613D"/>
</linearGradient>
<linearGradient id="paint6_linear_3065_11900" x1="122.131" y1="142.988" x2="122.156" y2="140.972" gradientUnits="userSpaceOnUse">
<stop stop-color="#FF6845"/>
<stop offset="1" stop-color="#FF613D"/>
</linearGradient>
<linearGradient id="paint7_linear_3065_11900" x1="170.234" y1="24.4283" x2="176.178" y2="12.7271" gradientUnits="userSpaceOnUse">
<stop stop-color="#FF6845"/>
<stop offset="1" stop-color="#FF613D"/>
</linearGradient>
<linearGradient id="paint8_linear_3065_11900" x1="222.131" y1="22.988" x2="222.156" y2="20.9719" gradientUnits="userSpaceOnUse">
<stop stop-color="#FF6845"/>
<stop offset="1" stop-color="#FF613D"/>
</linearGradient>
<linearGradient id="paint9_linear_3065_11900" x1="170.234" y1="57.9283" x2="176.178" y2="46.2271" gradientUnits="userSpaceOnUse">
<stop stop-color="#FF6845"/>
<stop offset="1" stop-color="#FF613D"/>
</linearGradient>
<linearGradient id="paint10_linear_3065_11900" x1="222.131" y1="56.488" x2="222.156" y2="54.4719" gradientUnits="userSpaceOnUse">
<stop stop-color="#FF6845"/>
<stop offset="1" stop-color="#FF613D"/>
</linearGradient>
<linearGradient id="paint11_linear_3065_11900" x1="539.134" y1="5.92831" x2="545.078" y2="-5.77292" gradientUnits="userSpaceOnUse">
<stop stop-color="#FF6845"/>
<stop offset="1" stop-color="#FF613D"/>
</linearGradient>
<linearGradient id="paint12_linear_3065_11900" x1="591.131" y1="4.48803" x2="591.156" y2="2.47185" gradientUnits="userSpaceOnUse">
<stop stop-color="#FF6845"/>
<stop offset="1" stop-color="#FF613D"/>
</linearGradient>
<linearGradient id="paint13_linear_3065_11900" x1="539.234" y1="39.4283" x2="545.178" y2="27.7271" gradientUnits="userSpaceOnUse">
<stop stop-color="#FF6845"/>
<stop offset="1" stop-color="#FF613D"/>
</linearGradient>
<linearGradient id="paint14_linear_3065_11900" x1="591.131" y1="37.988" x2="591.156" y2="35.9719" gradientUnits="userSpaceOnUse">
<stop stop-color="#FF6845"/>
<stop offset="1" stop-color="#FF613D"/>
</linearGradient>
<linearGradient id="paint15_linear_3065_11900" x1="539.234" y1="72.9283" x2="545.178" y2="61.2271" gradientUnits="userSpaceOnUse">
<stop stop-color="#FF6845"/>
<stop offset="1" stop-color="#FF613D"/>
</linearGradient>
<linearGradient id="paint16_linear_3065_11900" x1="591.131" y1="71.488" x2="591.156" y2="69.4719" gradientUnits="userSpaceOnUse">
<stop stop-color="#FF6845"/>
<stop offset="1" stop-color="#FF613D"/>
</linearGradient>
<linearGradient id="paint17_linear_3065_11900" x1="381.134" y1="32.3287" x2="387.078" y2="20.6275" gradientUnits="userSpaceOnUse">
<stop stop-color="#FF6845"/>
<stop offset="1" stop-color="#FF613D"/>
</linearGradient>
<linearGradient id="paint18_linear_3065_11900" x1="433.131" y1="31.0068" x2="433.158" y2="28.8899" gradientUnits="userSpaceOnUse">
<stop stop-color="#FF6845"/>
<stop offset="1" stop-color="#FF613D"/>
</linearGradient>
<linearGradient id="paint19_linear_3065_11900" x1="381.134" y1="65.9283" x2="387.078" y2="54.2271" gradientUnits="userSpaceOnUse">
<stop stop-color="#FF6845"/>
<stop offset="1" stop-color="#FF613D"/>
</linearGradient>
<linearGradient id="paint20_linear_3065_11900" x1="433.131" y1="64.488" x2="433.156" y2="62.4719" gradientUnits="userSpaceOnUse">
<stop stop-color="#FF6845"/>
<stop offset="1" stop-color="#FF613D"/>
</linearGradient>
<linearGradient id="paint21_linear_3065_11900" x1="381.234" y1="99.4283" x2="387.178" y2="87.7271" gradientUnits="userSpaceOnUse">
<stop stop-color="#FF6845"/>
<stop offset="1" stop-color="#FF613D"/>
</linearGradient>
<linearGradient id="paint22_linear_3065_11900" x1="433.131" y1="97.988" x2="433.156" y2="95.9719" gradientUnits="userSpaceOnUse">
<stop stop-color="#FF6845"/>
<stop offset="1" stop-color="#FF613D"/>
</linearGradient>
<linearGradient id="paint23_linear_3065_11900" x1="381.234" y1="132.928" x2="387.178" y2="121.227" gradientUnits="userSpaceOnUse">
<stop stop-color="#FF6845"/>
<stop offset="1" stop-color="#FF613D"/>
</linearGradient>
<linearGradient id="paint24_linear_3065_11900" x1="433.131" y1="131.488" x2="433.156" y2="129.472" gradientUnits="userSpaceOnUse">
<stop stop-color="#FF6845"/>
<stop offset="1" stop-color="#FF613D"/>
</linearGradient>
<linearGradient id="paint25_linear_3065_11900" x1="750.234" y1="4.42831" x2="756.178" y2="-7.27292" gradientUnits="userSpaceOnUse">
<stop stop-color="#FF6845"/>
<stop offset="1" stop-color="#FF613D"/>
</linearGradient>
<linearGradient id="paint26_linear_3065_11900" x1="802.131" y1="2.98802" x2="802.156" y2="0.971853" gradientUnits="userSpaceOnUse">
<stop stop-color="#FF6845"/>
<stop offset="1" stop-color="#FF613D"/>
</linearGradient>
<linearGradient id="paint27_linear_3065_11900" x1="750.234" y1="37.9283" x2="756.178" y2="26.2271" gradientUnits="userSpaceOnUse">
<stop stop-color="#FF6845"/>
<stop offset="1" stop-color="#FF613D"/>
</linearGradient>
<linearGradient id="paint28_linear_3065_11900" x1="802.131" y1="36.488" x2="802.156" y2="34.4719" gradientUnits="userSpaceOnUse">
<stop stop-color="#FF6845"/>
<stop offset="1" stop-color="#FF613D"/>
</linearGradient>
<linearGradient id="paint29_linear_3065_11900" x1="864.134" y1="98.3287" x2="870.078" y2="86.6275" gradientUnits="userSpaceOnUse">
<stop stop-color="#FF6845"/>
<stop offset="1" stop-color="#FF613D"/>
</linearGradient>
<linearGradient id="paint30_linear_3065_11900" x1="916.131" y1="97.0068" x2="916.158" y2="94.8899" gradientUnits="userSpaceOnUse">
<stop stop-color="#FF6845"/>
<stop offset="1" stop-color="#FF613D"/>
</linearGradient>
<linearGradient id="paint31_linear_3065_11900" x1="864.134" y1="131.928" x2="870.078" y2="120.227" gradientUnits="userSpaceOnUse">
<stop stop-color="#FF6845"/>
<stop offset="1" stop-color="#FF613D"/>
</linearGradient>
<linearGradient id="paint32_linear_3065_11900" x1="916.131" y1="130.488" x2="916.156" y2="128.472" gradientUnits="userSpaceOnUse">
<stop stop-color="#FF6845"/>
<stop offset="1" stop-color="#FF613D"/>
</linearGradient>
<linearGradient id="paint33_linear_3065_11900" x1="864.234" y1="165.428" x2="870.178" y2="153.727" gradientUnits="userSpaceOnUse">
<stop stop-color="#FF6845"/>
<stop offset="1" stop-color="#FF613D"/>
</linearGradient>
<clipPath id="clip0_3065_11900">
<rect width="912" height="152" fill="white"/>
</clipPath>
<clipPath id="clip1_3065_11900">
<rect width="179" height="185" fill="white" transform="translate(32 36)"/>
</clipPath>
<clipPath id="clip2_3065_11900">
<rect width="179" height="185" fill="white" transform="translate(132 -84)"/>
</clipPath>
<clipPath id="clip3_3065_11900">
<rect width="179" height="185" fill="white" transform="translate(501 -69)"/>
</clipPath>
<clipPath id="clip4_3065_11900">
<rect width="179" height="185" fill="white" transform="translate(343 -9)"/>
</clipPath>
<clipPath id="clip5_3065_11900">
<rect width="179" height="185" fill="white" transform="translate(712 -104)"/>
</clipPath>
<clipPath id="clip6_3065_11900">
<rect width="179" height="185" fill="white" transform="translate(826 57)"/>
</clipPath>
</defs>
</svg>
