<svg width="604" height="136" viewBox="0 0 604 136" fill="none" xmlns="http://www.w3.org/2000/svg">
    <g filter="url(#filter0_dd_0_1)">
        <rect x="12" y="4" width="580" height="112" rx="10" fill="white"/>
        <rect x="28" y="20" width="77" height="12" rx="6" fill="#DFE1E6"/>
        <rect x="28" y="56" width="516" height="10" rx="5" fill="#EBECF0"/>
        <rect x="28" y="90" width="551" height="10" rx="5" fill="#EBECF0"/>
    </g>
    <rect x="235" y="87" width="154" height="16" rx="4" fill="#B3D4FF"/>
    <g filter="url(#filter1_dd_0_1)">
        <rect x="168" y="45" width="304" height="36" rx="10" fill="white"/>
        <rect width="24" height="24" transform="translate(174 51)" fill="white" fill-opacity="0.01"/>
        <path fill-rule="evenodd" clip-rule="evenodd" d="M178.998 62.513C178.998 59.475 182.139 57.003 186 57.003C189.861 57.003 193.002 59.475 193.002 62.513C193.002 65.552 189.861 68.023 186 68.023C182.139 68.023 178.998 65.552 178.998 62.513ZM193.838 70.284V70.282C193.838 70.282 192.274 68.022 193.071 67.166L193.034 67.186C194.261 65.902 195 64.279 195 62.513C195 58.371 190.963 55 186 55C181.037 55 177 58.37 177 62.513C177 66.656 181.037 70.027 186 70.027C187.42 70.027 188.76 69.742 189.957 69.251C190.96 70.273 192.244 70.823 193.197 70.97L193.199 70.967C193.252 70.9867 193.307 70.9979 193.363 71C193.448 71 193.532 70.9789 193.607 70.9386C193.682 70.8984 193.745 70.8402 193.792 70.7693C193.839 70.6984 193.868 70.6169 193.876 70.5323C193.883 70.4476 193.871 70.3623 193.838 70.284Z" fill="#6B778C"/>
        <path d="M190 60H182C181.448 60 181 60.4477 181 61C181 61.5523 181.448 62 182 62H190C190.552 62 191 61.5523 191 61C191 60.4477 190.552 60 190 60Z" fill="#6B778C"/>
        <path d="M185 63H182C181.448 63 181 63.4477 181 64C181 64.5523 181.448 65 182 65H185C185.552 65 186 64.5523 186 64C186 63.4477 185.552 63 185 63Z" fill="#6B778C"/>
        <rect x="206" y="59" width="106" height="8" rx="4" fill="#97A0AF"/>
        <line x1="320.5" y1="54" x2="320.5" y2="72" stroke="#DFE1E6"/>
        <rect width="24" height="24" transform="translate(328 51)" fill="white" fill-opacity="0.01"/>
        <path fill-rule="evenodd" clip-rule="evenodd" d="M341 62V58C341 57.7348 340.895 57.4804 340.707 57.2929C340.52 57.1054 340.265 57 340 57C339.735 57 339.48 57.1054 339.293 57.2929C339.105 57.4804 339 57.7348 339 58V62H335C334.735 62 334.48 62.1054 334.293 62.2929C334.105 62.4804 334 62.7348 334 63C334 63.2652 334.105 63.5196 334.293 63.7071C334.48 63.8946 334.735 64 335 64H339V68C339 68.2652 339.105 68.5196 339.293 68.7071C339.48 68.8946 339.735 69 340 69C340.265 69 340.52 68.8946 340.707 68.7071C340.895 68.5196 341 68.2652 341 68V64H345C345.265 64 345.52 63.8946 345.707 63.7071C345.895 63.5196 346 63.2652 346 63C346 62.7348 345.895 62.4804 345.707 62.2929C345.52 62.1054 345.265 62 345 62H341Z" fill="#6B778C"/>
        <rect x="360" y="59" width="106" height="8" rx="4" fill="#97A0AF"/>
    </g>
    <rect width="7" height="16" transform="translate(386 87)" fill="white" fill-opacity="0.01"/>
    <g filter="url(#filter2_d_0_1)">
        <path d="M387.982 95.9307V94.9467H388.984V89.8217C388.865 89.4663 388.338 88.7339 388.079 88.5324C387.822 88.3339 387.518 88.1836 387.18 88.0762C387.094 88.0487 386.942 88.0261 386.753 88.0132C386.548 87.9992 386.325 87.9974 386.122 88.0029C386.058 88.0049 386.058 88.0049 386.046 88.0055L386 87.0065C386.02 87.0056 386.02 87.0056 386.095 87.0033C386.327 86.997 386.579 86.999 386.821 87.0155C387.084 87.0334 387.305 87.0665 387.483 87.1234C387.926 87.2637 388.334 87.4656 388.692 87.7426C388.922 87.9217 389.222 88.2754 389.474 88.6526C389.733 88.2768 390.045 87.9282 390.306 87.7484C390.733 87.452 391.121 87.2416 391.493 87.124C391.672 87.0665 391.893 87.0334 392.157 87.0155C392.398 86.9991 392.65 86.9971 392.881 87.0034C392.956 87.0057 392.956 87.0057 392.976 87.0066L392.93 88.0056C392.919 88.005 392.919 88.005 392.854 88.003C392.652 87.9975 392.43 87.9993 392.225 88.0132C392.035 88.0261 391.884 88.0487 391.796 88.0767C391.534 88.1597 391.228 88.3257 390.875 88.5708C390.597 88.7624 390.117 89.4143 389.97 89.8089V94.9467H390.968V95.9307H389.97V100.106C390.117 100.5 390.597 101.151 390.877 101.343C391.228 101.588 391.533 101.753 391.799 101.836C391.885 101.863 392.036 101.886 392.225 101.899C392.43 101.913 392.653 101.915 392.855 101.91C392.919 101.908 392.919 101.908 392.93 101.907L392.976 102.906C392.956 102.907 392.956 102.907 392.882 102.909C392.65 102.915 392.398 102.913 392.157 102.897C391.893 102.879 391.671 102.845 391.497 102.789C391.122 102.673 390.733 102.462 390.308 102.166C390.046 101.986 389.733 101.637 389.474 101.26C389.222 101.637 388.922 101.99 388.692 102.17C388.334 102.448 387.925 102.651 387.485 102.789C387.306 102.846 387.084 102.88 386.821 102.898C386.579 102.914 386.326 102.917 386.095 102.91C386.02 102.908 386.02 102.908 386 102.907L386.046 101.908C386.058 101.909 386.058 101.909 386.122 101.911C386.324 101.916 386.547 101.914 386.752 101.9C386.942 101.887 387.093 101.864 387.182 101.836C387.518 101.73 387.822 101.58 388.077 101.382C388.338 101.177 388.865 100.446 388.97 100.087L388.984 95.9307H387.982Z" fill="black"/>
    </g>
    <path d="M387.982 95.9307V94.9467H388.984V89.8217C388.865 89.4663 388.338 88.7339 388.079 88.5324C387.822 88.3339 387.518 88.1836 387.18 88.0762C387.094 88.0487 386.942 88.0261 386.753 88.0132C386.548 87.9992 386.325 87.9974 386.122 88.0029C386.058 88.0049 386.058 88.0049 386.046 88.0055L386 87.0065C386.02 87.0056 386.02 87.0056 386.095 87.0033C386.327 86.997 386.579 86.999 386.821 87.0155C387.084 87.0334 387.305 87.0665 387.483 87.1234C387.926 87.2637 388.334 87.4656 388.692 87.7426C388.922 87.9217 389.222 88.2754 389.474 88.6526C389.733 88.2768 390.045 87.9282 390.306 87.7484C390.733 87.452 391.121 87.2416 391.493 87.124C391.672 87.0665 391.893 87.0334 392.157 87.0155C392.398 86.9991 392.65 86.9971 392.881 87.0034C392.956 87.0057 392.956 87.0057 392.976 87.0066L392.93 88.0056C392.919 88.005 392.919 88.005 392.854 88.003C392.652 87.9975 392.43 87.9993 392.225 88.0132C392.035 88.0261 391.884 88.0487 391.796 88.0767C391.534 88.1597 391.228 88.3257 390.875 88.5708C390.597 88.7624 390.117 89.4143 389.97 89.8089V94.9467H390.968V95.9307H389.97V100.106C390.117 100.5 390.597 101.151 390.877 101.343C391.228 101.588 391.533 101.753 391.799 101.836C391.885 101.863 392.036 101.886 392.225 101.899C392.43 101.913 392.653 101.915 392.855 101.91C392.919 101.908 392.919 101.908 392.93 101.907L392.976 102.906C392.956 102.907 392.956 102.907 392.882 102.909C392.65 102.915 392.398 102.913 392.157 102.897C391.893 102.879 391.671 102.845 391.497 102.789C391.122 102.673 390.733 102.462 390.308 102.166C390.046 101.986 389.733 101.637 389.474 101.26C389.222 101.637 388.922 101.99 388.692 102.17C388.334 102.448 387.925 102.651 387.485 102.789C387.306 102.846 387.084 102.88 386.821 102.898C386.579 102.914 386.326 102.917 386.095 102.91C386.02 102.908 386.02 102.908 386 102.907L386.046 101.908C386.058 101.909 386.058 101.909 386.122 101.911C386.324 101.916 386.547 101.914 386.752 101.9C386.942 101.887 387.093 101.864 387.182 101.836C387.518 101.73 387.822 101.58 388.077 101.382C388.338 101.177 388.865 100.446 388.97 100.087L388.984 95.9307H387.982Z" fill="black"/>
    <defs>
        <filter id="filter0_dd_0_1" x="0" y="0" width="604" height="136" filterUnits="userSpaceOnUse" color-interpolation-filters="sRGB">
            <feFlood flood-opacity="0" result="BackgroundImageFix"/>
            <feColorMatrix in="SourceAlpha" type="matrix" values="0 0 0 0 0 0 0 0 0 0 0 0 0 0 0 0 0 0 127 0" result="hardAlpha"/>
            <feOffset/>
            <feGaussianBlur stdDeviation="0.5"/>
            <feColorMatrix type="matrix" values="0 0 0 0 0.0352941 0 0 0 0 0.117647 0 0 0 0 0.258824 0 0 0 0.31 0"/>
            <feBlend mode="normal" in2="BackgroundImageFix" result="effect1_dropShadow_0_1"/>
            <feColorMatrix in="SourceAlpha" type="matrix" values="0 0 0 0 0 0 0 0 0 0 0 0 0 0 0 0 0 0 127 0" result="hardAlpha"/>
            <feOffset dy="8"/>
            <feGaussianBlur stdDeviation="6"/>
            <feColorMatrix type="matrix" values="0 0 0 0 0.0352941 0 0 0 0 0.117647 0 0 0 0 0.258824 0 0 0 0.15 0"/>
            <feBlend mode="normal" in2="effect1_dropShadow_0_1" result="effect2_dropShadow_0_1"/>
            <feBlend mode="normal" in="SourceGraphic" in2="effect2_dropShadow_0_1" result="shape"/>
        </filter>
        <filter id="filter1_dd_0_1" x="156" y="41" width="328" height="60" filterUnits="userSpaceOnUse" color-interpolation-filters="sRGB">
            <feFlood flood-opacity="0" result="BackgroundImageFix"/>
            <feColorMatrix in="SourceAlpha" type="matrix" values="0 0 0 0 0 0 0 0 0 0 0 0 0 0 0 0 0 0 127 0" result="hardAlpha"/>
            <feOffset/>
            <feGaussianBlur stdDeviation="0.5"/>
            <feColorMatrix type="matrix" values="0 0 0 0 0.0352941 0 0 0 0 0.117647 0 0 0 0 0.258824 0 0 0 0.31 0"/>
            <feBlend mode="normal" in2="BackgroundImageFix" result="effect1_dropShadow_0_1"/>
            <feColorMatrix in="SourceAlpha" type="matrix" values="0 0 0 0 0 0 0 0 0 0 0 0 0 0 0 0 0 0 127 0" result="hardAlpha"/>
            <feOffset dy="8"/>
            <feGaussianBlur stdDeviation="6"/>
            <feColorMatrix type="matrix" values="0 0 0 0 0.0352941 0 0 0 0 0.117647 0 0 0 0 0.258824 0 0 0 0.15 0"/>
            <feBlend mode="normal" in2="effect1_dropShadow_0_1" result="effect2_dropShadow_0_1"/>
            <feBlend mode="normal" in="SourceGraphic" in2="effect2_dropShadow_0_1" result="shape"/>
        </filter>
        <filter id="filter2_d_0_1" x="385" y="86" width="8.97632" height="17.9136" filterUnits="userSpaceOnUse" color-interpolation-filters="sRGB">
            <feFlood flood-opacity="0" result="BackgroundImageFix"/>
            <feColorMatrix in="SourceAlpha" type="matrix" values="0 0 0 0 0 0 0 0 0 0 0 0 0 0 0 0 0 0 127 0" result="hardAlpha"/>
            <feOffset/>
            <feGaussianBlur stdDeviation="0.5"/>
            <feColorMatrix type="matrix" values="0 0 0 0 1 0 0 0 0 1 0 0 0 0 1 0 0 0 1 0"/>
            <feBlend mode="normal" in2="BackgroundImageFix" result="effect1_dropShadow_0_1"/>
            <feBlend mode="normal" in="SourceGraphic" in2="effect1_dropShadow_0_1" result="shape"/>
        </filter>
    </defs>
</svg>
