<svg width="718" height="774" viewBox="0 0 718 774" fill="none" xmlns="http://www.w3.org/2000/svg">
    <path d="M40.1054 34.1972L47.2148 9.41016H45.2188L38.1094 34.1972H40.1054Z" fill="#0065FF"/>
    <path d="M53 4V36" stroke="black"/>
    <g filter="url(#filter0_dd_202_2083)">
        <path d="M564 74H24V178H564V74Z" fill="white"/>
        <path d="M120 86H40V166H120V86Z" fill="white"/>
        <path d="M114 87H46C43.2386 87 41 89.2386 41 92V160C41 162.761 43.2386 165 46 165H114C116.761 165 119 162.761 119 160V92C119 89.2386 116.761 87 114 87Z" fill="white" stroke="#DFE1E6"/>
        <path d="M54 112C54 108.686 56.6862 106 60 106H118V146H60C56.6862 146 54 143.314 54 140V112Z" fill="#ECEDF0"/>
        <path d="M80 116H68C65.7909 116 64 117.791 64 120V132C64 134.209 65.7909 136 68 136H80C82.2091 136 84 134.209 84 132V120C84 117.791 82.2091 116 80 116Z" fill="#0052CC"/>
        <path fill-rule="evenodd" clip-rule="evenodd" d="M71.6196 130.729L71.7214 130.84C72.1472 131.3 72.8866 131.259 73.2594 130.755L73.3556 130.625L79.5778 122.216C79.9802 121.672 79.8986 120.878 79.3956 120.443C78.8924 120.008 78.1582 120.096 77.7556 120.64L72.3496 127.951L70.1584 125.582C69.7028 125.089 68.964 125.089 68.5084 125.582C68.0528 126.074 68.0528 126.873 68.5084 127.366L71.6196 130.729Z" fill="white"/>
        <path d="M92 126C92 124.895 92.8954 124 94 124H118V128H94C92.8954 128 92 127.105 92 126Z" fill="#C1C7D0"/>
        <path d="M330 102H160C155.582 102 152 105.582 152 110C152 114.418 155.582 118 160 118H330C334.418 118 338 114.418 338 110C338 105.582 334.418 102 330 102Z" fill="#C1C7D0"/>
        <path d="M450 134H160C155.582 134 152 137.582 152 142C152 146.418 155.582 150 160 150H450C454.418 150 458 146.418 458 142C458 137.582 454.418 134 450 134Z" fill="#DFE1E6"/>
        <path d="M564 178H24V282H564V178Z" fill="white"/>
        <path d="M120 190H40V270H120V190Z" fill="white"/>
        <path d="M114 191H46C43.2386 191 41 193.239 41 196V264C41 266.761 43.2386 269 46 269H114C116.761 269 119 266.761 119 264V196C119 193.239 116.761 191 114 191Z" fill="white" stroke="#DFE1E6"/>
        <path d="M110 208H50C48.8954 208 48 208.895 48 210V254C48 255.105 48.8954 256 50 256H110C111.105 256 112 255.105 112 254V210C112 208.895 111.105 208 110 208Z" fill="url(#paint0_linear_202_2083)"/>
        <path d="M104 216H56V248H104V216Z" fill="#E5E8EC"/>
        <path d="M60.7021 244.124L71.8901 232.09L83.0783 244.124H60.7021Z" fill="#0049B0"/>
        <path d="M66.6824 244.124L83.0782 226.488L99.4738 244.124H66.6824Z" fill="#0065FF"/>
        <g style="mix-blend-mode:screen" opacity="0.37">
            <path d="M88.9684 236.706C83.731 234.196 78.7592 235.578 71.93 233.96C67.2494 232.852 61.4388 230.27 56 224V247.826H96.5876C95.946 243.68 94.0692 239.152 88.9684 236.706Z" fill="url(#paint1_linear_202_2083)"/>
        </g>
        <path d="M66 230.114C68.2092 230.114 70 228.298 70 226.056C70 223.816 68.2092 222 66 222C63.7908 222 62 223.816 62 226.056C62 228.298 63.7908 230.114 66 230.114Z" fill="#FFAB00"/>
        <path d="M330 206H160C155.582 206 152 209.582 152 214C152 218.418 155.582 222 160 222H330C334.418 222 338 218.418 338 214C338 209.582 334.418 206 330 206Z" fill="#C1C7D0"/>
        <path d="M450 238H160C155.582 238 152 241.582 152 246C152 250.418 155.582 254 160 254H450C454.418 254 458 250.418 458 246C458 241.582 454.418 238 450 238Z" fill="#DFE1E6"/>
        <path d="M564 282H24V386H564V282Z" fill="white"/>
        <path d="M120 294H40V374H120V294Z" fill="white"/>
        <path d="M114 295H46C43.2386 295 41 297.239 41 300V368C41 370.761 43.2386 373 46 373H114C116.761 373 119 370.761 119 368V300C119 297.239 116.761 295 114 295Z" fill="white" stroke="#DFE1E6"/>
        <path fill-rule="evenodd" clip-rule="evenodd" d="M68 350C76.8366 350 84 342.836 84 334C84 325.164 76.8366 318 68 318C59.1634 318 52 325.164 52 334C52 342.836 59.1634 350 68 350Z" fill="#2684FF"/>
        <path fill-rule="evenodd" clip-rule="evenodd" d="M77.75 343.534C75.2734 345.98 71.8376 347.5 68.041 347.5C64.2014 347.5 60.7324 345.942 58.25 343.448V341.8C58.25 339.702 59.9952 338 62.15 338H73.85C76.0048 338 77.75 339.702 77.75 341.8V343.534Z" fill="#B3D4FF"/>
        <path fill-rule="evenodd" clip-rule="evenodd" d="M67.999 324C64.8234 324 62.25 326.574 62.25 329.75C62.25 332.926 64.8234 335.5 67.999 335.5C71.1746 335.5 73.75 332.926 73.75 329.75C73.75 326.574 71.1746 324 67.999 324Z" fill="#B3D4FF"/>
        <path d="M113 324H91C90.4477 324 90 324.448 90 325C90 325.552 90.4477 326 91 326H113C113.552 326 114 325.552 114 325C114 324.448 113.552 324 113 324Z" fill="#A5ADBA"/>
        <path d="M101 332H91C90.4477 332 90 332.448 90 333C90 333.552 90.4477 334 91 334H101C101.552 334 102 333.552 102 333C102 332.448 101.552 332 101 332Z" fill="#A5ADBA"/>
        <path d="M105 340H91C90.4477 340 90 340.448 90 341C90 341.552 90.4477 342 91 342H105C105.552 342 106 341.552 106 341C106 340.448 105.552 340 105 340Z" fill="#A5ADBA"/>
        <path d="M330 310H160C155.582 310 152 313.582 152 318C152 322.418 155.582 326 160 326H330C334.418 326 338 322.418 338 318C338 313.582 334.418 310 330 310Z" fill="#C1C7D0"/>
        <path d="M450 342H160C155.582 342 152 345.582 152 350C152 354.418 155.582 358 160 358H450C454.418 358 458 354.418 458 350C458 345.582 454.418 342 450 342Z" fill="#DFE1E6"/>
        <path d="M564 386H24V490H564V386Z" fill="white"/>
        <path d="M120 398H40V478H120V398Z" fill="white"/>
        <path d="M114 399H46C43.2386 399 41 401.239 41 404V472C41 474.761 43.2386 477 46 477H114C116.761 477 119 474.761 119 472V404C119 401.239 116.761 399 114 399Z" fill="white" stroke="#DFE1E6"/>
        <mask id="mask0_202_2083" style="mask-type:alpha" maskUnits="userSpaceOnUse" x="56" y="414" width="48" height="48">
            <path fill-rule="evenodd" clip-rule="evenodd" d="M56 414H104V462H56V414Z" fill="white"/>
        </mask>
        <g mask="url(#mask0_202_2083)">
            <path fill-rule="evenodd" clip-rule="evenodd" d="M104 438C104 451.254 93.2546 462 80 462C66.7454 462 56 451.254 56 438C56 424.746 66.7454 414 80 414C93.2546 414 104 424.746 104 438Z" fill="#FFCC4D"/>
            <path fill-rule="evenodd" clip-rule="evenodd" d="M80.0001 442C75.1693 442 71.9641 441.438 68.0001 440.666C67.0947 440.492 65.3333 440.666 65.3333 443.334C65.3333 448.666 71.4601 455.334 80.0001 455.334C88.5387 455.334 94.6667 448.666 94.6667 443.334C94.6667 440.666 92.9053 440.49 92.0001 440.666C88.0361 441.438 84.8307 442 80.0001 442Z" fill="#664500"/>
            <path fill-rule="evenodd" clip-rule="evenodd" d="M68 443.334C68 443.334 72 444.666 80 444.666C88 444.666 92 443.334 92 443.334C92 443.334 89.3334 448.666 80 448.666C70.6666 448.666 68 443.334 68 443.334Z" fill="white"/>
            <path fill-rule="evenodd" clip-rule="evenodd" d="M75.3333 432C75.3333 434.578 73.8413 436.666 71.9999 436.666C70.1587 436.666 68.6667 434.578 68.6667 432C68.6667 429.422 70.1587 427.334 71.9999 427.334C73.8413 427.334 75.3333 429.422 75.3333 432Z" fill="#664500"/>
            <path fill-rule="evenodd" clip-rule="evenodd" d="M91.3333 432C91.3333 434.578 89.8413 436.666 87.9999 436.666C86.1587 436.666 84.6667 434.578 84.6667 432C84.6667 429.422 86.1587 427.334 87.9999 427.334C89.8413 427.334 91.3333 429.422 91.3333 432Z" fill="#664500"/>
        </g>
        <path d="M330 414H160C155.582 414 152 417.582 152 422C152 426.418 155.582 430 160 430H330C334.418 430 338 426.418 338 422C338 417.582 334.418 414 330 414Z" fill="#C1C7D0"/>
        <path d="M450 446H160C155.582 446 152 449.582 152 454C152 458.418 155.582 462 160 462H450C454.418 462 458 458.418 458 454C458 449.582 454.418 446 450 446Z" fill="#DFE1E6"/>
        <path d="M564 490H24V594H564V490Z" fill="white"/>
        <path d="M120 502H40V582H120V502Z" fill="white"/>
        <path d="M114 503H46C43.2386 503 41 505.239 41 508V576C41 578.761 43.2386 581 46 581H114C116.761 581 119 578.761 119 576V508C119 505.239 116.761 503 114 503Z" fill="white" stroke="#DFE1E6"/>
        <path fill-rule="evenodd" clip-rule="evenodd" d="M54 520C54 518.896 54.8954 518 56 518H118V566H56C54.8954 566 54 565.104 54 564V520Z" fill="#EBECF0"/>
        <path fill-rule="evenodd" clip-rule="evenodd" d="M58 534C58 532.896 58.8954 532 60 532H118V562H60C58.8954 562 58 561.104 58 560V534Z" fill="white"/>
        <path fill-rule="evenodd" clip-rule="evenodd" d="M65 536C64.4478 536 64 536.448 64 537C64 537.552 64.4478 538 65 538H111C111.552 538 112 537.552 112 537C112 536.448 111.552 536 111 536H65ZM64 543C64 542.448 64.4478 542 65 542H111C111.552 542 112 542.448 112 543C112 543.552 111.552 544 111 544H65C64.4478 544 64 543.552 64 543ZM65 548C64.4478 548 64 548.448 64 549C64 549.552 64.4478 550 65 550H111C111.552 550 112 549.552 112 549C112 548.448 111.552 548 111 548H65ZM65 554C64.4478 554 64 554.448 64 555C64 555.552 64.4478 556 65 556H93C93.5522 556 94 555.552 94 555C94 554.448 93.5522 554 93 554H65Z" fill="#A5ADBA"/>
        <path d="M103 524H69C68.4477 524 68 524.448 68 525C68 525.552 68.4477 526 69 526H103C103.552 526 104 525.552 104 525C104 524.448 103.552 524 103 524Z" fill="#2684FF"/>
        <path d="M59.2928 522.708C58.9024 522.316 58.9024 521.684 59.2928 521.292C59.6834 520.902 60.3166 520.902 60.7072 521.292L63.7072 524.292C64.0976 524.684 64.0976 525.316 63.7072 525.708L60.7072 528.708C60.3166 529.098 59.6834 529.098 59.2928 528.708C58.9024 528.316 58.9024 527.684 59.2928 527.292L61.5858 525L59.2928 522.708Z" fill="#2684FF"/>
        <path d="M330 518H160C155.582 518 152 521.582 152 526C152 530.418 155.582 534 160 534H330C334.418 534 338 530.418 338 526C338 521.582 334.418 518 330 518Z" fill="#C1C7D0"/>
        <path d="M450 550H160C155.582 550 152 553.582 152 558C152 562.418 155.582 566 160 566H450C454.418 566 458 562.418 458 558C458 553.582 454.418 550 450 550Z" fill="#DFE1E6"/>
        <path d="M564 594H24V698H564V594Z" fill="white"/>
        <path d="M120 606H40V686H120V606Z" fill="white"/>
        <path d="M114 607H46C43.2386 607 41 609.239 41 612V680C41 682.761 43.2386 685 46 685H114C116.761 685 119 682.761 119 680V612C119 609.239 116.761 607 114 607Z" fill="white" stroke="#DFE1E6"/>
        <path fill-rule="evenodd" clip-rule="evenodd" d="M80 638H108V654H80V638Z" fill="white" stroke="#C1C7D0"/>
        <path fill-rule="evenodd" clip-rule="evenodd" d="M80 622H106C107.105 622 108 622.896 108 624V638H80V622Z" fill="#DFE1E6" stroke="#C1C7D0"/>
        <path fill-rule="evenodd" clip-rule="evenodd" d="M80 654H108V668C108 669.104 107.105 670 106 670H80V654Z" fill="white" stroke="#C1C7D0"/>
        <path fill-rule="evenodd" clip-rule="evenodd" d="M52 638H80V654H52V638Z" fill="white" stroke="#C1C7D0"/>
        <path fill-rule="evenodd" clip-rule="evenodd" d="M52 624C52 622.896 52.8954 622 54 622H80V638H52V624Z" fill="#DFE1E6" stroke="#C1C7D0"/>
        <path fill-rule="evenodd" clip-rule="evenodd" d="M52 654H80V670H54C52.8954 670 52 669.104 52 668V654Z" fill="white" stroke="#C1C7D0"/>
        <path d="M330 622H160C155.582 622 152 625.582 152 630C152 634.418 155.582 638 160 638H330C334.418 638 338 634.418 338 630C338 625.582 334.418 622 330 622Z" fill="#C1C7D0"/>
        <path d="M450 654H160C155.582 654 152 657.582 152 662C152 666.418 155.582 670 160 670H450C454.418 670 458 666.418 458 662C458 657.582 454.418 654 450 654Z" fill="#DFE1E6"/>
    </g>
    <defs>
        <filter id="filter0_dd_202_2083" x="12" y="70" width="564" height="648" filterUnits="userSpaceOnUse" color-interpolation-filters="sRGB">
            <feFlood flood-opacity="0" result="BackgroundImageFix"/>
            <feColorMatrix in="SourceAlpha" type="matrix" values="0 0 0 0 0 0 0 0 0 0 0 0 0 0 0 0 0 0 127 0" result="hardAlpha"/>
            <feOffset/>
            <feGaussianBlur stdDeviation="0.5"/>
            <feColorMatrix type="matrix" values="0 0 0 0 0.0352941 0 0 0 0 0.117647 0 0 0 0 0.258824 0 0 0 0.31 0"/>
            <feBlend mode="normal" in2="BackgroundImageFix" result="effect1_dropShadow_202_2083"/>
            <feColorMatrix in="SourceAlpha" type="matrix" values="0 0 0 0 0 0 0 0 0 0 0 0 0 0 0 0 0 0 127 0" result="hardAlpha"/>
            <feOffset dy="8"/>
            <feGaussianBlur stdDeviation="6"/>
            <feColorMatrix type="matrix" values="0 0 0 0 0.0352941 0 0 0 0 0.117647 0 0 0 0 0.258824 0 0 0 0.15 0"/>
            <feBlend mode="normal" in2="effect1_dropShadow_202_2083" result="effect2_dropShadow_202_2083"/>
            <feBlend mode="normal" in="SourceGraphic" in2="effect2_dropShadow_202_2083" result="shape"/>
        </filter>
        <linearGradient id="paint0_linear_202_2083" x1="35.5522" y1="193.75" x2="36.8794" y2="256.906" gradientUnits="userSpaceOnUse">
            <stop stop-color="#FFD500"/>
            <stop offset="1" stop-color="#FFAB00"/>
        </linearGradient>
        <linearGradient id="paint1_linear_202_2083" x1="96.8712" y1="222.186" x2="50.1066" y2="222.186" gradientUnits="userSpaceOnUse">
            <stop stop-color="#FAFBFC"/>
            <stop offset="0.1252" stop-color="#F4F6F8" stop-opacity="0.8589"/>
            <stop offset="0.5465" stop-color="#E3E6EA" stop-opacity="0.4017"/>
            <stop offset="0.8366" stop-color="#D7DCE1" stop-opacity="0.1128"/>
            <stop offset="0.9703" stop-color="#D3D8DE" stop-opacity="0.01"/>
        </linearGradient>
    </defs>
</svg>