<svg width="1128" height="265" viewBox="0 0 1128 265" fill="none" xmlns="http://www.w3.org/2000/svg">
<rect x="1.5" y="2.49231" width="121" height="69" rx="34.5" fill="white"/>
<g clip-path="url(#clip0_236_1639)">
<path d="M70.608 36.8801C70.608 36.2095 70.448 35.5801 70.18 35.0081C68.392 29.2401 60.0214 29.6615 48.1147 29.3801C46.124 29.3335 47.2627 26.9828 47.9614 21.8228C48.416 18.4668 46.252 13.3135 42.6147 13.3135C36.6174 13.3135 42.3867 18.0441 37.084 29.7428C34.2507 35.9935 27.9174 32.4921 27.9174 38.7708V53.0628C27.9174 55.5068 28.1574 57.8561 31.5947 58.2428C34.9267 58.6175 34.1774 60.9921 38.984 60.9921H63.0427C65.4934 60.9921 67.4867 58.9975 67.4867 56.5468C67.4867 55.5308 67.1307 54.6055 66.556 53.8561C67.916 53.0948 68.8494 51.6575 68.8494 49.9908C68.8494 48.9775 68.4947 48.0521 67.9214 47.3041C69.2854 46.5441 70.2214 45.1055 70.2214 43.4361C70.2214 42.2241 69.7307 41.1255 68.94 40.3215C69.9494 39.5068 70.608 38.2748 70.608 36.8801V36.8801Z" fill="#FFDB5E"/>
<path d="M54.6934 41.3243H66.1654C67.7254 41.3243 69.1894 40.4896 69.9867 39.1469C70.3147 38.5936 70.132 37.8776 69.5774 37.5483C69.024 37.2189 68.308 37.4043 67.9787 37.9576C67.6014 38.5963 66.904 38.9909 66.164 38.9909H54.4174C53.2534 38.9909 52.3067 38.0443 52.3067 36.8803C52.3067 35.7163 53.2534 34.7696 54.4174 34.7696H62.2667C62.9107 34.7696 63.4334 34.2469 63.4334 33.6029C63.4334 32.9589 62.9107 32.4363 62.2667 32.4363H54.416C51.9654 32.4363 49.972 34.4296 49.972 36.8803C49.972 38.2469 50.6054 39.4563 51.5787 40.2723C50.7587 41.0789 50.248 42.1989 50.248 43.4363C50.248 44.8069 50.8854 46.0203 51.864 46.8349C51.0494 47.6403 50.544 48.7563 50.544 49.9909C50.544 51.4843 51.2894 52.8016 52.4227 53.6083C51.724 54.3936 51.2867 55.4163 51.2867 56.5469C51.2867 58.9976 53.28 60.9909 55.7307 60.9909H63.0427C64.6027 60.9909 66.068 60.1576 66.8654 58.8149C67.1947 58.2616 67.012 57.5456 66.4587 57.2163C65.904 56.8896 65.188 57.0696 64.86 57.6229C64.48 58.2616 63.7827 58.6576 63.0427 58.6576H55.7307C54.5667 58.6576 53.62 57.7109 53.62 56.5469C53.62 55.3829 54.5667 54.4363 55.7307 54.4363H64.4054C65.9654 54.4363 67.432 53.6016 68.228 52.2589C68.5574 51.7043 68.3747 50.9883 67.8214 50.6603C67.2627 50.3256 66.5494 50.5136 66.2227 51.0669C65.8374 51.7163 65.1574 52.1029 64.4054 52.1029H54.988C53.824 52.1029 52.8774 51.1549 52.8774 49.9909C52.8774 48.8269 53.824 47.8803 54.988 47.8803H65.776C67.336 47.8803 68.8014 47.0469 69.5987 45.7043C69.928 45.1509 69.7454 44.4349 69.192 44.1056C68.636 43.7776 67.9214 43.9589 67.5934 44.5123C67.208 45.1603 66.528 45.5469 65.776 45.5469H54.6934C53.5294 45.5469 52.5827 44.6003 52.5827 43.4363C52.5827 42.2723 53.528 41.3243 54.6934 41.3243V41.3243Z" fill="#EE9547"/>
</g>
<path d="M92.1533 48.9923H95.0537V25.7408H92.1694L85.9819 30.1881V33.2496L91.8955 28.9635H92.1533V48.9923Z" fill="#42526E"/>
<rect x="1.5" y="2.49231" width="121" height="69" rx="34.5" stroke="#DFE1E6" stroke-width="3"/>
<rect x="137.5" y="2.49231" width="121" height="69" rx="34.5" fill="white"/>
<g clip-path="url(#clip1_236_1639)">
<path d="M184 60.7256C183.48 60.7256 183.007 60.4349 182.772 59.9722L180.372 55.2336L176.34 58.6949C176.085 58.9096 175.767 59.0242 175.444 59.0242C175.267 59.0242 175.088 58.9909 174.919 58.9202C174.44 58.7229 174.111 58.2709 174.073 57.7562L173.668 52.4549L168.617 54.1096C168.477 54.1549 168.333 54.1776 168.189 54.1776C167.829 54.1776 167.48 54.0362 167.216 53.7736C166.851 53.4096 166.721 52.8656 166.883 52.3722L168.536 47.3216L163.24 46.9202C162.724 46.8789 162.272 46.5536 162.073 46.0749C161.876 45.5936 161.963 45.0456 162.3 44.6522L165.759 40.6202L161.02 38.2202C160.557 37.9856 160.267 37.5096 160.267 36.9922C160.267 36.4749 160.557 35.9989 161.02 35.7642L165.759 33.3642L162.3 29.3322C161.964 28.9389 161.876 28.3882 162.073 27.9109C162.272 27.4322 162.723 27.1029 163.24 27.0656L168.536 26.6602L166.883 21.6096C166.721 21.1162 166.851 20.5762 167.216 20.2082C167.48 19.9469 167.829 19.8069 168.189 19.8069C168.333 19.8069 168.477 19.8296 168.617 19.8749L173.668 21.5282L174.073 16.2322C174.112 15.7149 174.44 15.2642 174.919 15.0656C175.088 14.9962 175.267 14.9616 175.444 14.9616C175.767 14.9616 176.085 15.0736 176.34 15.2922L180.372 18.7509L182.772 14.0122C183.007 13.5496 183.48 13.2589 184 13.2589C184.517 13.2589 184.993 13.5496 185.227 14.0122L187.629 18.7509L191.661 15.2922C191.915 15.0736 192.236 14.9616 192.556 14.9616C192.736 14.9616 192.913 14.9962 193.084 15.0656C193.561 15.2642 193.888 15.7149 193.929 16.2322L194.333 21.5282L199.38 19.8749C199.52 19.8282 199.667 19.8069 199.808 19.8069C200.168 19.8069 200.52 19.9469 200.78 20.2082C201.148 20.5762 201.277 21.1176 201.116 21.6096L199.461 26.6602L204.763 27.0656C205.277 27.1042 205.729 27.4322 205.927 27.9109C206.124 28.3882 206.039 28.9389 205.701 29.3322L202.24 33.3642L206.979 35.7642C207.443 36.0002 207.733 36.4749 207.733 36.9922C207.733 37.5096 207.443 37.9842 206.98 38.2202L202.241 40.6202L205.703 44.6522C206.04 45.0456 206.125 45.5936 205.928 46.0749C205.731 46.5522 205.279 46.8789 204.76 46.9202L199.463 47.3216L201.117 52.3722C201.279 52.8669 201.149 53.4082 200.781 53.7736C200.521 54.0362 200.168 54.1776 199.809 54.1776C199.668 54.1776 199.521 54.1549 199.381 54.1096L194.335 52.4549L193.931 57.7522C193.889 58.2709 193.564 58.7229 193.085 58.9202C192.913 58.9909 192.736 59.0242 192.557 59.0242C192.237 59.0242 191.917 58.9096 191.663 58.6949L187.631 55.2336L185.228 59.9722C184.993 60.4349 184.517 60.7256 184 60.7256V60.7256Z" fill="#F4900C"/>
<path d="M201.333 36.9921C201.333 46.5641 193.572 54.3255 184 54.3255C174.428 54.3255 166.667 46.5655 166.667 36.9921C166.667 27.4188 174.428 19.6588 184 19.6588C193.572 19.6588 201.333 27.4201 201.333 36.9921Z" fill="#FFCC4D"/>
<path d="M184 44.2871C175.704 44.2871 173.333 41.1831 173.333 42.6498C173.333 44.1191 178.075 47.9564 184 47.9564C189.925 47.9564 194.667 44.1178 194.667 42.6498C194.667 41.1831 192.297 44.2871 184 44.2871ZM194.667 32.5484C194.667 34.5124 193.075 36.1044 191.111 36.1044C189.148 36.1044 187.556 34.5124 187.556 32.5484C187.556 30.5844 189.148 28.9924 191.111 28.9924C193.075 28.9924 194.667 30.5831 194.667 32.5484ZM180.444 32.5484C180.444 34.5124 178.851 36.1044 176.888 36.1044C174.925 36.1044 173.332 34.5124 173.332 32.5484C173.332 30.5844 174.927 28.9924 176.889 28.9924C178.852 28.9924 180.444 30.5831 180.444 32.5484Z" fill="#F4900C"/>
</g>
<path d="M228.153 48.9923H231.054V25.7408H228.169L221.982 30.1881V33.2496L227.896 28.9635H228.153V48.9923Z" fill="#42526E"/>
<rect x="137.5" y="2.49231" width="121" height="69" rx="34.5" stroke="#DFE1E6" stroke-width="3"/>
<rect x="272" y="0.99231" width="72" height="72" rx="24" fill="#B3D4FF" fill-opacity="0.6"/>
<path d="M300.095 41.3896C299.763 40.4376 300.301 39.4076 301.299 39.0896C302.299 38.7716 303.377 39.2856 303.709 40.2396C303.829 40.5876 304.159 41.2136 304.699 41.8316C305.551 42.8076 306.609 43.3596 307.997 43.3596C309.383 43.3596 310.443 42.8076 311.297 41.8316C311.837 41.2116 312.163 40.5876 312.285 40.2396C312.617 39.2876 313.697 38.7716 314.693 39.0896C315.693 39.4076 316.233 40.4356 315.899 41.3896C315.639 42.1316 315.109 43.1416 314.221 44.1596C312.693 45.9116 310.609 46.9956 307.997 46.9956C305.385 46.9956 303.301 45.9116 301.773 44.1596C301.046 43.3485 300.477 42.4092 300.095 41.3896V41.3896ZM302.997 34.9956C302.201 34.9956 301.438 34.6795 300.875 34.1169C300.313 33.5543 299.997 32.7913 299.997 31.9956C299.997 31.2 300.313 30.4369 300.875 29.8743C301.438 29.3117 302.201 28.9956 302.997 28.9956C303.792 28.9956 304.555 29.3117 305.118 29.8743C305.681 30.4369 305.997 31.2 305.997 31.9956C305.997 32.7913 305.681 33.5543 305.118 34.1169C304.555 34.6795 303.792 34.9956 302.997 34.9956ZM312.997 34.9956C312.201 34.9956 311.438 34.6795 310.875 34.1169C310.313 33.5543 309.997 32.7913 309.997 31.9956C309.997 31.2 310.313 30.4369 310.875 29.8743C311.438 29.3117 312.201 28.9956 312.997 28.9956C313.792 28.9956 314.555 29.3117 315.118 29.8743C315.681 30.4369 315.997 31.2 315.997 31.9956C315.997 32.7913 315.681 33.5543 315.118 34.1169C314.555 34.6795 313.792 34.9956 312.997 34.9956ZM321.997 22.9956H323.997C324.527 22.9956 325.036 23.2063 325.411 23.5814C325.786 23.9565 325.997 24.4652 325.997 24.9956C325.997 25.5261 325.786 26.0348 325.411 26.4098C325.036 26.7849 324.527 26.9956 323.997 26.9956H321.997V28.9956C321.997 29.5261 321.786 30.0348 321.411 30.4098C321.036 30.7849 320.527 30.9956 319.997 30.9956C319.466 30.9956 318.958 30.7849 318.582 30.4098C318.207 30.0348 317.997 29.5261 317.997 28.9956V26.9956H315.997C315.466 26.9956 314.958 26.7849 314.582 26.4098C314.207 26.0348 313.997 25.5261 313.997 24.9956C313.997 24.4652 314.207 23.9565 314.582 23.5814C314.958 23.2063 315.466 22.9956 315.997 22.9956H317.997V20.9956C317.997 20.4652 318.207 19.9565 318.582 19.5814C318.958 19.2064 319.466 18.9956 319.997 18.9956C320.527 18.9956 321.036 19.2064 321.411 19.5814C321.786 19.9565 321.997 20.4652 321.997 20.9956V22.9956ZM311.997 19.4416V23.5756C309.011 22.6862 305.814 22.8179 302.912 23.9499C300.01 25.0818 297.568 27.1494 295.973 29.8253C294.379 32.5013 293.722 35.6327 294.107 38.7239C294.492 41.8151 295.897 44.6896 298.1 46.8923C300.303 49.0951 303.177 50.5002 306.268 50.8854C309.36 51.2706 312.491 50.6138 315.167 49.0189C317.843 47.4241 319.91 44.9823 321.042 42.0801C322.174 39.1779 322.306 35.9811 321.417 32.9956H325.551C326.418 36.8022 326.023 40.7874 324.427 44.3504C322.831 47.9133 320.12 50.8608 316.703 52.7485C313.286 54.6361 309.347 55.3615 305.482 54.8152C301.616 54.269 298.033 52.4808 295.272 49.7202C292.512 46.9596 290.723 43.3764 290.177 39.5107C289.631 35.6451 290.356 31.7066 292.244 28.2893C294.131 24.8719 297.079 22.1609 300.642 20.565C304.205 18.969 308.19 18.5748 311.997 19.4416V19.4416Z" fill="#0052CC"/>
<g filter="url(#filter0_dd_236_1639)">
<rect x="276" y="84.9922" width="816" height="120" rx="30" fill="white"/>
<g clip-path="url(#clip2_236_1639)">
<path d="M358.26 144.852C358.26 144.014 358.06 143.227 357.725 142.512C355.49 135.302 345.027 135.829 330.143 135.477C327.655 135.419 329.078 132.481 329.952 126.031C330.52 121.836 327.815 115.394 323.268 115.394C315.772 115.394 322.983 121.307 316.355 135.931C312.813 143.744 304.897 139.367 304.897 147.216V165.081C304.897 168.136 305.197 171.072 309.493 171.556C313.658 172.024 312.722 174.992 318.73 174.992H348.803C351.867 174.992 354.358 172.499 354.358 169.436C354.358 168.166 353.913 167.009 353.195 166.072C354.895 165.121 356.062 163.324 356.062 161.241C356.062 159.974 355.618 158.817 354.902 157.882C356.607 156.932 357.777 155.134 357.777 153.047C357.777 151.532 357.163 150.159 356.175 149.154C357.437 148.136 358.26 146.596 358.26 144.852V144.852Z" fill="#FFDB5E"/>
<path d="M338.367 150.407H352.707C354.657 150.407 356.487 149.364 357.483 147.686C357.893 146.994 357.665 146.099 356.972 145.687C356.28 145.276 355.385 145.507 354.973 146.199C354.502 146.997 353.63 147.491 352.705 147.491H338.022C336.567 147.491 335.383 146.307 335.383 144.852C335.383 143.397 336.567 142.214 338.022 142.214H347.833C348.638 142.214 349.292 141.561 349.292 140.756C349.292 139.951 348.638 139.297 347.833 139.297H338.02C334.957 139.297 332.465 141.789 332.465 144.852C332.465 146.561 333.257 148.072 334.473 149.092C333.448 150.101 332.81 151.501 332.81 153.047C332.81 154.761 333.607 156.277 334.83 157.296C333.812 158.302 333.18 159.697 333.18 161.241C333.18 163.107 334.112 164.754 335.528 165.762C334.655 166.744 334.108 168.022 334.108 169.436C334.108 172.499 336.6 174.991 339.663 174.991H348.803C350.753 174.991 352.585 173.949 353.582 172.271C353.993 171.579 353.765 170.684 353.073 170.272C352.38 169.864 351.485 170.089 351.075 170.781C350.6 171.579 349.728 172.074 348.803 172.074H339.663C338.208 172.074 337.025 170.891 337.025 169.436C337.025 167.981 338.208 166.797 339.663 166.797H350.507C352.457 166.797 354.29 165.754 355.285 164.076C355.697 163.382 355.468 162.487 354.777 162.077C354.078 161.659 353.187 161.894 352.778 162.586C352.297 163.397 351.447 163.881 350.507 163.881H338.735C337.28 163.881 336.097 162.696 336.097 161.241C336.097 159.786 337.28 158.602 338.735 158.602H352.22C354.17 158.602 356.002 157.561 356.998 155.882C357.41 155.191 357.182 154.296 356.49 153.884C355.795 153.474 354.902 153.701 354.492 154.392C354.01 155.202 353.16 155.686 352.22 155.686H338.367C336.912 155.686 335.728 154.502 335.728 153.047C335.728 151.592 336.91 150.407 338.367 150.407V150.407Z" fill="#EE9547"/>
</g>
<g clip-path="url(#clip3_236_1639)">
<path d="M461.837 155.57C460.679 153.887 461.325 151.454 461.037 148.767C460.74 144.384 458.857 140.137 455.204 136.74L442.76 125.17C442.76 125.17 440.309 122.889 438.025 125.342C435.745 127.794 438.199 130.075 438.199 130.075L443.455 134.965L448.012 139.202C448.012 139.202 446.87 140.429 441.827 135.739L424.794 119.895C424.794 119.895 422.339 117.615 420.057 120.069C417.777 122.52 420.229 124.802 420.229 124.802L436.335 139.784C436.3 139.75 435.117 140.937 435.095 140.917L417.862 124.889C417.862 124.889 415.409 122.607 413.127 125.06C410.845 127.514 413.299 129.794 413.299 129.794L430.534 145.825C430.554 145.845 429.444 147.099 429.477 147.13L414.61 133.3C414.61 133.3 412.157 131.019 409.875 133.472C407.594 135.925 410.047 138.207 410.047 138.207L425.854 152.907C425.999 153.042 425.02 154.42 425.202 154.589L413.812 143.995C413.812 143.995 411.359 141.714 409.077 144.169C406.795 146.622 409.249 148.904 409.249 148.904L427.827 166.175C430.929 169.06 434.114 170.52 437.954 171.055C438.735 171.164 439.735 171.164 440.145 171.215C441.44 171.379 442.577 171.839 444.099 172.772C446.057 173.972 448.995 174.472 450.684 172.667L456.44 166.509L461.755 160.822C463.442 159.019 463.14 157.462 461.837 155.57V155.57Z" fill="#EF9645"/>
<path d="M411.26 173.368C410.833 173.368 410.406 173.205 410.081 172.88C409.43 172.228 409.43 171.175 410.081 170.523L416 164.608C416.651 163.957 417.705 163.957 418.356 164.608C419.008 165.26 419.008 166.313 418.356 166.965L412.438 172.882C412.113 173.207 411.686 173.368 411.26 173.368V173.368ZM422.503 174.905C422.321 174.905 422.135 174.875 421.951 174.812C421.083 174.508 420.625 173.558 420.93 172.688L422.548 168.067C422.851 167.198 423.803 166.742 424.671 167.043C425.54 167.348 425.998 168.298 425.693 169.167L424.075 173.788C423.835 174.475 423.191 174.905 422.503 174.905V174.905ZM409.725 162.127C409.038 162.127 408.395 161.698 408.153 161.015C407.846 160.147 408.301 159.195 409.17 158.888L413.328 157.42C414.2 157.12 415.148 157.572 415.455 158.437C415.761 159.305 415.306 160.257 414.438 160.563L410.28 162.032C410.095 162.097 409.908 162.127 409.725 162.127V162.127ZM458.825 125.848C458.398 125.848 457.971 125.685 457.646 125.36C456.995 124.708 456.995 123.653 457.646 123.002L463.566 117.085C464.218 116.435 465.271 116.435 465.923 117.085C466.575 117.735 466.575 118.792 465.923 119.443L460.003 125.36C459.678 125.687 459.251 125.848 458.825 125.848V125.848ZM451.885 123.02C451.703 123.02 451.516 122.988 451.335 122.925C450.466 122.622 450.008 121.672 450.311 120.802L451.928 116.18C452.233 115.312 453.181 114.853 454.051 115.157C454.92 115.46 455.378 116.41 455.075 117.28L453.458 121.902C453.218 122.59 452.573 123.02 451.885 123.02V123.02ZM462.123 132.643C461.436 132.643 460.793 132.215 460.551 131.532C460.245 130.663 460.701 129.712 461.568 129.405L465.725 127.937C466.595 127.628 467.545 128.087 467.851 128.953C468.158 129.822 467.701 130.773 466.835 131.08L462.678 132.548C462.493 132.613 462.306 132.643 462.123 132.643V132.643Z" fill="#FA743E"/>
<path d="M466.983 154.695C465.882 152.975 466.61 150.563 466.413 147.868C466.263 143.478 464.525 139.17 460.988 135.652L448.942 123.67C448.942 123.67 446.568 121.308 444.203 123.683C441.842 126.057 444.217 128.42 444.217 128.42L449.307 133.485L453.717 137.872C453.717 137.872 452.533 139.058 447.652 134.202C442.767 129.343 431.162 117.793 431.162 117.793C431.162 117.793 428.787 115.432 426.423 117.807C424.06 120.18 426.435 122.542 426.435 122.542L442.028 138.058C441.995 138.025 440.772 139.17 440.75 139.148L424.067 122.548C424.067 122.548 421.692 120.185 419.328 122.56C416.967 124.935 419.34 127.297 419.34 127.297L436.025 143.9C436.045 143.92 434.892 145.135 434.925 145.168L420.533 130.847C420.533 130.847 418.158 128.485 415.795 130.86C413.432 133.235 415.807 135.598 415.807 135.598L431.108 150.823C431.248 150.962 430.225 152.308 430.4 152.483L419.373 141.512C419.373 141.512 416.998 139.15 414.635 141.525C412.272 143.9 414.647 146.263 414.647 146.263L432.63 164.15C435.633 167.138 438.767 168.703 442.587 169.368C443.365 169.503 444.365 169.537 444.772 169.602C446.06 169.808 447.18 170.307 448.672 171.292C450.588 172.557 453.508 173.155 455.257 171.408L461.218 165.448L466.722 159.945C468.47 158.195 468.222 156.628 466.983 154.695V154.695Z" fill="#FFDB5E"/>
</g>
<g clip-path="url(#clip4_236_1639)">
<path d="M574.333 146.659C574.333 143.222 573.722 139.927 572.6 136.879C571.833 145.86 567.045 150.474 562.042 148.325C557.355 146.312 560.513 138.464 560.747 134.719C561.14 128.37 560.727 121.104 549.195 115.062C553.987 124.229 549.75 129.924 545.307 130.27C540.377 130.655 535.862 126.034 537.528 118.534C532.132 122.51 531.975 129.204 533.64 133.534C535.377 138.047 533.57 141.797 529.335 142.214C524.602 142.68 521.972 137.145 524.397 128.325C520.2 133.267 517.667 139.667 517.667 146.659C517.667 162.307 530.352 174.992 546 174.992C561.648 174.992 574.333 162.307 574.333 146.659Z" fill="#F4900C"/>
<path d="M563.323 154.991C563.57 160.131 559.055 162.146 556.625 161.172C553.115 159.767 554.057 157.354 553.153 152.354C552.25 147.354 548.778 143.882 543.64 142.354C547.39 152.909 541.562 156.799 538.507 157.494C535.387 158.204 532.252 157.492 531.893 150.816C528.253 154.439 526 159.452 526 164.992C526 165.606 526.038 166.209 526.092 166.809C531.208 171.866 538.237 174.992 546 174.992C553.763 174.992 560.792 171.866 565.908 166.809C565.962 166.209 566 165.606 566 164.992C566 161.347 565.027 157.932 563.323 154.991Z" fill="#FFCC4D"/>
</g>
<path d="M624 132.286C624 115.72 646.941 109.58 654 128.757C661.059 109.578 684 115.718 684 132.286C684 150.286 654 173.108 654 173.108C654 173.108 624 150.286 624 132.286Z" fill="#BE1931"/>
<g clip-path="url(#clip5_236_1639)">
<path d="M792 144.992C792 161.561 778.568 174.992 762 174.992C745.433 174.992 732 161.561 732 144.992C732 128.426 745.433 114.992 762 114.992C778.568 114.992 792 128.426 792 144.992Z" fill="#FFCC4D"/>
<path d="M762 169.992C766.602 169.992 770.333 165.515 770.333 159.992C770.333 154.469 766.602 149.992 762 149.992C757.398 149.992 753.667 154.469 753.667 159.992C753.667 165.515 757.398 169.992 762 169.992Z" fill="#664500"/>
<path d="M741.998 133.326C741.652 133.326 741.3 133.217 741 132.992C740.263 132.441 740.115 131.396 740.667 130.659C746.103 123.409 753.36 123.326 753.667 123.326C754.587 123.326 755.333 124.072 755.333 124.992C755.333 125.911 754.592 126.656 753.673 126.659C753.415 126.662 747.727 126.802 743.333 132.659C743.007 133.096 742.505 133.326 741.998 133.326ZM782.002 133.326C781.493 133.326 780.995 133.096 780.667 132.659C776.267 126.791 770.565 126.662 770.323 126.659C769.407 126.649 768.667 125.899 768.672 124.984C768.677 124.066 769.417 123.326 770.333 123.326C770.64 123.326 777.895 123.409 783.333 130.659C783.887 131.396 783.737 132.441 783 132.992C782.7 133.217 782.35 133.326 782.002 133.326V133.326Z" fill="#664500"/>
<path d="M762 153.326C759.238 153.326 757 156.309 757 159.992H767C767 156.309 764.762 153.326 762 153.326Z" fill="#F5F8FA"/>
<path d="M752 144.992C754.301 144.992 756.167 142.38 756.167 139.159C756.167 135.937 754.301 133.325 752 133.325C749.699 133.325 747.833 135.937 747.833 139.159C747.833 142.38 749.699 144.992 752 144.992Z" fill="#664500"/>
<path d="M772 144.992C774.301 144.992 776.167 142.38 776.167 139.159C776.167 135.937 774.301 133.325 772 133.325C769.699 133.325 767.833 135.937 767.833 139.159C767.833 142.38 769.699 144.992 772 144.992Z" fill="#664500"/>
</g>
<path d="M870 173.245C886.569 173.245 900 159.813 900 143.245C900 126.676 886.569 113.245 870 113.245C853.431 113.245 840 126.676 840 143.245C840 159.813 853.431 173.245 870 173.245Z" fill="#FFCB4C"/>
<path d="M863.866 150.335C863.61 150.131 863.41 149.852 863.315 149.517C863.079 148.705 863.544 147.897 864.356 147.715C872.347 145.913 877.727 150.12 877.955 150.3C878.633 150.84 878.765 151.791 878.26 152.427C877.756 153.058 876.799 153.134 876.123 152.598C875.929 152.449 871.671 149.204 865.214 150.66C864.73 150.768 864.236 150.632 863.866 150.335V150.335Z" fill="#65471B"/>
<path d="M861.386 137.619C863.457 137.619 865.136 135.52 865.136 132.932C865.136 130.343 863.457 128.245 861.386 128.245C859.315 128.245 857.636 130.343 857.636 132.932C857.636 135.52 859.315 137.619 861.386 137.619Z" fill="#65471B"/>
<path d="M881.25 139.493C883.321 139.493 885 137.395 885 134.806C885 132.217 883.321 130.119 881.25 130.119C879.179 130.119 877.5 132.217 877.5 134.806C877.5 137.395 879.179 139.493 881.25 139.493Z" fill="#65471B"/>
<path d="M868.722 175.24C868.722 175.24 870.954 174.515 871.244 172.854C871.549 171.139 870.143 170.795 870.143 170.795C870.143 170.795 871.98 170.428 872.211 168.367C872.428 166.424 870.691 165.962 870.691 165.962C870.691 165.962 872.403 165.256 872.484 163.246C872.551 161.553 870.728 160.726 870.728 160.726C870.728 160.726 879.619 158.571 880.533 158.359C881.444 158.147 882.863 157.274 882.42 155.37C881.98 153.464 880.295 153.397 879.425 153.6C878.553 153.803 867.524 156.363 863.719 157.249L861.18 157.839C860.227 158.063 859.794 157.644 860.467 156.935C861.363 155.989 861.937 154.943 862.136 153.206C862.346 151.38 861.727 149.124 861.372 148.249C860.712 146.624 859.598 145.339 858.312 144.898C856.306 144.21 854.88 145.464 855.591 147.653C856.657 150.924 855.958 153.609 854.121 155.229C849.799 159.035 847.789 161.749 849.127 167.534C850.588 173.843 856.851 177.903 863.16 176.442L868.722 175.24Z" fill="#F19020"/>
<path d="M854.64 124.42C854.351 124.265 854.106 124.025 853.95 123.716C853.569 122.961 853.88 122.08 854.644 121.754C862.172 118.523 868.23 121.678 868.485 121.814C869.249 122.221 869.557 123.132 869.175 123.85C868.793 124.565 867.869 124.814 867.105 124.411C866.887 124.3 862.107 121.884 856.026 124.494C855.572 124.687 855.06 124.644 854.64 124.42V124.42ZM876.055 131.038C875.78 130.865 875.55 130.609 875.416 130.29C875.086 129.51 875.457 128.654 876.242 128.377C883.973 125.666 889.804 129.224 890.047 129.377C890.78 129.836 891.027 130.766 890.598 131.456C890.171 132.144 889.229 132.33 888.496 131.876C888.285 131.749 883.684 129.016 877.437 131.207C876.967 131.368 876.461 131.288 876.055 131.038V131.038Z" fill="#65471B"/>
<line x1="949.5" y1="111.992" x2="949.5" y2="177.992" stroke="#DFE1E6" stroke-width="3"/>
<path fill-rule="evenodd" clip-rule="evenodd" d="M1011 150.992C1014.31 150.992 1017 148.306 1017 144.992C1017 141.678 1014.31 138.992 1011 138.992C1007.69 138.992 1005 141.678 1005 144.992C1005 148.306 1007.69 150.992 1011 150.992ZM1032 150.992C1035.31 150.992 1038 148.306 1038 144.992C1038 141.678 1035.31 138.992 1032 138.992C1028.69 138.992 1026 141.678 1026 144.992C1026 148.306 1028.69 150.992 1032 150.992ZM1059 144.992C1059 148.306 1056.31 150.992 1053 150.992C1049.69 150.992 1047 148.306 1047 144.992C1047 141.678 1049.69 138.992 1053 138.992C1056.31 138.992 1059 141.678 1059 144.992Z" fill="#42526E"/>
</g>
<defs>
<filter id="filter0_dd_236_1639" x="240" y="72.9922" width="888" height="192" filterUnits="userSpaceOnUse" color-interpolation-filters="sRGB">
<feFlood flood-opacity="0" result="BackgroundImageFix"/>
<feColorMatrix in="SourceAlpha" type="matrix" values="0 0 0 0 0 0 0 0 0 0 0 0 0 0 0 0 0 0 127 0" result="hardAlpha"/>
<feOffset/>
<feGaussianBlur stdDeviation="1.5"/>
<feColorMatrix type="matrix" values="0 0 0 0 0.0352941 0 0 0 0 0.117647 0 0 0 0 0.258824 0 0 0 0.31 0"/>
<feBlend mode="normal" in2="BackgroundImageFix" result="effect1_dropShadow_236_1639"/>
<feColorMatrix in="SourceAlpha" type="matrix" values="0 0 0 0 0 0 0 0 0 0 0 0 0 0 0 0 0 0 127 0" result="hardAlpha"/>
<feOffset dy="24"/>
<feGaussianBlur stdDeviation="18"/>
<feColorMatrix type="matrix" values="0 0 0 0 0.0352941 0 0 0 0 0.117647 0 0 0 0 0.258824 0 0 0 0.15 0"/>
<feBlend mode="normal" in2="effect1_dropShadow_236_1639" result="effect2_dropShadow_236_1639"/>
<feBlend mode="normal" in="SourceGraphic" in2="effect2_dropShadow_236_1639" result="shape"/>
</filter>
<clipPath id="clip0_236_1639">
<rect width="48" height="48" fill="white" transform="translate(24 12.9923)"/>
</clipPath>
<clipPath id="clip1_236_1639">
<rect width="48" height="48" fill="white" transform="translate(160 12.9923)"/>
</clipPath>
<clipPath id="clip2_236_1639">
<rect width="60" height="60" fill="white" transform="translate(300 114.992)"/>
</clipPath>
<clipPath id="clip3_236_1639">
<rect width="60" height="60" fill="white" transform="translate(408 114.992)"/>
</clipPath>
<clipPath id="clip4_236_1639">
<rect width="60" height="60" fill="white" transform="translate(516 114.992)"/>
</clipPath>
<clipPath id="clip5_236_1639">
<rect width="60" height="60" fill="white" transform="translate(732 114.992)"/>
</clipPath>
</defs>
</svg>
