<svg width="496" height="468" viewBox="0 0 496 468" fill="none" xmlns="http://www.w3.org/2000/svg">
<path d="M36.3018 8.78223C30.0811 8.78223 25.8154 13.0859 25.8154 19.3701C25.8154 25.8574 29.9668 29.9707 36.5176 29.9707C38.1172 29.9707 39.6533 29.7422 40.7959 29.3486V27.749C39.9961 28.1172 38.2822 28.3584 36.543 28.3584C31.1094 28.3584 27.6055 24.8672 27.6055 19.4463C27.6055 14.165 31.1729 10.3818 36.1367 10.3818C41.2148 10.3818 44.6934 13.5176 44.6934 18.1006C44.6934 21.2236 43.665 23.2422 42.0654 23.2422C41.1514 23.2422 40.6309 22.7217 40.6309 21.833V14.3809H38.7139V15.9297H38.5107C38.0156 14.8252 36.873 14.1396 35.54 14.1396C32.9375 14.1396 31.1221 16.2979 31.1221 19.3828C31.1221 22.6074 32.8994 24.7783 35.54 24.7783C37.0254 24.7783 38.168 24.0547 38.7139 22.7598H38.917C39.0693 24.0039 40.2246 24.8926 41.71 24.8926C44.6299 24.8926 46.4834 22.2646 46.4834 18.126C46.4834 12.6162 42.3066 8.78223 36.3018 8.78223ZM35.8574 15.8916C37.584 15.8916 38.6885 17.2627 38.6885 19.4336C38.6885 21.6045 37.5713 22.9883 35.832 22.9883C34.1689 22.9883 33.1533 21.6426 33.1533 19.4336C33.1533 17.2119 34.1562 15.8916 35.8574 15.8916Z" fill="#0065FF"/>
<line x1="55" y1="2" x2="55" y2="34" stroke="black" stroke-width="2"/>
<g filter="url(#filter0_dd_12_1896)">
<g clip-path="url(#clip0_12_1896)">
<rect width="448" height="72" transform="translate(24 68)" fill="white"/>
<g clip-path="url(#clip1_12_1896)">
<rect width="48" height="48" transform="translate(40 80)" fill="white" fill-opacity="0.01"/>
<path d="M64 128C77.2548 128 88 117.255 88 104C88 90.7452 77.2548 80 64 80C50.7452 80 40 90.7452 40 104C40 117.255 50.7452 128 64 128Z" fill="#57D9A3"/>
<path d="M80.7998 98.7313C80.7998 99.2375 80.0311 99.7063 79.9936 100.213C79.9561 100.719 80.6123 101.3 80.5186 101.788C80.4248 102.275 79.5998 102.613 79.4498 103.1C79.2998 103.588 79.8623 104.281 79.6748 104.75C79.4873 105.219 78.6248 105.388 78.3998 105.819C78.1748 106.25 78.5686 107.075 78.3061 107.506C78.0436 107.938 77.1436 107.919 76.8436 108.313C76.5436 108.706 76.7873 109.569 76.4498 109.944C76.1123 110.319 75.2498 110.15 74.8748 110.488C74.4998 110.825 74.5936 111.706 74.1811 112.006C73.7686 112.306 72.9623 111.988 72.5311 112.269C72.0998 112.55 72.0248 113.413 71.5748 113.638C71.1248 113.863 70.3748 113.394 69.9061 113.563C69.4373 113.731 69.1936 114.613 68.7061 114.744C68.2186 114.875 67.5811 114.275 67.0748 114.369C66.5686 114.463 66.1936 115.25 65.6873 115.306C65.1811 115.363 64.6748 114.631 64.1686 114.631C63.6623 114.631 63.1186 115.344 62.6311 115.306C62.1436 115.269 61.7311 114.463 61.2436 114.369C60.7561 114.275 60.0811 114.875 59.6123 114.744C59.1436 114.613 58.8811 113.75 58.4123 113.563C57.9436 113.375 57.1936 113.863 56.7436 113.638C56.2936 113.413 56.2186 112.531 55.7873 112.269C55.3561 112.006 54.5311 112.325 54.1373 112.006C53.7436 111.688 53.8186 110.825 53.4436 110.488C53.0686 110.15 52.2061 110.319 51.8686 109.944C51.5311 109.569 51.7748 108.725 51.4748 108.313C51.1748 107.9 50.2748 107.919 50.0123 107.506C49.7498 107.094 50.1436 106.269 49.9186 105.819C49.6936 105.369 48.8311 105.219 48.6436 104.75C48.4561 104.281 48.9998 103.569 48.8686 103.1C48.7373 102.631 47.8936 102.294 47.7998 101.788C47.7061 101.281 48.3623 100.7 48.3248 100.213C48.2873 99.725 47.5186 99.2375 47.5186 98.7313C47.5186 98.225 48.2873 97.7563 48.3248 97.2688C48.3623 96.7813 47.7061 96.1625 47.7998 95.675C47.8936 95.1875 48.7186 94.8688 48.8686 94.3813C49.0186 93.8938 48.4561 93.2 48.6436 92.7313C48.8311 92.2625 49.6936 92.0938 49.9186 91.6438C50.1436 91.1938 49.7498 90.4063 50.0123 89.975C50.2748 89.5438 51.1748 89.5625 51.4748 89.15C51.7748 88.7375 51.5311 87.8938 51.8686 87.5375C52.2061 87.1813 53.0686 87.3313 53.4436 86.9938C53.8186 86.6563 53.7248 85.7563 54.1373 85.4563C54.5498 85.1563 55.3561 85.475 55.7873 85.2125C56.2186 84.95 56.2936 84.0688 56.7436 83.8438C57.1936 83.6188 57.9436 84.0875 58.4123 83.9C58.8811 83.7125 59.1248 82.8688 59.6123 82.7375C60.0998 82.6063 60.7373 83.1875 61.2436 83.1125C61.7498 83.0375 62.1248 82.2125 62.6311 82.175C63.1373 82.1375 63.6623 82.8313 64.1686 82.8313C64.6748 82.8313 65.1998 82.1188 65.6873 82.175C66.1748 82.2313 66.5873 83.0188 67.0748 83.1125C67.5623 83.2063 68.2373 82.5875 68.7061 82.7375C69.1748 82.8875 69.4373 83.7313 69.9061 83.9C70.3748 84.0688 71.1248 83.6188 71.5748 83.8438C72.0248 84.0688 72.0998 84.95 72.5311 85.2125C72.9623 85.475 73.7873 85.1563 74.1811 85.4563C74.5748 85.7563 74.4998 86.6563 74.8748 86.9938C75.2498 87.3313 76.1123 87.1625 76.4498 87.5375C76.7873 87.9125 76.5436 88.7563 76.8436 89.15C77.1436 89.5438 78.0436 89.5438 78.3061 89.975C78.5686 90.4063 78.1748 91.1938 78.3998 91.6438C78.6248 92.0938 79.4873 92.2625 79.6748 92.7313C79.8623 93.2 79.3186 93.8938 79.4498 94.3813C79.5811 94.8688 80.4248 95.1875 80.5186 95.675C80.6123 96.1625 79.9561 96.7625 79.9936 97.2688C80.0311 97.775 80.7998 98.225 80.7998 98.7313Z" fill="#72594B"/>
<path d="M72.1373 118.7L64.8061 118.325L57.4936 118.7C57.3539 118.712 57.219 118.757 57.0998 118.831L50.4623 123.219C50.317 123.314 50.1791 123.421 50.0498 123.537C54.2582 126.541 59.324 128.105 64.4931 127.997C69.6622 127.889 74.6581 126.114 78.7373 122.937L72.5311 118.831C72.4094 118.763 72.2758 118.718 72.1373 118.7Z" fill="#00875A"/>
<path d="M56.5 115.681L73.2812 115.944L72.9625 119.169L56.7625 119.075L56.5 115.681Z" fill="#00875A"/>
<path d="M69.9434 120.931L64.8996 126.444L59.3871 120.819C58.9715 120.395 58.7062 119.846 58.6317 119.257C58.5572 118.668 58.6776 118.07 58.9746 117.556C59.2324 117.121 59.4161 116.646 59.5184 116.15C60.0434 113.562 58.3371 111.612 58.1309 111.406L70.7684 110.919C70.5246 111.294 69.1934 113.412 69.8684 116.019C69.9865 116.444 70.1565 116.854 70.3746 117.237C70.6956 117.822 70.8265 118.491 70.7492 119.153C70.6719 119.815 70.3902 120.437 69.9434 120.931V120.931Z" fill="url(#paint0_linear_12_1896)"/>
<path d="M54.6813 106.306C56.1103 106.306 57.2687 105.148 57.2687 103.719C57.2687 102.29 56.1103 101.131 54.6813 101.131C53.2522 101.131 52.0938 102.29 52.0938 103.719C52.0938 105.148 53.2522 106.306 54.6813 106.306Z" fill="#4A3222"/>
<path d="M73.8063 106.306C75.2353 106.306 76.3938 105.148 76.3938 103.719C76.3938 102.29 75.2353 101.131 73.8063 101.131C72.3772 101.131 71.2188 102.29 71.2188 103.719C71.2188 105.148 72.3772 106.306 73.8063 106.306Z" fill="#4A3222"/>
<path d="M74.7249 102.744C74.4999 108.294 68.7436 114.669 64.2811 114.669C59.8186 114.669 54.0624 108.294 53.8374 102.744C53.5936 96.6126 58.1874 89.7126 64.2811 89.7126C70.3749 89.7126 74.9686 96.6126 74.7249 102.744Z" fill="#543E36"/>
<path d="M76.0373 92.15C75.8498 91.7 76.2811 90.875 75.9811 90.4062C75.6811 89.9375 74.7811 90.0125 74.4061 89.6C74.0311 89.1875 74.2373 88.325 73.8248 87.95C73.4123 87.575 72.5498 87.875 72.1186 87.5562C71.6873 87.2375 71.6498 86.3375 71.1811 86.0562C70.7123 85.775 69.9061 86.225 69.4373 86C68.9686 85.775 68.7248 84.8937 68.2373 84.725C67.7498 84.5562 66.9998 85.1375 66.5123 85.0437C66.0248 84.95 65.5373 84.1062 65.0311 84.0875C64.5248 84.0687 63.9811 84.8375 63.4936 84.9125C63.0061 84.9875 62.1811 84.4812 61.7498 84.725C61.3186 84.9687 61.3936 85.8687 61.1311 86.3187C60.8686 86.7687 60.5873 86.8437 60.3248 87.1062C59.9498 86.9562 59.5373 86.7125 59.1811 86.825C58.8248 86.9375 58.5436 87.8375 58.0561 88.0625C57.5686 88.2875 56.8373 87.8187 56.3873 88.0812C55.9373 88.3437 55.9561 89.225 55.5248 89.5062C55.0936 89.7875 54.2686 89.4875 53.8748 89.7875C53.4811 90.0875 53.5748 91.0062 53.2186 91.3437C52.8623 91.6812 51.9623 91.5125 51.6436 91.85C51.3248 92.1875 51.5311 93.1062 51.2311 93.4812C50.9311 93.8562 50.0123 93.8937 49.7686 94.2875C49.5248 94.6812 49.9373 95.525 49.7686 95.9562C49.5998 96.3875 48.7373 96.8187 48.7186 97.25C48.6998 97.6812 49.4873 98.075 49.7686 98.45C50.0498 98.825 50.1436 99.65 50.6873 99.7437C51.2311 99.8375 51.6436 99.0875 52.2061 99.0125C52.7686 98.9375 53.3123 99.5562 53.8186 99.3875C54.3248 99.2187 54.4561 98.375 54.9436 98.15C55.4311 97.925 56.1623 98.3937 56.6123 98.1312C57.0623 97.8687 57.0623 96.9875 57.4748 96.7062C57.8873 96.425 58.7311 96.725 59.1248 96.425C59.5186 96.125 59.4248 95.2062 59.7811 94.8687C60.1373 94.5312 61.0373 94.7 61.3748 94.3625C61.7123 94.025 61.4686 93.1062 61.7686 92.7312C62.0686 92.3562 62.5561 92.3562 62.9311 92.1687C63.0061 92.5625 63.0248 93.0312 63.3061 93.275C63.5873 93.5187 64.5623 93.35 65.0123 93.6687C65.4623 93.9875 65.4623 94.8875 65.9311 95.15C66.3998 95.4125 67.2248 95 67.6936 95.225C68.1623 95.45 68.4061 96.3312 68.8936 96.5C69.3811 96.6687 70.1123 96.0875 70.6186 96.1812C71.1248 96.275 71.5936 97.1 72.0998 97.1375C72.6061 97.175 73.1498 96.3875 73.6373 96.3125C74.1248 96.2375 74.9498 96.7437 75.3811 96.5C75.8123 96.2562 75.7373 95.3562 75.9998 94.9062C76.2623 94.4562 77.0686 94.1187 77.0686 93.5562C77.0686 92.9937 76.2248 92.6937 76.0373 92.15Z" fill="#72594B"/>
</g>
<rect x="120" y="94" width="172" height="20" rx="10" fill="#EBECF0"/>
<rect x="308" y="94" width="102" height="20" rx="10" fill="#EBECF0"/>
<rect width="448" height="72" transform="translate(24 140)" fill="white"/>
<g clip-path="url(#clip2_12_1896)">
<rect width="48" height="48" transform="translate(40 152)" fill="white" fill-opacity="0.01"/>
<path d="M64 200C77.2548 200 88 189.255 88 176C88 162.745 77.2548 152 64 152C50.7452 152 40 162.745 40 176C40 189.255 50.7452 200 64 200Z" fill="#6554C0"/>
<path d="M71.0686 188.263L64.6748 187.925L58.2811 188.263C56.7116 188.351 55.1954 188.863 53.8936 189.744L47.8936 193.794C52.4052 197.878 58.2998 200.096 64.3846 199.998C70.4695 199.901 76.2901 197.495 80.6686 193.269L75.4748 189.744C74.1647 188.865 72.6432 188.354 71.0686 188.263V188.263Z" fill="#998DD9"/>
<path d="M76.4686 192.012C75.6061 188.056 75.8124 185.019 76.1686 182.975C76.5999 180.462 77.7436 176.656 76.6749 174.838C76.1708 174.012 75.8154 173.105 75.6249 172.156C75.5712 171.84 75.5337 171.52 75.5124 171.2L52.7124 170.094C52.1008 171.051 51.6687 172.112 51.4374 173.225C51.1391 174.655 51.1519 176.132 51.4749 177.556C52.6749 183.35 49.4124 187.756 51.5686 193.794C52.0635 195.202 52.7855 196.519 53.7061 197.694L54.0249 197.844C57.4354 199.396 61.162 200.128 64.9063 199.982C68.6507 199.835 72.3087 198.814 75.5874 197C76.271 195.43 76.5729 193.721 76.4686 192.012V192.012Z" fill="#403294"/>
<path d="M72.1937 192.331C71.9875 192.613 68.95 196.4 63.9062 196.081C59.725 195.819 57.325 192.913 56.9688 192.463C57.9614 191.676 58.6505 190.569 58.9188 189.331C59.4813 186.65 57.625 184.625 57.4 184.4L71.1812 183.894C70.9187 184.269 69.4563 186.481 70.2063 189.2C70.5406 190.419 71.233 191.51 72.1937 192.331V192.331Z" fill="url(#paint1_linear_12_1896)"/>
<path d="M52.7124 170.956L52.9374 173.619C52.5249 174.894 49.6749 184.138 55.0374 191.263C55.8437 192.35 59.7812 197.563 65.1999 197.075C70.0187 196.644 72.8874 192.031 73.3374 191.281C74.3312 189.631 74.7624 187.775 75.6437 184.081C76.1499 181.906 76.4687 180.631 76.5624 178.906C76.7185 176.153 76.3363 173.395 75.4374 170.788L52.7124 170.956Z" fill="url(#paint2_linear_12_1896)"/>
<path d="M54.9998 169.681C55.056 170.356 55.1123 171.05 55.1873 171.744C54.8674 174.32 54.9242 176.928 55.356 179.488C55.731 181.719 57.2873 184.1 58.4123 185.863C58.7685 186.406 60.3435 190.1 64.6748 189.819C68.256 189.575 69.5873 186.988 70.206 186.031C71.5377 184.181 72.4116 182.041 72.756 179.788C73.286 176.391 73.2353 172.929 72.606 169.55L54.9998 169.681Z" fill="#B08874"/>
<path d="M55.431 169.85C57.1372 167.863 59.5935 167.075 60.2872 166.85C60.606 166.756 66.006 165.106 69.6247 167.881C71.1622 169.063 71.331 170.263 74.2935 172.794C75.0435 173.431 75.7185 173.938 76.1685 174.256C76.6701 172.748 76.824 171.145 76.6185 169.569C75.906 164.45 71.181 160.494 66.381 159.463C63.8931 158.929 61.3029 159.144 58.9372 160.081C54.0997 162.106 52.3747 166.55 52.131 167.225C50.481 171.725 52.0372 175.606 52.4122 176.45C52.549 175.71 52.7243 174.978 52.9372 174.256C53.256 173.15 53.4622 172.494 53.8747 171.763C54.006 171.538 54.531 170.9 55.431 169.85Z" fill="#403294"/>
<path d="M74.9683 175.213C74.9496 175.363 74.9121 175.494 74.8933 175.644C74.4058 178.531 71.0683 187.456 63.8683 187.456C58.2808 187.456 53.5746 179.431 53.1808 175.213C53.0121 173.6 52.6933 170.263 54.7558 167.056C56.5933 164.188 60.2121 161.581 64.5058 161.881C68.7996 162.181 71.7246 165.594 72.3996 166.456C74.2746 168.856 75.3433 172.156 74.9683 175.213Z" fill="#E4B69D"/>
<path d="M60.6437 167.619C64.6374 166.456 68.0499 168.012 69.0999 168.537C70.501 169.285 71.7632 170.268 72.8312 171.444C73.6721 172.318 74.4083 173.287 75.0249 174.331C75.4801 172.961 75.621 171.507 75.4374 170.075C74.7999 165.425 70.5249 161.844 66.1562 160.906C63.9049 160.421 61.5598 160.624 59.4249 161.487C58.8249 161.731 54.8499 163.456 53.2562 167.956C52.5513 169.983 52.4407 172.169 52.9374 174.256C53.5216 173.16 54.2465 172.145 55.0937 171.237C55.9937 170.281 57.7562 168.444 60.6437 167.619Z" fill="#5243AA"/>
</g>
<rect x="120" y="166" width="120" height="20" rx="10" fill="#EBECF0"/>
<rect x="256" y="166" width="116" height="20" rx="10" fill="#EBECF0"/>
<rect width="448" height="72" transform="translate(24 212)" fill="white"/>
<g clip-path="url(#clip3_12_1896)">
<rect width="48" height="48" transform="translate(40 224)" fill="white" fill-opacity="0.01"/>
<path d="M64 272C77.2548 272 88 261.255 88 248C88 234.745 77.2548 224 64 224C50.7452 224 40 234.745 40 248C40 261.255 50.7452 272 64 272Z" fill="#FF5630"/>
<path d="M55.0374 233.938C54.0436 234.256 52.8811 234.819 52.4874 235.888C52.0936 236.956 53.3686 238.269 52.7311 239.581C52.3374 240.406 51.6624 240.331 51.1186 241.475C50.8563 242.012 50.7216 242.602 50.7249 243.2C50.6686 244.775 51.5124 245.375 51.8499 246.556C52.5061 248.919 50.0499 250.213 50.4061 252.35C50.5749 253.381 51.3811 254.675 54.1561 255.95C53.8918 256.805 53.8918 257.72 54.1561 258.575C54.5066 259.52 55.134 260.337 55.9561 260.919C58.0186 262.306 59.5936 260.656 64.0561 260.881C66.9811 261.031 67.7686 261.819 69.9249 261.2C70.7499 260.975 72.3061 260.488 73.0561 259.025C73.4358 258.212 73.541 257.297 73.3561 256.419C73.8061 256.419 75.1936 256.381 76.2811 255.369C77.3686 254.356 77.8374 252.313 77.4436 250.756C77.0499 249.2 75.9999 248.206 76.2811 246.556C76.4686 245.45 76.9749 244.625 76.8249 243.031C76.7754 242.387 76.5901 241.761 76.2811 241.194C75.7561 240.275 75.2874 240.35 74.9874 239.75C74.3874 238.475 76.1311 237.219 75.6436 235.888C75.1561 234.556 73.7124 234.669 73.0936 233.938C70.8249 233.638 70.9186 232.231 68.6311 232.231C66.3436 232.231 66.3436 233.956 64.0561 233.956C61.7686 233.956 61.6936 232.063 59.4249 232.231C57.1561 232.4 57.3061 233.638 55.0374 233.938Z" fill="url(#paint3_linear_12_1896)"/>
<path d="M72.0063 262.85L64.6751 262.475L57.3626 262.85C57.2229 262.863 57.0881 262.908 56.9688 262.981L50.3313 267.369L50.0688 267.556C54.2489 270.529 59.2706 272.085 64.399 271.997C69.5273 271.91 74.4929 270.182 78.5688 267.069L72.4001 262.981C72.2785 262.913 72.1448 262.868 72.0063 262.85V262.85Z" fill="#FFA687"/>
<path d="M71.5564 263.169C71.3689 263.431 68.5752 267.069 63.9627 266.75C60.1189 266.506 57.9439 263.713 57.6064 263.281C58.5224 262.519 59.1508 261.468 59.3877 260.3C59.9127 257.713 58.2064 255.763 58.0002 255.538L70.6377 255.069C70.3939 255.444 69.0627 257.563 69.7377 260.169C70.0533 261.318 70.6831 262.357 71.5564 263.169V263.169Z" fill="url(#paint4_linear_12_1896)"/>
<path d="M54.4938 250.306C55.9228 250.306 57.0812 249.148 57.0812 247.719C57.0812 246.29 55.9228 245.131 54.4938 245.131C53.0647 245.131 51.9062 246.29 51.9062 247.719C51.9062 249.148 53.0647 250.306 54.4938 250.306Z" fill="url(#paint5_linear_12_1896)"/>
<path d="M73.6188 250.306C75.0478 250.306 76.2063 249.148 76.2063 247.719C76.2063 246.29 75.0478 245.131 73.6188 245.131C72.1897 245.131 71.0312 246.29 71.0312 247.719C71.0312 249.148 72.1897 250.306 73.6188 250.306Z" fill="url(#paint6_linear_12_1896)"/>
<path d="M55.1688 242.525C55.1688 243.725 55.1313 244.85 55.0938 245.937C55.0563 247.025 55.0188 246.856 54.9625 247.887C54.8125 250.794 54.9625 251.544 54.3438 252.237C53.725 252.931 53.3125 253.025 53.0688 252.856C52.825 252.687 53.2 251.994 53.3313 250.962C53.7063 248.431 52.8625 245.9 52.7875 245.675C52.7125 245.45 52.3938 244.662 52.4313 243.912C52.45 243.462 52.5063 242.469 53.2 242.094C53.8938 241.719 54.55 241.981 55.1688 242.525Z" fill="#FFAB00"/>
<path d="M74.5374 246.744C74.3124 252.294 68.5561 258.669 64.0936 258.669C59.6311 258.669 53.8749 252.294 53.6499 246.744C53.4061 240.612 57.9999 233.712 64.0936 233.712C70.1874 233.712 74.7811 240.612 74.5374 246.744Z" fill="#FFE2D9"/>
<path d="M52.9748 249.462C53.1405 249.462 53.2748 249.328 53.2748 249.162C53.2748 248.997 53.1405 248.862 52.9748 248.862C52.8091 248.862 52.6748 248.997 52.6748 249.162C52.6748 249.328 52.8091 249.462 52.9748 249.462Z" fill="#F15538"/>
<path d="M75.2688 249.462C75.4344 249.462 75.5687 249.328 75.5687 249.162C75.5687 248.997 75.4344 248.862 75.2688 248.862C75.1031 248.862 74.9688 248.997 74.9688 249.162C74.9688 249.328 75.1031 249.462 75.2688 249.462Z" fill="#F15538"/>
<path d="M52.0937 235.925C53.0687 232.775 55.7687 230.712 57.9999 230.206C58.7347 230.015 59.5018 229.983 60.2499 230.112C61.3539 230.344 62.3611 230.907 63.1374 231.725C61.2062 235.062 59.2749 236.975 57.8499 238.119C57.0812 238.719 55.4312 239.919 54.4187 242.131C54.1187 242.777 53.8984 243.457 53.7624 244.156C53.5374 243.875 50.7249 240.275 52.0937 235.925Z" fill="#FFAB00"/>
<path d="M65.9502 229.025C67.3266 229.025 68.6896 229.296 69.9612 229.823C71.2328 230.35 72.3883 231.122 73.3616 232.095C74.3348 233.068 75.1069 234.224 75.6336 235.495C76.1603 236.767 76.4314 238.13 76.4314 239.506C76.419 240.411 76.2994 241.311 76.0752 242.187C75.7555 243.317 75.2207 244.374 74.5002 245.3C71.6402 244.243 68.915 242.852 66.3814 241.156C63.0689 238.953 60.1101 236.26 57.6064 233.169C58.3002 232.287 60.0064 230.356 62.8752 229.475C63.872 229.172 64.9085 229.021 65.9502 229.025V229.025Z" fill="#FFAB00"/>
<path d="M58.6188 249.875C57.7547 249.875 56.91 249.619 56.1916 249.139C55.4732 248.659 54.9132 247.976 54.5826 247.178C54.2519 246.38 54.1654 245.501 54.3339 244.654C54.5025 243.806 54.9186 243.028 55.5296 242.417C56.1406 241.806 56.919 241.39 57.7665 241.221C58.6139 241.053 59.4923 241.139 60.2906 241.47C61.0889 241.801 61.7712 242.361 62.2512 243.079C62.7313 243.797 62.9875 244.642 62.9875 245.506C62.9826 246.663 62.5207 247.772 61.7025 248.59C60.8842 249.408 59.7759 249.87 58.6188 249.875V249.875ZM58.6188 241.7C57.8659 241.7 57.13 241.923 56.5041 242.341C55.8782 242.76 55.3903 243.354 55.1022 244.05C54.8141 244.745 54.7388 245.51 54.8856 246.249C55.0325 246.987 55.395 247.665 55.9273 248.198C56.4596 248.73 57.1379 249.092 57.8762 249.239C58.6145 249.386 59.3798 249.311 60.0753 249.023C60.7708 248.735 61.3653 248.247 61.7835 247.621C62.2018 246.995 62.425 246.259 62.425 245.506C62.425 244.497 62.024 243.529 61.3102 242.815C60.5964 242.101 59.6282 241.7 58.6188 241.7V241.7Z" fill="#FF7143"/>
<path d="M68.7814 249.875C67.9173 249.875 67.0726 249.619 66.3542 249.139C65.6358 248.659 65.0758 247.976 64.7452 247.178C64.4145 246.38 64.328 245.501 64.4965 244.654C64.6651 243.806 65.0812 243.028 65.6922 242.417C66.3032 241.806 67.0816 241.39 67.929 241.221C68.7765 241.053 69.6549 241.139 70.4532 241.47C71.2515 241.801 71.9338 242.361 72.4138 243.079C72.8939 243.797 73.1501 244.642 73.1501 245.506C73.1501 246.08 73.0371 246.648 72.8175 247.178C72.598 247.708 72.2762 248.19 71.8705 248.595C71.4648 249.001 70.9832 249.323 70.4532 249.542C69.9232 249.762 69.3551 249.875 68.7814 249.875ZM68.7814 241.7C68.0285 241.7 67.2926 241.923 66.6667 242.341C66.0408 242.76 65.5529 243.354 65.2648 244.05C64.9767 244.745 64.9014 245.51 65.0482 246.249C65.1951 246.987 65.5576 247.665 66.0899 248.198C66.6222 248.73 67.3004 249.092 68.0388 249.239C68.7771 249.386 69.5424 249.311 70.2379 249.023C70.9334 248.735 71.5279 248.247 71.9461 247.621C72.3644 246.995 72.5876 246.259 72.5876 245.506C72.5876 244.497 72.1866 243.529 71.4728 242.815C70.759 242.101 69.7908 241.7 68.7814 241.7V241.7Z" fill="#FF7143"/>
<path d="M54.5313 245.956H52.7876C52.713 245.956 52.6415 245.927 52.5887 245.874C52.536 245.821 52.5063 245.75 52.5063 245.675C52.5063 245.6 52.536 245.529 52.5887 245.476C52.6415 245.423 52.713 245.394 52.7876 245.394H54.5313C54.6059 245.394 54.6775 245.423 54.7302 245.476C54.783 245.529 54.8126 245.6 54.8126 245.675C54.8126 245.75 54.783 245.821 54.7302 245.874C54.6775 245.927 54.6059 245.956 54.5313 245.956Z" fill="#FF7143"/>
<path d="M74.9312 245.788H72.8687C72.7941 245.788 72.7225 245.758 72.6698 245.705C72.617 245.652 72.5874 245.581 72.5874 245.506C72.5874 245.432 72.617 245.36 72.6698 245.307C72.7225 245.255 72.7941 245.225 72.8687 245.225H74.9312C75.0057 245.225 75.0773 245.255 75.13 245.307C75.1828 245.36 75.2124 245.432 75.2124 245.506C75.2124 245.581 75.1828 245.652 75.13 245.705C75.0773 245.758 75.0057 245.788 74.9312 245.788Z" fill="#FF7143"/>
<path d="M64.6748 245.225H62.7061V245.788H64.6748V245.225Z" fill="#FF7143"/>
</g>
<rect x="120" y="238" width="176" height="20" rx="10" fill="#EBECF0"/>
<rect x="312" y="238" width="110" height="20" rx="10" fill="#EBECF0"/>
<rect width="448" height="72" transform="translate(24 284)" fill="white"/>
<g clip-path="url(#clip4_12_1896)">
<rect width="48" height="48" transform="translate(40 296)" fill="white" fill-opacity="0.01"/>
<path d="M64 344C77.2548 344 88 333.255 88 320C88 306.745 77.2548 296 64 296C50.7452 296 40 306.745 40 320C40 333.255 50.7452 344 64 344Z" fill="#6553C0"/>
<path d="M73.5254 338.319C67.1176 336.143 60.1707 336.143 53.7629 338.319C53.7629 336.969 53.7629 335.6 53.7441 334.25C56.8656 332.852 60.2487 332.134 63.6689 332.144C67.0892 332.153 70.4682 332.891 73.5816 334.306L73.5254 338.319Z" fill="#403294"/>
<path d="M60.4189 339.481V343.738C61.605 343.909 62.8018 343.997 64.0002 344C64.9147 343.997 65.8284 343.947 66.7377 343.85L66.6627 339.481H60.4189Z" fill="#6554C0"/>
<path d="M53.5424 323.937C54.9881 323.571 55.7913 321.818 55.3366 320.021C54.8819 318.224 53.3414 317.064 51.8958 317.429C50.4502 317.795 49.6469 319.549 50.1016 321.345C50.5563 323.142 52.0968 324.303 53.5424 323.937Z" fill="#DFB28B"/>
<path d="M77.0173 321.377C77.472 319.58 76.6687 317.826 75.2231 317.461C73.7775 317.095 72.237 318.255 71.7823 320.052C71.3276 321.849 72.1309 323.602 73.5765 323.968C75.0221 324.334 76.5626 323.174 77.0173 321.377Z" fill="#DFB28B"/>
<path d="M72.7374 336.594C72.5312 336.875 68.9874 341.45 63.1937 341C58.4874 340.644 55.8249 337.269 55.4312 336.744C56.3777 335.771 57.0559 334.569 57.3999 333.256C57.8239 331.524 57.6725 329.701 56.9687 328.063L70.7874 327.725C70.5812 328.156 69.4187 330.669 70.4312 333.463C70.8884 334.703 71.6881 335.789 72.7374 336.594V336.594Z" fill="url(#paint7_linear_12_1896)"/>
<path d="M63.6437 303.106C69.0437 303.143 72.3437 306.8 72.8499 307.381C76.2812 311.318 75.9249 316.025 75.8499 317C75.6437 319.437 75.2499 321.368 73.3749 325.287C70.6937 331.587 65.8374 332.843 63.6437 332.937C61.4499 333.031 55.7687 329.975 53.9124 325.287C52.0374 321.368 51.6437 319.437 51.4562 317C51.3812 316.025 51.0062 311.318 54.4374 307.381C54.9437 306.8 58.2437 303.143 63.6437 303.106Z" fill="#ECC19C"/>
<path d="M70.8622 305.562L70.6372 307.062C71.5529 308.552 72.3192 310.128 72.9247 311.769C73.656 313.794 74.031 314.788 74.1997 316.044C74.4435 317.638 74.331 318.744 75.0435 319.156C75.1968 319.251 75.3702 319.309 75.5497 319.325C75.6997 318.538 75.7747 317.806 75.8497 317C75.9247 316.194 76.281 311.319 72.8497 307.381C72.2553 306.705 71.5888 306.095 70.8622 305.562V305.562Z" fill="#172B4D"/>
<path d="M54.4374 307.381C51.0062 311.319 51.3812 316.025 51.4562 317C51.5088 317.78 51.6089 318.557 51.7562 319.325C51.9292 319.306 52.0958 319.248 52.2437 319.156C52.9562 318.744 52.8437 317.638 53.0874 316.044C53.2749 314.788 53.6312 313.794 54.3624 311.769C54.968 310.125 55.7408 308.548 56.6687 307.062L56.4249 305.562C55.7029 306.1 55.037 306.71 54.4374 307.381V307.381Z" fill="#172B4D"/>
<path d="M73.4125 308.412C73.75 306.125 69.9813 303.5 66.8688 302.694C64.6938 302.131 62.875 302.469 61.825 302.656C60.3063 302.956 56.6313 303.669 54.775 306.444C54.0625 307.494 53.6875 308.75 52.3938 309.162C51.5875 309.425 50.7813 309.144 50.5188 309.594C50.2563 310.044 50.6688 310.606 50.8375 310.85C51.3093 311.55 52.0026 312.072 52.8063 312.331C53.6688 312.669 54.925 312.931 56.7625 312.687C59.425 312.331 59.9125 311.337 62.0688 311.356C63.325 311.375 63.6813 311.712 64.7875 311.937C68.2563 312.594 73.0563 310.794 73.4125 308.412Z" fill="#172B4D"/>
<path d="M53.0879 336.519L52.2629 336.894L48.9629 338.712C52.2175 341.321 56.0941 343.04 60.2129 343.7L52.6941 337.794L53.0879 336.519Z" fill="#403294"/>
<path d="M74.2751 336.5L74.6688 337.794L67.7876 343.7C71.8152 343.066 75.612 341.407 78.8126 338.881L75.3438 336.988C75.0021 336.795 74.6446 336.632 74.2751 336.5V336.5Z" fill="#403294"/>
<path d="M56.8754 335.919L53.7441 334.25L53.0879 336.519C53.8409 336.214 54.6392 336.037 55.4504 335.994L56.8754 335.919Z" fill="#403294"/>
<path d="M60.4001 339.481H60.4188V337.831L56.8751 335.919L55.4501 335.994C54.639 336.037 53.8406 336.214 53.0876 336.519L52.6938 337.794L60.2126 343.7L60.4001 343.738V339.481Z" fill="#403294"/>
<path d="M60.4004 339.481V343.738L60.4191 339.481H60.4004Z" fill="#403294"/>
<path d="M74.2752 336.5L73.6189 334.25L70.1689 335.9L71.8564 335.994C72.6848 336.03 73.5018 336.201 74.2752 336.5V336.5Z" fill="#403294"/>
<path d="M74.2753 336.5C73.5019 336.201 72.6849 336.03 71.8565 335.994L70.169 335.9L66.644 337.587V339.481H66.7378V343.85L67.769 343.7L74.6503 337.794L74.2753 336.5Z" fill="#403294"/>
<path d="M66.7563 339.481H66.6626L66.7376 343.85H66.7563V339.481Z" fill="#403294"/>
</g>
<rect x="120" y="310" width="120" height="20" rx="10" fill="#EBECF0"/>
<rect x="256" y="310" width="126" height="20" rx="10" fill="#EBECF0"/>
<rect width="448" height="72" transform="translate(24 356)" fill="white"/>
<g clip-path="url(#clip5_12_1896)">
<rect width="48" height="48" transform="translate(40 368)" fill="white" fill-opacity="0.01"/>
<path d="M64 416C77.2548 416 88 405.255 88 392C88 378.745 77.2548 368 64 368C50.7452 368 40 378.745 40 392C40 405.255 50.7452 416 64 416Z" fill="#FFAB00"/>
<path d="M78.8688 410.825L73.4688 407.806C73.3197 407.72 73.1531 407.669 72.9813 407.656L64.0001 407.188L55.0188 407.656C54.8471 407.669 54.6805 407.72 54.5313 407.806L49.1313 410.825C53.3624 414.177 58.6021 416.001 64.0001 416.001C69.3981 416.001 74.6378 414.177 78.8688 410.825V410.825Z" fill="#FFC400"/>
<path d="M72.4375 408.594C72.25 408.875 68.8 413.45 63.1375 413C58.5438 412.644 55.9562 409.269 55.5625 408.744C56.7032 407.887 57.5116 406.661 57.85 405.275C58.525 402.35 56.6875 400.119 56.4625 399.856H70.825C70.7312 399.988 68.6125 402.913 69.9437 405.931C70.4609 407.068 71.337 408.004 72.4375 408.594V408.594Z" fill="url(#paint8_linear_12_1896)"/>
<path d="M51.4001 386.938C51.4188 386.431 51.8501 385.981 51.9251 385.494C52.0001 385.006 51.7376 384.444 51.8876 383.956C52.0376 383.469 52.5251 383.131 52.7126 382.681C52.9001 382.231 52.7688 381.613 53.0126 381.163C53.2563 380.713 53.8188 380.506 54.1001 380.094C54.3813 379.681 54.4001 379.063 54.7188 378.688C55.0376 378.313 55.6563 378.219 56.0313 377.881C56.4063 377.544 56.5376 376.944 56.9501 376.663C57.3626 376.381 57.9626 376.419 58.3938 376.175C58.8251 375.931 59.1063 375.388 59.5751 375.2C60.0438 375.013 60.6251 375.219 61.1126 375.088C61.6001 374.956 61.9938 374.506 62.5001 374.431C63.0063 374.356 63.4938 374.713 64.0001 374.713C64.5063 374.713 65.0313 374.375 65.5001 374.431C65.9688 374.488 66.4188 374.956 66.8876 375.088C67.3563 375.219 67.9751 375.013 68.4251 375.2C68.8751 375.388 69.1751 375.931 69.6063 376.175C70.0376 376.419 70.6563 376.363 71.0501 376.663C71.4438 376.963 71.6126 377.563 71.9688 377.881C72.3251 378.2 72.9438 378.313 73.2813 378.688C73.6188 379.063 73.6188 379.7 73.9001 380.094C74.1813 380.488 74.7438 380.731 74.9876 381.163C75.2313 381.594 75.1001 382.213 75.2876 382.681C75.4751 383.15 75.9813 383.488 76.1126 383.956C76.2438 384.425 76.0001 385.006 76.0751 385.494C76.1501 385.981 76.5813 386.431 76.6001 386.938C76.6188 387.444 76.2438 387.969 76.1876 388.494C76.1313 389.019 76.4501 389.6 76.3376 390.106C76.2251 390.613 75.7376 391.025 75.5688 391.531C75.4001 392.038 75.5501 392.638 75.3251 393.125C75.1001 393.613 74.5188 393.875 74.2376 394.325C73.9563 394.775 73.9751 395.413 73.6563 395.825C73.3376 396.238 72.7001 396.388 72.3251 396.744C71.9501 397.1 71.8188 397.756 71.3876 398.075C70.9563 398.394 70.3376 398.375 69.8876 398.656C69.4376 398.938 69.1376 399.5 68.6688 399.706C68.2001 399.913 67.5626 399.725 67.0563 399.875C66.5501 400.025 66.1188 400.475 65.5938 400.55C65.0688 400.625 64.5251 400.288 64.0001 400.288C63.4751 400.288 62.9126 400.625 62.4063 400.55C61.9001 400.475 61.4501 400.006 60.9438 399.875C60.4376 399.744 59.8188 399.913 59.3313 399.706C58.8438 399.5 58.5626 398.919 58.1126 398.656C57.6626 398.394 57.0063 398.394 56.5938 398.075C56.1813 397.756 56.0501 397.119 55.6751 396.744C55.3001 396.369 54.6813 396.238 54.3438 395.825C54.0063 395.413 54.0251 394.775 53.7626 394.325C53.5001 393.875 52.9001 393.594 52.6751 393.125C52.4501 392.656 52.6001 392.019 52.4313 391.513C52.2626 391.006 51.7751 390.613 51.6626 390.106C51.5501 389.6 51.8501 389.019 51.8126 388.494C51.7751 387.969 51.3813 387.463 51.4001 386.938Z" fill="#230F05"/>
<path d="M54.5487 395.301C55.8839 394.963 56.6265 393.347 56.2073 391.69C55.7882 390.034 54.366 388.965 53.0308 389.303C51.6957 389.641 50.9531 391.257 51.3722 392.914C51.7913 394.57 53.2135 395.639 54.5487 395.301Z" fill="url(#paint9_linear_12_1896)"/>
<path d="M76.7639 392.91C77.1831 391.253 76.4405 389.637 75.1053 389.299C73.7701 388.961 72.348 390.03 71.9288 391.686C71.5097 393.343 72.2523 394.959 73.5875 395.297C74.9227 395.635 76.3448 394.566 76.7639 392.91Z" fill="url(#paint10_linear_12_1896)"/>
<path d="M63.9811 376.644C69.1749 376.681 72.3436 380.187 72.8311 380.75C76.1124 384.537 75.7749 389.056 75.6999 390.012C75.5124 392.337 74.5749 394.194 72.7561 397.944C71.9331 399.669 71.0128 401.347 69.9999 402.969C69.7111 403.426 69.3026 403.796 68.8186 404.037C67.3165 404.802 65.6657 405.231 63.9811 405.294C62.2902 405.233 60.6329 404.804 59.1249 404.037C58.6499 403.79 58.2489 403.421 57.9624 402.969C56.9423 401.348 56.0158 399.67 55.1874 397.944C53.3874 394.194 52.4311 392.337 52.2624 390.012C52.1874 389.056 51.8311 384.537 55.1311 380.75C55.6186 380.187 58.7874 376.681 63.9811 376.644Z" fill="#9B7661"/>
<path d="M63.7185 382.981C64.4685 382.981 65.1997 383.263 65.8185 383.094C66.4372 382.925 67.056 382.306 67.6372 382.025C68.2185 381.744 69.1185 381.725 69.681 381.481C70.2435 381.238 71.1247 380.694 71.6872 381.106C72.2497 381.519 71.9122 381.969 71.9872 382.475C72.0622 382.981 72.456 383.263 72.531 383.769C72.606 384.275 72.2872 384.688 72.4372 385.175C72.5872 385.663 73.0747 385.831 73.3185 386.263C73.5622 386.694 73.4122 387.125 73.6372 387.406C73.8622 387.688 74.406 387.725 74.6685 387.988C74.931 388.25 75.0247 388.775 75.306 388.981C75.5872 389.188 76.056 389.075 76.356 389.244C76.5543 388.255 76.567 387.238 76.3935 386.244C76.2435 385.325 75.606 384.388 75.1747 383.3C74.7435 382.213 74.6497 381.256 73.9747 380.356C73.2997 379.456 72.381 379.063 71.4997 378.369C70.6185 377.675 70.131 376.981 69.3435 376.625C68.556 376.269 67.4497 376.306 66.606 376.156C65.7622 376.006 64.6935 375.519 63.8872 375.538C62.4435 375.575 61.4685 376.194 61.2247 376.269C60.981 376.344 59.8747 376.25 58.656 376.869C57.9997 377.225 57.456 377.994 56.6872 378.613C55.9185 379.231 55.1685 379.438 54.5872 380.169C54.006 380.9 53.9122 381.725 53.4997 382.569C53.2185 383.094 52.656 383.488 52.4685 384.013C52.281 384.538 52.506 385.25 52.4122 385.775C52.3185 386.3 51.8497 386.919 51.831 387.444C51.8122 387.969 52.0935 388.588 52.131 389.019C52.431 388.775 52.806 388.794 53.1247 388.475C53.4435 388.156 53.406 387.631 53.6872 387.275C53.9685 386.919 54.4935 386.806 54.6997 386.431C54.906 386.056 54.7185 385.531 54.8685 385.119C55.0185 384.706 55.4497 384.594 55.506 384.313C55.5622 384.031 55.2435 383.581 55.2622 383.3C55.281 383.019 55.6935 382.681 55.7497 382.4C55.806 382.119 55.6185 381.631 55.881 381.406C56.1435 381.181 57.0622 381.406 57.8497 381.706C58.6372 382.006 59.1622 381.856 59.856 382.138C60.5497 382.419 60.9622 382.981 61.6747 383.131C62.3872 383.281 63.006 382.981 63.7185 382.981Z" fill="#230F05"/>
<path d="M75.2688 387.388L74.5938 390.35C74.5157 390.7 74.5375 391.065 74.6569 391.403C74.7762 391.741 74.9883 392.039 75.2688 392.263V392.263C75.2688 392.263 75.9438 390.481 76.0938 389.638C76.2438 388.794 75.2688 387.388 75.2688 387.388Z" fill="#230F05"/>
<path d="M52.6187 387.388L53.2374 390.35C53.322 390.695 53.3089 391.057 53.1996 391.394C53.0903 391.732 52.8892 392.033 52.6187 392.263V392.263C52.6187 392.263 51.9812 390.481 51.8312 389.638C51.6812 388.794 52.6187 387.388 52.6187 387.388Z" fill="#230F05"/>
</g>
<rect x="120" y="382" width="114" height="20" rx="10" fill="#EBECF0"/>
<rect x="250" y="382" width="118" height="20" rx="10" fill="#EBECF0"/>
</g>
</g>
<defs>
<filter id="filter0_dd_12_1896" x="0" y="60" width="496" height="408" filterUnits="userSpaceOnUse" color-interpolation-filters="sRGB">
<feFlood flood-opacity="0" result="BackgroundImageFix"/>
<feColorMatrix in="SourceAlpha" type="matrix" values="0 0 0 0 0 0 0 0 0 0 0 0 0 0 0 0 0 0 127 0" result="hardAlpha"/>
<feOffset/>
<feGaussianBlur stdDeviation="1"/>
<feColorMatrix type="matrix" values="0 0 0 0 0.0352941 0 0 0 0 0.117647 0 0 0 0 0.258824 0 0 0 0.31 0"/>
<feBlend mode="normal" in2="BackgroundImageFix" result="effect1_dropShadow_12_1896"/>
<feColorMatrix in="SourceAlpha" type="matrix" values="0 0 0 0 0 0 0 0 0 0 0 0 0 0 0 0 0 0 127 0" result="hardAlpha"/>
<feOffset dy="16"/>
<feGaussianBlur stdDeviation="12"/>
<feColorMatrix type="matrix" values="0 0 0 0 0.0352941 0 0 0 0 0.117647 0 0 0 0 0.258824 0 0 0 0.15 0"/>
<feBlend mode="normal" in2="effect1_dropShadow_12_1896" result="effect2_dropShadow_12_1896"/>
<feBlend mode="normal" in="SourceGraphic" in2="effect2_dropShadow_12_1896" result="shape"/>
</filter>
<linearGradient id="paint0_linear_12_1896" x1="64.4552" y1="111.222" x2="64.4552" y2="126.361" gradientUnits="userSpaceOnUse">
<stop stop-color="#382926"/>
<stop offset="0.64" stop-color="#543E36"/>
</linearGradient>
<linearGradient id="paint1_linear_12_1896" x1="64.5812" y1="184.134" x2="64.5812" y2="196.042" gradientUnits="userSpaceOnUse">
<stop stop-color="#EBBEAE"/>
<stop offset="0.64" stop-color="#FFE2D9"/>
</linearGradient>
<linearGradient id="paint2_linear_12_1896" x1="64.2062" y1="197.113" x2="64.2062" y2="170.791" gradientUnits="userSpaceOnUse">
<stop stop-color="#8676D8"/>
<stop offset="0.15" stop-color="#6758BA"/>
<stop offset="0.29" stop-color="#5243A5"/>
<stop offset="0.43" stop-color="#443698"/>
<stop offset="0.55" stop-color="#403294"/>
</linearGradient>
<linearGradient id="paint3_linear_12_1896" x1="63.983" y1="261.474" x2="63.983" y2="232.226" gradientUnits="userSpaceOnUse">
<stop stop-color="#FF991F"/>
<stop offset="0.15" stop-color="#FFAB00"/>
</linearGradient>
<linearGradient id="paint4_linear_12_1896" x1="64.5852" y1="255.299" x2="64.5852" y2="266.718" gradientUnits="userSpaceOnUse">
<stop stop-color="#EBBEAE"/>
<stop offset="0.64" stop-color="#FFE2D9"/>
</linearGradient>
<linearGradient id="paint5_linear_12_1896" x1="51.9194" y1="247.72" x2="57.0831" y2="247.72" gradientUnits="userSpaceOnUse">
<stop stop-color="#FFE2D9"/>
<stop offset="1" stop-color="#EBBEAE"/>
</linearGradient>
<linearGradient id="paint6_linear_12_1896" x1="71.0312" y1="247.72" x2="76.195" y2="247.72" gradientUnits="userSpaceOnUse">
<stop stop-color="#EBBEAE"/>
<stop offset="1" stop-color="#FFE2D9"/>
</linearGradient>
<linearGradient id="paint7_linear_12_1896" x1="64.0787" y1="340.132" x2="64.0787" y2="321.929" gradientUnits="userSpaceOnUse">
<stop stop-color="#ECC19C"/>
<stop offset="1" stop-color="#CEA28B"/>
</linearGradient>
<linearGradient id="paint8_linear_12_1896" x1="64" y1="413.036" x2="64" y2="399.856" gradientUnits="userSpaceOnUse">
<stop stop-color="#9B7661"/>
<stop offset="0.43" stop-color="#997460"/>
<stop offset="0.64" stop-color="#916F5B"/>
<stop offset="0.79" stop-color="#856553"/>
<stop offset="0.92" stop-color="#735747"/>
<stop offset="1" stop-color="#624A3D"/>
</linearGradient>
<linearGradient id="paint9_linear_12_1896" x1="51.2559" y1="392.3" x2="56.3166" y2="392.3" gradientUnits="userSpaceOnUse">
<stop stop-color="#9B7661"/>
<stop offset="0.45" stop-color="#846452"/>
<stop offset="1" stop-color="#624A3D"/>
</linearGradient>
<linearGradient id="paint10_linear_12_1896" x1="71.8313" y1="392.286" x2="76.8919" y2="392.286" gradientUnits="userSpaceOnUse">
<stop stop-color="#624A3D"/>
<stop offset="0.55" stop-color="#846452"/>
<stop offset="1" stop-color="#9B7661"/>
</linearGradient>
<clipPath id="clip0_12_1896">
<rect x="24" y="68" width="448" height="360" rx="20" fill="white"/>
</clipPath>
<clipPath id="clip1_12_1896">
<rect width="48" height="48" fill="white" transform="translate(40 80)"/>
</clipPath>
<clipPath id="clip2_12_1896">
<rect width="48" height="48" fill="white" transform="translate(40 152)"/>
</clipPath>
<clipPath id="clip3_12_1896">
<rect width="48" height="48" fill="white" transform="translate(40 224)"/>
</clipPath>
<clipPath id="clip4_12_1896">
<rect width="48" height="48" fill="white" transform="translate(40 296)"/>
</clipPath>
<clipPath id="clip5_12_1896">
<rect width="48" height="48" fill="white" transform="translate(40 368)"/>
</clipPath>
</defs>
</svg>
