<svg width="1714" height="624" viewBox="0 0 1714 624" fill="none" xmlns="http://www.w3.org/2000/svg">
    <g filter="url(#filter0_dd_205_2693)">
        <path d="M450 330.992H126C119.373 330.992 114 336.365 114 342.992V382.992C114 389.619 119.373 394.992 126 394.992H450C456.627 394.992 462 389.619 462 382.992V342.992C462 336.365 456.627 330.992 450 330.992Z" fill="white"/>
        <path d="M152.666 356.326L146.666 355.658L139.333 356.326L138.666 362.992L139.333 369.658L145.999 370.492L152.666 369.658L153.333 362.826L152.666 356.326Z" fill="white"/>
        <path d="M142.068 366.668C141.569 366.332 141.224 365.84 141.036 365.19L142.193 364.714C142.298 365.114 142.481 365.424 142.743 365.644C143.003 365.864 143.319 365.972 143.689 365.972C144.068 365.972 144.393 365.858 144.664 365.628C144.936 365.398 145.073 365.104 145.073 364.748C145.073 364.386 144.929 364.088 144.643 363.858C144.356 363.628 143.996 363.514 143.566 363.514H142.898V362.368H143.498C143.868 362.368 144.179 362.268 144.433 362.068C144.686 361.868 144.813 361.596 144.813 361.248C144.813 360.938 144.699 360.69 144.473 360.506C144.246 360.32 143.959 360.228 143.611 360.228C143.271 360.228 143.001 360.318 142.801 360.498C142.601 360.68 142.456 360.904 142.364 361.168L141.219 360.69C141.371 360.26 141.649 359.88 142.058 359.552C142.466 359.224 142.988 359.058 143.621 359.058C144.089 359.058 144.511 359.148 144.884 359.33C145.258 359.512 145.551 359.764 145.763 360.084C145.974 360.406 146.079 360.766 146.079 361.166C146.079 361.574 145.981 361.918 145.784 362.202C145.588 362.486 145.346 362.702 145.059 362.854V362.922C145.438 363.08 145.746 363.322 145.989 363.648C146.231 363.972 146.353 364.36 146.353 364.814C146.353 365.268 146.238 365.672 146.008 366.028C145.778 366.382 145.459 366.662 145.056 366.866C144.651 367.068 144.196 367.172 143.691 367.172C143.106 367.174 142.566 367.006 142.068 366.668Z" fill="#1A73E8"/>
        <path d="M149.166 360.928L147.903 361.848L147.268 360.884L149.546 359.24H150.419V366.992H149.166V360.928Z" fill="#1A73E8"/>
        <path d="M152.666 375.658L158.666 369.658L155.666 368.326L152.666 369.658L151.333 372.658L152.666 375.658Z" fill="#EA4335"/>
        <path d="M138 372.658L139.333 375.658H152.667V369.658H139.333L138 372.658Z" fill="#34A853"/>
        <path d="M135.333 350.326C134.228 350.326 133.333 351.22 133.333 352.326V369.658L136.333 370.992L139.333 369.658V356.326H152.666L154 353.326L152.666 350.326H135.333Z" fill="#4285F4"/>
        <path d="M133.333 369.658V373.658C133.333 374.764 134.228 375.658 135.333 375.658H139.333V369.658H133.333Z" fill="#188038"/>
        <path d="M152.666 356.326V369.658H158.666V356.326L155.666 354.992L152.666 356.326Z" fill="#FBBC04"/>
        <path d="M158.666 356.326V352.326C158.666 351.22 157.771 350.326 156.666 350.326H152.666V356.326H158.666Z" fill="#1967D2"/>
        <path d="M434 350.992H194C187.373 350.992 182 356.365 182 362.992C182 369.619 187.373 374.992 194 374.992H434C440.627 374.992 446 369.619 446 362.992C446 356.365 440.627 350.992 434 350.992Z" fill="#DFE1E6"/>
    </g>
    <g filter="url(#filter1_dd_205_2693)">
        <path d="M876 316.992H526C517.163 316.992 510 324.155 510 332.992V396.992C510 405.828 517.163 412.992 526 412.992H876C884.837 412.992 892 405.828 892 396.992V332.992C892 324.155 884.837 316.992 876 316.992Z" fill="white"/>
        <path d="M563 342.77L574 353.77L568.5 354.77L563 353.77L562 348.27L563 342.77Z" fill="#188038"/>
        <path d="M563 353.77V342.77H545C543.342 342.77 542 344.112 542 345.77V383.77C542 385.428 543.342 386.77 545 386.77H571C572.658 386.77 574 385.428 574 383.77V353.77H563Z" fill="#34A853"/>
        <path d="M548 359.77V374.27H568V359.77H548ZM556.75 371.77H550.5V368.27H556.75V371.77ZM556.75 365.77H550.5V362.27H556.75V365.77ZM565.5 371.77H559.25V368.27H565.5V371.77ZM565.5 365.77H559.25V362.27H565.5V365.77Z" fill="white"/>
        <path d="M856 352.992H616C609.373 352.992 604 358.365 604 364.992C604 371.619 609.373 376.992 616 376.992H856C862.627 376.992 868 371.619 868 364.992C868 358.365 862.627 352.992 856 352.992Z" fill="#DFE1E6"/>
    </g>
    <g filter="url(#filter2_dd_205_2693)">
        <path d="M670 156.992H68C61.3726 156.992 56 162.365 56 168.992V252.992C56 259.62 61.3726 264.992 68 264.992H670C676.627 264.992 682 259.62 682 252.992V168.992C682 162.365 676.627 156.992 670 156.992Z" fill="white"/>
        <path d="M132 186.992H84V234.992H132V186.992Z" fill="white" fill-opacity="0.01"/>
        <path fill-rule="evenodd" clip-rule="evenodd" d="M90 186.992H126C127.591 186.992 129.117 187.624 130.243 188.75C131.368 189.875 132 191.401 132 192.992V228.992C132 230.584 131.368 232.11 130.243 233.234C129.117 234.36 127.591 234.992 126 234.992H90C88.4088 234.992 86.8826 234.36 85.7574 233.234C84.6322 232.11 84 230.584 84 228.992V192.992C84 191.401 84.6322 189.875 85.7574 188.75C86.8826 187.624 88.4088 186.992 90 186.992ZM92 222.992C92 224.104 92.892 224.992 93.99 224.992H110.01C111.09 224.992 112 224.096 112 222.992C112 221.88 111.108 220.992 110.01 220.992H93.99C92.91 220.992 92 221.888 92 222.992ZM92 214.992C92 216.104 92.896 216.992 94 216.992H122C123.11 216.992 124 216.096 124 214.992C124 213.88 123.104 212.992 122 212.992H94C92.89 212.992 92 213.888 92 214.992ZM92 206.992C92 208.104 92.896 208.992 94 208.992H122C123.11 208.992 124 208.096 124 206.992C124 205.88 123.104 204.992 122 204.992H94C92.89 204.992 92 205.888 92 206.992ZM92 198.992C92 200.104 92.896 200.992 94 200.992H122C123.11 200.992 124 200.096 124 198.992C124 197.88 123.104 196.992 122 196.992H94C92.89 196.992 92 197.888 92 198.992Z" fill="#2684FF"/>
        <path d="M416 198.992H176C169.373 198.992 164 204.365 164 210.992C164 217.62 169.373 222.992 176 222.992H416C422.627 222.992 428 217.62 428 210.992C428 204.365 422.627 198.992 416 198.992Z" fill="#DFE1E6"/>
        <path d="M481.958 220.992V201.264H479.1L472.346 217.724H472.126L465.374 201.264H462.516V220.992H464.812V205.926H464.976L471.198 220.992H473.276L479.496 205.926H479.66V220.992H481.958ZM496.45 217.178C495.834 218.476 494.548 219.174 492.648 219.174C490.146 219.174 488.52 217.328 488.396 214.416V214.306H498.992V213.404C498.992 208.824 496.572 205.994 492.594 205.994C488.546 205.994 485.95 209.002 485.95 213.636C485.95 218.298 488.506 221.252 492.594 221.252C495.82 221.252 498.118 219.694 498.8 217.178H496.45ZM492.566 208.072C494.904 208.072 496.462 209.794 496.518 212.406H488.396C488.574 209.794 490.214 208.072 492.566 208.072ZM512.446 217.178C511.83 218.476 510.544 219.174 508.644 219.174C506.142 219.174 504.516 217.328 504.392 214.416V214.306H514.988V213.404C514.988 208.824 512.568 205.994 508.59 205.994C504.542 205.994 501.946 209.002 501.946 213.636C501.946 218.298 504.502 221.252 508.59 221.252C511.816 221.252 514.114 219.694 514.796 217.178H512.446ZM508.562 208.072C510.9 208.072 512.458 209.794 512.514 212.406H504.392C504.57 209.794 506.21 208.072 508.562 208.072ZM519.664 202.44V206.254H517.286V208.222H519.664V217.164C519.664 219.98 520.88 221.102 523.916 221.102C524.38 221.102 524.832 221.046 525.296 220.964V218.982C524.86 219.024 524.626 219.038 524.204 219.038C522.672 219.038 522.016 218.298 522.016 216.562V208.222H525.296V206.254H522.016V202.44H519.664ZM530.082 203.41C530.984 203.41 531.722 202.672 531.722 201.77C531.722 200.868 530.984 200.128 530.082 200.128C529.18 200.128 528.442 200.868 528.442 201.77C528.442 202.672 529.18 203.41 530.082 203.41ZM528.906 220.992H531.258V206.254H528.906V220.992ZM535.742 220.992H538.094V212.27C538.094 209.686 539.612 208.114 541.962 208.114C544.314 208.114 545.436 209.372 545.436 212.024V220.992H547.788V211.45C547.788 207.95 545.942 205.994 542.632 205.994C540.376 205.994 538.942 206.952 538.204 208.578H537.984V206.254H535.742V220.992ZM558.164 226.652C562.184 226.652 564.726 224.546 564.726 221.252V206.254H562.484V208.592H562.266C561.418 207.006 559.6 205.994 557.536 205.994C553.748 205.994 551.356 208.988 551.356 213.404C551.356 217.82 553.72 220.774 557.536 220.774C559.558 220.774 561.226 219.858 562.156 218.23H562.376V221.128C562.376 223.302 560.802 224.602 558.164 224.602C556.044 224.602 554.732 223.822 554.472 222.62H551.984C552.34 225.052 554.61 226.652 558.164 226.652ZM558.054 218.696C555.32 218.696 553.79 216.618 553.79 213.404C553.79 210.192 555.32 208.114 558.054 208.114C560.776 208.114 562.43 210.192 562.43 213.404C562.43 216.618 560.79 218.696 558.054 218.696ZM579.792 220.992V205.694H580.012L590.716 220.992H593.11V201.264H590.676V216.618H590.458L579.752 201.264H577.36V220.992H579.792ZM603.896 221.252C608.094 221.252 610.692 218.354 610.692 213.624C610.692 208.878 608.094 205.994 603.896 205.994C599.7 205.994 597.102 208.878 597.102 213.624C597.102 218.354 599.7 221.252 603.896 221.252ZM603.896 219.132C601.108 219.132 599.536 217.11 599.536 213.624C599.536 210.124 601.108 208.114 603.896 208.114C606.686 208.114 608.258 210.124 608.258 213.624C608.258 217.11 606.686 219.132 603.896 219.132ZM615.368 202.44V206.254H612.988V208.222H615.368V217.164C615.368 219.98 616.584 221.102 619.62 221.102C620.084 221.102 620.536 221.046 621 220.964V218.982C620.562 219.024 620.33 219.038 619.906 219.038C618.376 219.038 617.718 218.298 617.718 216.562V208.222H621V206.254H617.718V202.44H615.368ZM634.098 217.178C633.482 218.476 632.198 219.174 630.296 219.174C627.794 219.174 626.168 217.328 626.044 214.416V214.306H636.64V213.404C636.64 208.824 634.22 205.994 630.242 205.994C626.196 205.994 623.598 209.002 623.598 213.636C623.598 218.298 626.154 221.252 630.242 221.252C633.468 221.252 635.766 219.694 636.45 217.178H634.098ZM630.214 208.072C632.552 208.072 634.112 209.794 634.166 212.406H626.044C626.222 209.794 627.864 208.072 630.214 208.072ZM639.99 210.288C639.99 212.42 641.248 213.61 644.01 214.28L646.54 214.894C648.112 215.278 648.876 215.96 648.876 216.972C648.876 218.326 647.456 219.27 645.472 219.27C643.586 219.27 642.41 218.476 642.014 217.232H639.594C639.854 219.68 642.11 221.252 645.39 221.252C648.74 221.252 651.296 219.434 651.296 216.794C651.296 214.676 649.958 213.472 647.182 212.802L644.912 212.256C643.176 211.832 642.356 211.204 642.356 210.192C642.356 208.878 643.722 207.99 645.472 207.99C647.25 207.99 648.398 208.77 648.712 209.946H651.038C650.722 207.526 648.576 205.994 645.486 205.994C642.356 205.994 639.99 207.84 639.99 210.288Z" fill="#172B4D"/>
    </g>
    <g filter="url(#filter3_dd_205_2693)">
        <path d="M613.48 62.9922H250C241.163 62.9922 234 70.1556 234 78.9922V144.992C234 153.829 241.163 160.992 250 160.992H613.48C622.317 160.992 629.48 153.829 629.48 144.992V78.9922C629.48 70.1556 622.317 62.9922 613.48 62.9922Z" fill="white"/>
        <path d="M307.328 86.9922H282.52C282.52 92.981 287.54 97.8558 293.706 97.8558H298.294V102.104C298.294 108.092 303.312 112.967 309.478 112.967V89.0814C309.478 87.8974 308.546 86.9922 307.328 86.9922Z" fill="#2684FF"/>
        <path d="M295.068 98.9698H270.26C270.26 104.959 275.28 109.833 281.446 109.833H286.034V114.151C286.034 120.14 291.054 125.014 297.22 125.014V101.059C297.22 99.9446 296.288 98.9698 295.068 98.9698Z" fill="url(#paint0_linear_205_2693)"/>
        <path d="M282.808 111.017H258C258 117.006 263.018 121.88 269.184 121.88H273.774V126.128C273.774 132.117 278.792 136.992 284.958 136.992V113.106C284.958 111.922 283.954 111.017 282.808 111.017Z" fill="url(#paint1_linear_205_2693)"/>
        <path d="M593.478 99.9922H353.478C346.851 99.9922 341.478 105.365 341.478 111.992C341.478 118.62 346.851 123.992 353.478 123.992H593.478C600.105 123.992 605.478 118.62 605.478 111.992C605.478 105.365 600.105 99.9922 593.478 99.9922Z" fill="#DFE1E6"/>
    </g>
    <g filter="url(#filter4_dd_205_2693)">
        <path d="M640 244.992H290C281.163 244.992 274 252.155 274 260.992V324.966C274 333.803 281.163 340.966 290 340.966H640C648.837 340.966 656 333.803 656 324.966V260.992C656 252.155 648.837 244.992 640 244.992Z" fill="white"/>
        <path fill-rule="evenodd" clip-rule="evenodd" d="M337.252 272.992H306.754C305.494 272.992 304.286 273.492 303.394 274.382C302.504 275.272 302.002 276.48 302 277.74V308.192C301.998 308.818 302.118 309.438 302.356 310.018C302.594 310.598 302.944 311.124 303.386 311.568C303.828 312.01 304.352 312.362 304.93 312.602C305.508 312.842 306.128 312.966 306.754 312.966H337.252C337.876 312.966 338.496 312.842 339.074 312.6C339.65 312.36 340.176 312.008 340.616 311.564C341.058 311.122 341.406 310.596 341.644 310.016C341.882 309.438 342.002 308.818 342 308.192V277.74C341.998 276.482 341.498 275.274 340.608 274.384C339.718 273.494 338.51 272.994 337.252 272.992ZM319.25 301.784C319.25 301.994 319.208 302.2 319.126 302.394C319.046 302.586 318.928 302.762 318.778 302.908C318.63 303.056 318.454 303.172 318.26 303.25C318.066 303.33 317.858 303.368 317.648 303.368H310.984C310.566 303.366 310.164 303.198 309.87 302.902C309.574 302.604 309.408 302.202 309.408 301.784V281.95C309.408 281.532 309.574 281.13 309.87 280.834C310.164 280.538 310.566 280.37 310.984 280.368H317.648C318.068 280.37 318.47 280.538 318.766 280.834C319.062 281.13 319.23 281.532 319.232 281.95L319.25 301.784ZM334.63 292.678C334.63 292.888 334.588 293.096 334.508 293.288C334.428 293.482 334.31 293.656 334.16 293.804C334.012 293.952 333.834 294.068 333.64 294.146C333.446 294.224 333.238 294.264 333.028 294.26H326.364C325.944 294.26 325.544 294.092 325.246 293.796C324.95 293.5 324.782 293.098 324.782 292.678V281.95C324.782 281.532 324.95 281.13 325.246 280.834C325.544 280.538 325.944 280.37 326.364 280.368H333.028C333.448 280.37 333.848 280.538 334.144 280.834C334.44 281.13 334.604 281.532 334.604 281.95L334.63 292.678Z" fill="url(#paint2_linear_205_2693)"/>
        <path d="M620 280.98H380C373.373 280.98 368 286.353 368 292.98C368 299.607 373.373 304.98 380 304.98H620C626.627 304.98 632 299.607 632 292.98C632 286.353 626.627 280.98 620 280.98Z" fill="#DFE1E6"/>
    </g>
    <g filter="url(#filter5_dd_205_2693)">
        <path d="M766 180.992H426C419.373 180.992 414 186.365 414 192.992V248.992C414 255.62 419.373 260.992 426 260.992H766C772.627 260.992 778 255.62 778 248.992V192.992C778 186.365 772.627 180.992 766 180.992Z" fill="white"/>
        <path d="M470 196.992H438C433.582 196.992 430 200.574 430 204.992V236.992C430 241.41 433.582 244.992 438 244.992H470C474.418 244.992 478 241.41 478 236.992V204.992C478 200.574 474.418 196.992 470 196.992Z" fill="#1E1E1E"/>
        <path d="M454 221.258C454 219.916 454.534 218.626 455.484 217.676C456.434 216.726 457.722 216.192 459.066 216.192C460.41 216.192 461.7 216.726 462.65 217.676C463.6 218.626 464.134 219.916 464.134 221.258C464.134 222.602 463.6 223.892 462.65 224.842C461.7 225.792 460.41 226.326 459.066 226.326C457.722 226.326 456.434 225.792 455.484 224.842C454.534 223.892 454 222.602 454 221.258Z" fill="#1ABCFE"/>
        <path d="M443.866 231.392C443.866 230.048 444.4 228.76 445.35 227.81C446.3 226.86 447.59 226.326 448.932 226.326H454V231.392C454 232.736 453.466 234.024 452.516 234.974C451.566 235.924 450.276 236.458 448.932 236.458C447.59 236.458 446.3 235.924 445.35 234.974C444.4 234.024 443.866 232.736 443.866 231.392Z" fill="#0ACF83"/>
        <path d="M454 206.058V216.192H459.066C460.41 216.192 461.7 215.658 462.65 214.708C463.6 213.758 464.134 212.47 464.134 211.126C464.134 209.782 463.6 208.494 462.65 207.542C461.7 206.592 460.41 206.058 459.066 206.058H454Z" fill="#FF7262"/>
        <path d="M443.866 211.126C443.866 212.47 444.4 213.758 445.35 214.708C446.3 215.658 447.59 216.192 448.932 216.192H454V206.058H448.932C447.59 206.058 446.3 206.592 445.35 207.542C444.4 208.494 443.866 209.782 443.866 211.126Z" fill="#F24E1E"/>
        <path d="M443.866 221.258C443.866 222.602 444.4 223.892 445.35 224.842C446.3 225.792 447.59 226.326 448.932 226.326H454V216.192H448.932C447.59 216.192 446.3 216.726 445.35 217.676C444.4 218.626 443.866 219.916 443.866 221.258Z" fill="#A259FF"/>
        <path d="M750 208.992H510C503.373 208.992 498 214.365 498 220.992C498 227.619 503.373 232.992 510 232.992H750C756.627 232.992 762 227.619 762 220.992C762 214.365 756.627 208.992 750 208.992Z" fill="#DFE1E6"/>
    </g>
    <g filter="url(#filter6_dd_205_2693)">
        <path d="M686 400.992H310C303.373 400.992 298 406.365 298 412.992V492.992C298 499.619 303.373 504.992 310 504.992H686C692.627 504.992 698 499.619 698 492.992V412.992C698 406.365 692.627 400.992 686 400.992Z" fill="white"/>
        <path d="M374 428.992H326V476.992H374V428.992Z" fill="white" fill-opacity="0.01"/>
        <path fill-rule="evenodd" clip-rule="evenodd" d="M332 428.992H368C369.592 428.992 371.118 429.624 372.242 430.75C373.368 431.874 374 433.4 374 434.992V470.992C374 472.584 373.368 474.11 372.242 475.234C371.118 476.36 369.592 476.992 368 476.992H332C330.408 476.992 328.882 476.36 327.758 475.234C326.632 474.11 326 472.584 326 470.992V434.992C326 433.4 326.632 431.874 327.758 430.75C328.882 429.624 330.408 428.992 332 428.992ZM334 464.992C334 466.104 334.892 466.992 335.99 466.992H352.01C353.09 466.992 354 466.096 354 464.992C354 463.88 353.108 462.992 352.01 462.992H335.99C334.91 462.992 334 463.888 334 464.992ZM334 456.992C334 458.104 334.896 458.992 336 458.992H364C365.11 458.992 366 458.096 366 456.992C366 455.88 365.104 454.992 364 454.992H336C334.89 454.992 334 455.888 334 456.992ZM334 448.992C334 450.104 334.896 450.992 336 450.992H364C365.11 450.992 366 450.096 366 448.992C366 447.88 365.104 446.992 364 446.992H336C334.89 446.992 334 447.888 334 448.992ZM334 440.992C334 442.104 334.896 442.992 336 442.992H364C365.11 442.992 366 442.096 366 440.992C366 439.88 365.104 438.992 364 438.992H336C334.89 438.992 334 439.888 334 440.992Z" fill="#2684FF"/>
        <path d="M658 440.992H418C411.373 440.992 406 446.365 406 452.992C406 459.619 411.373 464.992 418 464.992H658C664.627 464.992 670 459.619 670 452.992C670 446.365 664.627 440.992 658 440.992Z" fill="#DFE1E6"/>
    </g>
    <path d="M1183.68 280.448C1175.5 271.998 1167.62 263.926 1159.77 255.828C1158.2 254.22 1157.09 253.084 1155.53 250.714C1154.35 248.966 1151.95 245.2 1154.48 244.12C1156.64 243.418 1158.23 243.16 1161.3 245.664C1169.21 252.172 1175.8 259.878 1182.38 267.484C1188.19 274.204 1192.5 279.43 1197.2 285.714C1199.4 288.65 1198.31 291.016 1194.66 292.724C1191.38 294.256 1188.04 295.878 1184.61 296.854C1172.23 300.428 1159.86 303.702 1147.45 307.102C1145.9 307.534 1144.72 307.952 1142.84 308.232C1140.57 308.552 1138.92 308.898 1138.49 307C1138.07 305.202 1140.75 303.678 1142.22 303.138C1154.48 298.378 1179.87 288.93 1181.14 288.158C1174.54 285.582 1168.51 283.06 1162.26 280.872C1118.62 265.832 1073.67 253.994 1024.48 252.704C985.546 251.684 946.41 254.998 906.906 263.856C904.572 264.366 902.194 264.702 899.902 264.984C896.796 265.41 895.186 265.13 895.09 263.682C895.318 260.884 897.43 260.106 899.08 259.36C902.356 257.828 905.924 256.872 909.38 255.934C955.678 243.816 1001.26 241.52 1046.4 244.758C1092.73 248.076 1134.69 261.024 1175 277.52C1177.08 278.472 1182.54 280.34 1183.68 280.448Z" fill="#6B778C"/>
    <g filter="url(#filter7_dd_205_2693)">
        <path d="M1641.7 20H1295.7C1286.86 20 1279.7 27.1634 1279.7 36V515.984C1279.7 524.821 1286.86 531.984 1295.7 531.984H1641.7C1650.53 531.984 1657.7 524.821 1657.7 515.984V36C1657.7 27.1634 1650.53 20 1641.7 20Z" fill="white"/>
        <path d="M1343.7 132H1327.7C1323.28 132 1319.7 135.582 1319.7 140V156C1319.7 160.418 1323.28 164 1327.7 164H1343.7C1348.11 164 1351.7 160.418 1351.7 156V140C1351.7 135.582 1348.11 132 1343.7 132Z" fill="#1E1E1E"/>
        <path d="M1335.7 148.178C1335.7 147.282 1336.05 146.423 1336.68 145.789C1337.32 145.156 1338.18 144.8 1339.07 144.8C1339.97 144.8 1340.83 145.156 1341.46 145.789C1342.09 146.423 1342.45 147.282 1342.45 148.178C1342.45 149.074 1342.09 149.933 1341.46 150.566C1340.83 151.2 1339.97 151.556 1339.07 151.556C1338.18 151.556 1337.32 151.2 1336.68 150.566C1336.05 149.933 1335.7 149.074 1335.7 148.178Z" fill="#1ABCFE"/>
        <path d="M1328.94 154.933C1328.94 154.038 1329.3 153.178 1329.93 152.545C1330.56 151.912 1331.42 151.556 1332.32 151.556H1335.7V154.933C1335.7 155.829 1335.34 156.688 1334.71 157.322C1334.07 157.955 1333.21 158.311 1332.32 158.311C1331.42 158.311 1330.56 157.955 1329.93 157.322C1329.3 156.688 1328.94 155.829 1328.94 154.933Z" fill="#0ACF83"/>
        <path d="M1335.7 138.044V144.8H1339.07C1339.97 144.8 1340.83 144.444 1341.46 143.811C1342.09 143.177 1342.45 142.318 1342.45 141.422C1342.45 140.526 1342.09 139.667 1341.46 139.034C1340.83 138.4 1339.97 138.044 1339.07 138.044H1335.7Z" fill="#FF7262"/>
        <path d="M1328.94 141.422C1328.94 142.318 1329.3 143.177 1329.93 143.811C1330.56 144.444 1331.42 144.8 1332.32 144.8H1335.7V138.044H1332.32C1331.42 138.044 1330.56 138.4 1329.93 139.034C1329.3 139.667 1328.94 140.526 1328.94 141.422Z" fill="#F24E1E"/>
        <path d="M1328.94 148.178C1328.94 149.074 1329.3 149.933 1329.93 150.566C1330.56 151.2 1331.42 151.556 1332.32 151.556H1335.7V144.8H1332.32C1331.42 144.8 1330.56 145.156 1329.93 145.789C1329.3 146.423 1328.94 147.282 1328.94 148.178Z" fill="#A259FF"/>
        <path d="M1609.7 140H1379.7C1375.28 140 1371.7 143.582 1371.7 148C1371.7 152.418 1375.28 156 1379.7 156H1609.7C1614.11 156 1617.7 152.418 1617.7 148C1617.7 143.582 1614.11 140 1609.7 140Z" fill="#DFE1E6"/>
        <path d="M1351.27 196H1335.39C1335.39 199.833 1338.6 202.952 1342.55 202.952H1345.48V205.672C1345.48 209.504 1348.7 212.624 1352.64 212.624V197.337C1352.64 196.579 1352.05 196 1351.27 196Z" fill="#2684FF"/>
        <path d="M1343.42 203.666H1327.54C1327.54 207.498 1330.75 210.618 1334.7 210.618H1337.64V213.382C1337.64 217.214 1340.85 220.334 1344.8 220.334V205.002C1344.8 204.29 1344.2 203.666 1343.42 203.666Z" fill="url(#paint3_linear_205_2693)"/>
        <path d="M1335.57 211.376H1319.7C1319.7 215.208 1322.91 218.328 1326.85 218.328H1329.79V221.048C1329.79 224.88 1333 228 1336.95 228V212.712C1336.95 211.956 1336.31 211.376 1335.57 211.376Z" fill="url(#paint4_linear_205_2693)"/>
        <path d="M1506.64 204H1380.64C1376.22 204 1372.64 207.582 1372.64 212C1372.64 216.418 1376.22 220 1380.64 220H1506.64C1511.06 220 1514.64 216.418 1514.64 212C1514.64 207.582 1511.06 204 1506.64 204Z" fill="#DFE1E6"/>
        <path d="M1339.03 261.186L1346.36 268.518L1342.69 269.186L1339.03 268.518L1338.36 264.852L1339.03 261.186Z" fill="#188038"/>
        <path d="M1339.03 268.518V261.186H1327.03C1325.92 261.186 1325.03 262.08 1325.03 263.186V288.518C1325.03 289.624 1325.92 290.518 1327.03 290.518H1344.36C1345.47 290.518 1346.36 289.624 1346.36 288.518V268.518H1339.03Z" fill="#34A853"/>
        <path d="M1329.03 272.518V282.186H1342.36V272.518H1329.03ZM1334.86 280.518H1330.69V278.186H1334.86V280.518ZM1334.86 276.518H1330.69V274.186H1334.86V276.518ZM1340.69 280.518H1336.53V278.186H1340.69V280.518ZM1340.69 276.518H1336.53V274.186H1340.69V276.518Z" fill="white"/>
        <path d="M1579.7 268H1379.7C1375.28 268 1371.7 271.582 1371.7 276C1371.7 280.418 1375.28 284 1379.7 284H1579.7C1584.11 284 1587.7 280.418 1587.7 276C1587.7 271.582 1584.11 268 1579.7 268Z" fill="#DFE1E6"/>
        <path fill-rule="evenodd" clip-rule="evenodd" d="M1344.85 328H1326.55C1325.79 328 1325.07 328.3 1324.53 328.834C1324 329.368 1323.7 330.094 1323.7 330.85V349.12C1323.69 349.496 1323.77 349.868 1323.91 350.216C1324.05 350.562 1324.26 350.878 1324.53 351.144C1324.79 351.412 1325.11 351.622 1325.45 351.766C1325.8 351.91 1326.17 351.984 1326.55 351.984H1344.85C1345.22 351.984 1345.59 351.91 1345.94 351.766C1346.29 351.62 1346.6 351.41 1346.87 351.144C1347.13 350.878 1347.34 350.562 1347.48 350.214C1347.62 349.868 1347.7 349.496 1347.7 349.12V330.85C1347.69 330.094 1347.39 329.37 1346.86 328.836C1346.33 328.302 1345.6 328.002 1344.85 328ZM1334.05 345.276C1334.05 345.4 1334.02 345.524 1333.97 345.64C1333.92 345.756 1333.85 345.862 1333.76 345.95C1333.67 346.038 1333.57 346.108 1333.45 346.154C1333.33 346.202 1333.21 346.226 1333.08 346.224H1329.09C1328.83 346.224 1328.59 346.124 1328.42 345.946C1328.24 345.768 1328.14 345.526 1328.14 345.276V333.376C1328.14 333.124 1328.24 332.884 1328.42 332.706C1328.59 332.528 1328.83 332.426 1329.09 332.426H1333.08C1333.34 332.426 1333.58 332.526 1333.76 332.704C1333.93 332.882 1334.03 333.124 1334.03 333.376L1334.05 345.276ZM1343.27 339.812C1343.27 339.938 1343.25 340.062 1343.2 340.178C1343.15 340.294 1343.08 340.398 1342.99 340.488C1342.9 340.576 1342.8 340.646 1342.68 340.692C1342.56 340.74 1342.44 340.762 1342.31 340.762H1338.31C1338.06 340.76 1337.82 340.66 1337.64 340.482C1337.47 340.304 1337.37 340.064 1337.36 339.812V333.376C1337.37 333.124 1337.47 332.882 1337.64 332.704C1337.82 332.526 1338.06 332.426 1338.31 332.426H1342.31C1342.56 332.426 1342.8 332.528 1342.98 332.706C1343.16 332.884 1343.26 333.124 1343.26 333.376L1343.27 339.812Z" fill="url(#paint5_linear_205_2693)"/>
        <path d="M1597.7 331.992H1379.7C1375.28 331.992 1371.7 335.574 1371.7 339.992C1371.7 344.41 1375.28 347.992 1379.7 347.992H1597.7C1602.11 347.992 1605.7 344.41 1605.7 339.992C1605.7 335.574 1602.11 331.992 1597.7 331.992Z" fill="#DFE1E6"/>
        <path d="M1351.7 387.984H1319.7V419.984H1351.7V387.984Z" fill="white" fill-opacity="0.01"/>
        <path fill-rule="evenodd" clip-rule="evenodd" d="M1323.7 387.984H1347.7C1348.76 387.984 1349.77 388.406 1350.52 389.156C1351.27 389.906 1351.7 390.924 1351.7 391.984V415.984C1351.7 417.046 1351.27 418.062 1350.52 418.814C1349.77 419.564 1348.76 419.984 1347.7 419.984H1323.7C1322.63 419.984 1321.62 419.564 1320.87 418.814C1320.12 418.062 1319.7 417.046 1319.7 415.984V391.984C1319.7 390.924 1320.12 389.906 1320.87 389.156C1321.62 388.406 1322.63 387.984 1323.7 387.984ZM1325.03 411.984C1325.03 412.726 1325.62 413.318 1326.36 413.318H1337.04C1337.76 413.318 1338.36 412.72 1338.36 411.984C1338.36 411.244 1337.77 410.652 1337.04 410.652H1326.36C1325.64 410.652 1325.03 411.248 1325.03 411.984ZM1325.03 406.652C1325.03 407.392 1325.63 407.984 1326.36 407.984H1345.03C1345.77 407.984 1346.36 407.388 1346.36 406.652C1346.36 405.91 1345.76 405.318 1345.03 405.318H1326.36C1325.62 405.318 1325.03 405.916 1325.03 406.652ZM1325.03 401.318C1325.03 402.06 1325.63 402.652 1326.36 402.652H1345.03C1345.77 402.652 1346.36 402.054 1346.36 401.318C1346.36 400.576 1345.76 399.984 1345.03 399.984H1326.36C1325.62 399.984 1325.03 400.582 1325.03 401.318ZM1325.03 395.984C1325.03 396.726 1325.63 397.318 1326.36 397.318H1345.03C1345.77 397.318 1346.36 396.72 1346.36 395.984C1346.36 395.244 1345.76 394.652 1345.03 394.652H1326.36C1325.62 394.652 1325.03 395.248 1325.03 395.984Z" fill="#2684FF"/>
        <path d="M1547.7 395.984H1379.7C1375.28 395.984 1371.7 399.566 1371.7 403.984C1371.7 408.402 1375.28 411.984 1379.7 411.984H1547.7C1552.11 411.984 1555.7 408.402 1555.7 403.984C1555.7 399.566 1552.11 395.984 1547.7 395.984Z" fill="#DFE1E6"/>
        <path d="M1342.36 461.318L1336.36 460.652L1329.03 461.318L1328.36 467.984L1329.03 474.652L1335.69 475.484L1342.36 474.652L1343.03 467.818L1342.36 461.318Z" fill="white"/>
        <path d="M1331.76 471.662C1331.26 471.324 1330.92 470.832 1330.73 470.182L1331.89 469.706C1331.99 470.106 1332.18 470.416 1332.44 470.636C1332.7 470.856 1333.01 470.964 1333.38 470.964C1333.76 470.964 1334.09 470.85 1334.36 470.62C1334.63 470.39 1334.77 470.096 1334.77 469.742C1334.77 469.378 1334.62 469.082 1334.34 468.852C1334.05 468.622 1333.69 468.506 1333.26 468.506H1332.59V467.362H1333.19C1333.56 467.362 1333.87 467.262 1334.13 467.062C1334.38 466.862 1334.51 466.588 1334.51 466.24C1334.51 465.93 1334.39 465.682 1334.17 465.498C1333.94 465.312 1333.65 465.22 1333.31 465.22C1332.97 465.22 1332.7 465.31 1332.5 465.492C1332.3 465.672 1332.15 465.896 1332.06 466.16L1330.91 465.682C1331.07 465.252 1331.34 464.872 1331.75 464.544C1332.16 464.216 1332.68 464.052 1333.32 464.052C1333.78 464.052 1334.21 464.142 1334.58 464.322C1334.95 464.504 1335.25 464.756 1335.46 465.076C1335.67 465.398 1335.77 465.758 1335.77 466.158C1335.77 466.566 1335.68 466.912 1335.48 467.194C1335.28 467.478 1335.04 467.694 1334.75 467.846V467.914C1335.13 468.072 1335.44 468.314 1335.68 468.64C1335.93 468.964 1336.05 469.352 1336.05 469.806C1336.05 470.26 1335.93 470.664 1335.7 471.02C1335.47 471.374 1335.15 471.654 1334.75 471.858C1334.35 472.062 1333.89 472.164 1333.39 472.164C1332.8 472.166 1332.26 471.998 1331.76 471.662Z" fill="#1A73E8"/>
        <path d="M1338.86 465.922L1337.6 466.84L1336.96 465.876L1339.24 464.232H1340.11V471.984H1338.86V465.922Z" fill="#1A73E8"/>
        <path d="M1342.36 480.652L1348.36 474.652L1345.36 473.318L1342.36 474.652L1341.03 477.652L1342.36 480.652Z" fill="#EA4335"/>
        <path d="M1327.7 477.652L1329.03 480.652H1342.36V474.652H1329.03L1327.7 477.652Z" fill="#34A853"/>
        <path d="M1325.03 455.318C1323.92 455.318 1323.03 456.212 1323.03 457.318V474.652L1326.03 475.984L1329.03 474.652V461.318H1342.36L1343.69 458.318L1342.36 455.318H1325.03Z" fill="#4285F4"/>
        <path d="M1323.03 474.652V478.652C1323.03 479.756 1323.92 480.652 1325.03 480.652H1329.03V474.652H1323.03Z" fill="#188038"/>
        <path d="M1342.36 461.318V474.652H1348.36V461.318L1345.36 459.984L1342.36 461.318Z" fill="#FBBC04"/>
        <path d="M1348.36 461.318V457.318C1348.36 456.212 1347.47 455.318 1346.36 455.318H1342.36V461.318H1348.36Z" fill="#1967D2"/>
        <path d="M1605.7 459.984H1379.7C1375.28 459.984 1371.7 463.566 1371.7 467.984C1371.7 472.402 1375.28 475.984 1379.7 475.984H1605.7C1610.11 475.984 1613.7 472.402 1613.7 467.984C1613.7 463.566 1610.11 459.984 1605.7 459.984Z" fill="#DFE1E6"/>
    </g>
    <path d="M1321.18 87.7139C1321.3 90.582 1323.7 92.3975 1327.39 92.3975C1331.28 92.3975 1333.67 90.4854 1333.67 87.3916C1333.67 84.9961 1332.33 83.6533 1329.22 82.9873L1327.35 82.5898C1325.53 82.1924 1324.79 81.623 1324.79 80.6455C1324.79 79.4316 1325.87 78.6475 1327.49 78.6475C1329.06 78.6475 1330.19 79.4746 1330.34 80.7422H1333.4C1333.3 78.0029 1330.88 76.1016 1327.47 76.1016C1323.89 76.1016 1321.54 78.0137 1321.54 80.9033C1321.54 83.2559 1322.92 84.7061 1325.75 85.3076L1327.77 85.748C1329.67 86.167 1330.44 86.7578 1330.44 87.7783C1330.44 88.9814 1329.25 89.8301 1327.56 89.8301C1325.74 89.8301 1324.47 89.0029 1324.32 87.7139H1321.18ZM1350.22 92V76.499H1346.97V82.7939H1339.99V76.499H1336.75V92H1339.99V85.4688H1346.97V92H1350.22ZM1360.76 76.1016C1356.19 76.1016 1353.29 79.2168 1353.29 84.2441C1353.29 89.2607 1356.15 92.3975 1360.76 92.3975C1365.33 92.3975 1368.21 89.2607 1368.21 84.2441C1368.21 79.2275 1365.32 76.1016 1360.76 76.1016ZM1360.76 78.8516C1363.27 78.8516 1364.89 80.9463 1364.89 84.2441C1364.89 87.5312 1363.28 89.6475 1360.76 89.6475C1358.2 89.6475 1356.61 87.5312 1356.61 84.2441C1356.61 80.9463 1358.23 78.8516 1360.76 78.8516ZM1374.54 86.3281H1377.19L1380.08 92H1383.75L1380.49 85.8447C1382.27 85.1465 1383.3 83.4277 1383.3 81.4404C1383.3 78.3789 1381.21 76.499 1377.8 76.499H1371.29V92H1374.54V86.3281ZM1374.54 79.0342H1377.35C1378.96 79.0342 1379.97 79.9795 1379.97 81.4834C1379.97 83.0195 1379.02 83.9111 1377.38 83.9111H1374.54V79.0342ZM1393.57 92V79.1738H1398.22V76.499H1385.68V79.1738H1390.33V92H1393.57ZM1407.14 92.3975C1410.88 92.3975 1413.61 90.1309 1413.88 86.8223H1410.72C1410.41 88.5303 1409.01 89.626 1407.15 89.626C1404.7 89.626 1403.19 87.5635 1403.19 84.2441C1403.19 80.9248 1404.7 78.8623 1407.14 78.8623C1408.99 78.8623 1410.4 80.0439 1410.71 81.8379H1413.87C1413.63 78.5078 1410.81 76.1016 1407.14 76.1016C1402.64 76.1016 1399.87 79.2061 1399.87 84.2441C1399.87 89.2822 1402.65 92.3975 1407.14 92.3975ZM1420.1 76.499H1416.85V86.6504C1416.85 90.0771 1419.39 92.3975 1423.35 92.3975C1427.31 92.3975 1429.84 90.0771 1429.84 86.6504V76.499H1426.59V86.3389C1426.59 88.3262 1425.42 89.6152 1423.35 89.6152C1421.28 89.6152 1420.1 88.3262 1420.1 86.3389V76.499ZM1440.6 92V79.1738H1445.25V76.499H1432.71V79.1738H1437.36V92H1440.6ZM1447.42 87.7139C1447.54 90.582 1449.94 92.3975 1453.63 92.3975C1457.52 92.3975 1459.92 90.4854 1459.92 87.3916C1459.92 84.9961 1458.57 83.6533 1455.46 82.9873L1453.59 82.5898C1451.77 82.1924 1451.03 81.623 1451.03 80.6455C1451.03 79.4316 1452.11 78.6475 1453.73 78.6475C1455.3 78.6475 1456.44 79.4746 1456.59 80.7422H1459.64C1459.54 78.0029 1457.12 76.1016 1453.71 76.1016C1450.13 76.1016 1447.78 78.0137 1447.78 80.9033C1447.78 83.2559 1449.16 84.7061 1451.99 85.3076L1454.01 85.748C1455.91 86.167 1456.68 86.7578 1456.68 87.7783C1456.68 88.9814 1455.49 89.8301 1453.8 89.8301C1451.98 89.8301 1450.71 89.0029 1450.56 87.7139H1447.42Z" fill="#6B778C"/>
    <defs>
        <filter id="filter0_dd_205_2693" x="86" y="320.992" width="404" height="120" filterUnits="userSpaceOnUse" color-interpolation-filters="sRGB">
            <feFlood flood-opacity="0" result="BackgroundImageFix"/>
            <feColorMatrix in="SourceAlpha" type="matrix" values="0 0 0 0 0 0 0 0 0 0 0 0 0 0 0 0 0 0 127 0" result="hardAlpha"/>
            <feOffset/>
            <feGaussianBlur stdDeviation="0.5"/>
            <feColorMatrix type="matrix" values="0 0 0 0 0.0352941 0 0 0 0 0.117647 0 0 0 0 0.258824 0 0 0 0.31 0"/>
            <feBlend mode="normal" in2="BackgroundImageFix" result="effect1_dropShadow_205_2693"/>
            <feColorMatrix in="SourceAlpha" type="matrix" values="0 0 0 0 0 0 0 0 0 0 0 0 0 0 0 0 0 0 127 0" result="hardAlpha"/>
            <feOffset dy="18"/>
            <feGaussianBlur stdDeviation="14"/>
            <feColorMatrix type="matrix" values="0 0 0 0 0.0352941 0 0 0 0 0.117647 0 0 0 0 0.258824 0 0 0 0.15 0"/>
            <feBlend mode="normal" in2="effect1_dropShadow_205_2693" result="effect2_dropShadow_205_2693"/>
            <feBlend mode="normal" in="SourceGraphic" in2="effect2_dropShadow_205_2693" result="shape"/>
        </filter>
        <filter id="filter1_dd_205_2693" x="482" y="306.992" width="438" height="152" filterUnits="userSpaceOnUse" color-interpolation-filters="sRGB">
            <feFlood flood-opacity="0" result="BackgroundImageFix"/>
            <feColorMatrix in="SourceAlpha" type="matrix" values="0 0 0 0 0 0 0 0 0 0 0 0 0 0 0 0 0 0 127 0" result="hardAlpha"/>
            <feOffset/>
            <feGaussianBlur stdDeviation="0.5"/>
            <feColorMatrix type="matrix" values="0 0 0 0 0.0352941 0 0 0 0 0.117647 0 0 0 0 0.258824 0 0 0 0.31 0"/>
            <feBlend mode="normal" in2="BackgroundImageFix" result="effect1_dropShadow_205_2693"/>
            <feColorMatrix in="SourceAlpha" type="matrix" values="0 0 0 0 0 0 0 0 0 0 0 0 0 0 0 0 0 0 127 0" result="hardAlpha"/>
            <feOffset dy="18"/>
            <feGaussianBlur stdDeviation="14"/>
            <feColorMatrix type="matrix" values="0 0 0 0 0.0352941 0 0 0 0 0.117647 0 0 0 0 0.258824 0 0 0 0.15 0"/>
            <feBlend mode="normal" in2="effect1_dropShadow_205_2693" result="effect2_dropShadow_205_2693"/>
            <feBlend mode="normal" in="SourceGraphic" in2="effect2_dropShadow_205_2693" result="shape"/>
        </filter>
        <filter id="filter2_dd_205_2693" x="28" y="146.992" width="682" height="164" filterUnits="userSpaceOnUse" color-interpolation-filters="sRGB">
            <feFlood flood-opacity="0" result="BackgroundImageFix"/>
            <feColorMatrix in="SourceAlpha" type="matrix" values="0 0 0 0 0 0 0 0 0 0 0 0 0 0 0 0 0 0 127 0" result="hardAlpha"/>
            <feOffset/>
            <feGaussianBlur stdDeviation="0.5"/>
            <feColorMatrix type="matrix" values="0 0 0 0 0.0352941 0 0 0 0 0.117647 0 0 0 0 0.258824 0 0 0 0.31 0"/>
            <feBlend mode="normal" in2="BackgroundImageFix" result="effect1_dropShadow_205_2693"/>
            <feColorMatrix in="SourceAlpha" type="matrix" values="0 0 0 0 0 0 0 0 0 0 0 0 0 0 0 0 0 0 127 0" result="hardAlpha"/>
            <feOffset dy="18"/>
            <feGaussianBlur stdDeviation="14"/>
            <feColorMatrix type="matrix" values="0 0 0 0 0.0352941 0 0 0 0 0.117647 0 0 0 0 0.258824 0 0 0 0.15 0"/>
            <feBlend mode="normal" in2="effect1_dropShadow_205_2693" result="effect2_dropShadow_205_2693"/>
            <feBlend mode="normal" in="SourceGraphic" in2="effect2_dropShadow_205_2693" result="shape"/>
        </filter>
        <filter id="filter3_dd_205_2693" x="206" y="52.9922" width="451.48" height="154" filterUnits="userSpaceOnUse" color-interpolation-filters="sRGB">
            <feFlood flood-opacity="0" result="BackgroundImageFix"/>
            <feColorMatrix in="SourceAlpha" type="matrix" values="0 0 0 0 0 0 0 0 0 0 0 0 0 0 0 0 0 0 127 0" result="hardAlpha"/>
            <feOffset/>
            <feGaussianBlur stdDeviation="0.5"/>
            <feColorMatrix type="matrix" values="0 0 0 0 0.0352941 0 0 0 0 0.117647 0 0 0 0 0.258824 0 0 0 0.31 0"/>
            <feBlend mode="normal" in2="BackgroundImageFix" result="effect1_dropShadow_205_2693"/>
            <feColorMatrix in="SourceAlpha" type="matrix" values="0 0 0 0 0 0 0 0 0 0 0 0 0 0 0 0 0 0 127 0" result="hardAlpha"/>
            <feOffset dy="18"/>
            <feGaussianBlur stdDeviation="14"/>
            <feColorMatrix type="matrix" values="0 0 0 0 0.0352941 0 0 0 0 0.117647 0 0 0 0 0.258824 0 0 0 0.15 0"/>
            <feBlend mode="normal" in2="effect1_dropShadow_205_2693" result="effect2_dropShadow_205_2693"/>
            <feBlend mode="normal" in="SourceGraphic" in2="effect2_dropShadow_205_2693" result="shape"/>
        </filter>
        <filter id="filter4_dd_205_2693" x="246" y="234.992" width="438" height="151.974" filterUnits="userSpaceOnUse" color-interpolation-filters="sRGB">
            <feFlood flood-opacity="0" result="BackgroundImageFix"/>
            <feColorMatrix in="SourceAlpha" type="matrix" values="0 0 0 0 0 0 0 0 0 0 0 0 0 0 0 0 0 0 127 0" result="hardAlpha"/>
            <feOffset/>
            <feGaussianBlur stdDeviation="0.5"/>
            <feColorMatrix type="matrix" values="0 0 0 0 0.0352941 0 0 0 0 0.117647 0 0 0 0 0.258824 0 0 0 0.31 0"/>
            <feBlend mode="normal" in2="BackgroundImageFix" result="effect1_dropShadow_205_2693"/>
            <feColorMatrix in="SourceAlpha" type="matrix" values="0 0 0 0 0 0 0 0 0 0 0 0 0 0 0 0 0 0 127 0" result="hardAlpha"/>
            <feOffset dy="18"/>
            <feGaussianBlur stdDeviation="14"/>
            <feColorMatrix type="matrix" values="0 0 0 0 0.0352941 0 0 0 0 0.117647 0 0 0 0 0.258824 0 0 0 0.15 0"/>
            <feBlend mode="normal" in2="effect1_dropShadow_205_2693" result="effect2_dropShadow_205_2693"/>
            <feBlend mode="normal" in="SourceGraphic" in2="effect2_dropShadow_205_2693" result="shape"/>
        </filter>
        <filter id="filter5_dd_205_2693" x="386" y="170.992" width="420" height="136" filterUnits="userSpaceOnUse" color-interpolation-filters="sRGB">
            <feFlood flood-opacity="0" result="BackgroundImageFix"/>
            <feColorMatrix in="SourceAlpha" type="matrix" values="0 0 0 0 0 0 0 0 0 0 0 0 0 0 0 0 0 0 127 0" result="hardAlpha"/>
            <feOffset/>
            <feGaussianBlur stdDeviation="0.5"/>
            <feColorMatrix type="matrix" values="0 0 0 0 0.0352941 0 0 0 0 0.117647 0 0 0 0 0.258824 0 0 0 0.31 0"/>
            <feBlend mode="normal" in2="BackgroundImageFix" result="effect1_dropShadow_205_2693"/>
            <feColorMatrix in="SourceAlpha" type="matrix" values="0 0 0 0 0 0 0 0 0 0 0 0 0 0 0 0 0 0 127 0" result="hardAlpha"/>
            <feOffset dy="18"/>
            <feGaussianBlur stdDeviation="14"/>
            <feColorMatrix type="matrix" values="0 0 0 0 0.0352941 0 0 0 0 0.117647 0 0 0 0 0.258824 0 0 0 0.15 0"/>
            <feBlend mode="normal" in2="effect1_dropShadow_205_2693" result="effect2_dropShadow_205_2693"/>
            <feBlend mode="normal" in="SourceGraphic" in2="effect2_dropShadow_205_2693" result="shape"/>
        </filter>
        <filter id="filter6_dd_205_2693" x="270" y="390.992" width="456" height="160" filterUnits="userSpaceOnUse" color-interpolation-filters="sRGB">
            <feFlood flood-opacity="0" result="BackgroundImageFix"/>
            <feColorMatrix in="SourceAlpha" type="matrix" values="0 0 0 0 0 0 0 0 0 0 0 0 0 0 0 0 0 0 127 0" result="hardAlpha"/>
            <feOffset/>
            <feGaussianBlur stdDeviation="0.5"/>
            <feColorMatrix type="matrix" values="0 0 0 0 0.0352941 0 0 0 0 0.117647 0 0 0 0 0.258824 0 0 0 0.31 0"/>
            <feBlend mode="normal" in2="BackgroundImageFix" result="effect1_dropShadow_205_2693"/>
            <feColorMatrix in="SourceAlpha" type="matrix" values="0 0 0 0 0 0 0 0 0 0 0 0 0 0 0 0 0 0 127 0" result="hardAlpha"/>
            <feOffset dy="18"/>
            <feGaussianBlur stdDeviation="14"/>
            <feColorMatrix type="matrix" values="0 0 0 0 0.0352941 0 0 0 0 0.117647 0 0 0 0 0.258824 0 0 0 0.15 0"/>
            <feBlend mode="normal" in2="effect1_dropShadow_205_2693" result="effect2_dropShadow_205_2693"/>
            <feBlend mode="normal" in="SourceGraphic" in2="effect2_dropShadow_205_2693" result="shape"/>
        </filter>
        <filter id="filter7_dd_205_2693" x="1251.7" y="10" width="434" height="567.984" filterUnits="userSpaceOnUse" color-interpolation-filters="sRGB">
            <feFlood flood-opacity="0" result="BackgroundImageFix"/>
            <feColorMatrix in="SourceAlpha" type="matrix" values="0 0 0 0 0 0 0 0 0 0 0 0 0 0 0 0 0 0 127 0" result="hardAlpha"/>
            <feOffset/>
            <feGaussianBlur stdDeviation="0.5"/>
            <feColorMatrix type="matrix" values="0 0 0 0 0.0352941 0 0 0 0 0.117647 0 0 0 0 0.258824 0 0 0 0.31 0"/>
            <feBlend mode="normal" in2="BackgroundImageFix" result="effect1_dropShadow_205_2693"/>
            <feColorMatrix in="SourceAlpha" type="matrix" values="0 0 0 0 0 0 0 0 0 0 0 0 0 0 0 0 0 0 127 0" result="hardAlpha"/>
            <feOffset dy="18"/>
            <feGaussianBlur stdDeviation="14"/>
            <feColorMatrix type="matrix" values="0 0 0 0 0.0352941 0 0 0 0 0.117647 0 0 0 0 0.258824 0 0 0 0.15 0"/>
            <feBlend mode="normal" in2="effect1_dropShadow_205_2693" result="effect2_dropShadow_205_2693"/>
            <feBlend mode="normal" in="SourceGraphic" in2="effect2_dropShadow_205_2693" result="shape"/>
        </filter>
        <linearGradient id="paint0_linear_205_2693" x1="296.692" y1="99.0298" x2="286.46" y2="109.892" gradientUnits="userSpaceOnUse">
            <stop offset="0.176" stop-color="#0052CC"/>
            <stop offset="1" stop-color="#2684FF"/>
        </linearGradient>
        <linearGradient id="paint1_linear_205_2693" x1="285.12" y1="111.097" x2="273.272" y2="122.967" gradientUnits="userSpaceOnUse">
            <stop offset="0.176" stop-color="#0052CC"/>
            <stop offset="1" stop-color="#2684FF"/>
        </linearGradient>
        <linearGradient id="paint2_linear_205_2693" x1="322.02" y1="312.966" x2="322.02" y2="272.992" gradientUnits="userSpaceOnUse">
            <stop stop-color="#0052CC"/>
            <stop offset="1" stop-color="#2684FF"/>
        </linearGradient>
        <linearGradient id="paint3_linear_205_2693" x1="1344.46" y1="203.704" x2="1337.91" y2="210.656" gradientUnits="userSpaceOnUse">
            <stop offset="0.176" stop-color="#0052CC"/>
            <stop offset="1" stop-color="#2684FF"/>
        </linearGradient>
        <linearGradient id="paint4_linear_205_2693" x1="1337.05" y1="211.428" x2="1329.47" y2="219.024" gradientUnits="userSpaceOnUse">
            <stop offset="0.176" stop-color="#0052CC"/>
            <stop offset="1" stop-color="#2684FF"/>
        </linearGradient>
        <linearGradient id="paint5_linear_205_2693" x1="1335.71" y1="351.984" x2="1335.71" y2="328" gradientUnits="userSpaceOnUse">
            <stop stop-color="#0052CC"/>
            <stop offset="1" stop-color="#2684FF"/>
        </linearGradient>
    </defs>
</svg>
