<svg width="720" height="441" viewBox="0 0 720 441" fill="none" xmlns="http://www.w3.org/2000/svg">
<rect width="720" height="440.156" rx="40" fill="url(#paint0_linear_12_2004)"/>
<rect x="91" y="48" width="538" height="164.156" rx="20" fill="white"/>
<g clip-path="url(#clip0_12_2004)">
<rect width="100" height="100.156" transform="translate(123 80)" fill="white" fill-opacity="0.01"/>
<path d="M173 180C200.614 180 223 157.614 223 130C223 102.386 200.614 80 173 80C145.386 80 123 102.386 123 130C123 157.614 145.386 180 173 180Z" fill="#57D9A3"/>
<path d="M189.914 160C189.674 159.829 189.388 159.734 189.094 159.727L173.781 158.906L158.469 159.727C158.174 159.734 157.889 159.829 157.648 160L143.742 169.18C143.406 169.396 143.092 169.644 142.805 169.922C144.333 171.053 145.924 172.097 147.57 173.047L148.43 173.555C155.899 177.872 164.373 180.144 173 180.144C181.627 180.144 190.101 177.872 197.57 173.555L198.43 173.047C200.374 171.924 202.24 170.671 204.016 169.297L203.82 169.18L189.914 160Z" fill="#00875A"/>
<path d="M145.773 111.992C144.68 116.055 144.68 126.523 144.484 135.43C144.367 140.234 144.016 144.258 144.328 145.586C145.383 149.57 167.492 152.344 172.805 152.266C178.117 152.188 200.031 149.297 201.203 145.43C201.633 143.984 201.398 140.156 201.359 135.43C201.32 128.281 201.281 119.062 200.852 112.695L172.961 104.883L145.773 111.992Z" fill="#0C1F41"/>
<path d="M188.195 160.391C187.844 160.859 181.984 168.633 172.297 167.891C164.445 167.305 160.031 161.523 159.367 160.625C161.327 159.159 162.72 157.062 163.312 154.687C164.445 149.727 161.281 145.898 160.93 145.469H185.422C185.266 145.703 181.633 150.703 183.938 155.82C184.813 157.772 186.31 159.379 188.195 160.391V160.391Z" fill="url(#paint1_linear_12_2004)"/>
<path d="M152.922 135.43C155.899 135.43 158.312 133.016 158.312 130.039C158.312 127.062 155.899 124.648 152.922 124.648C149.945 124.648 147.531 127.062 147.531 130.039C147.531 133.016 149.945 135.43 152.922 135.43Z" fill="#E4B69D"/>
<path d="M192.922 135.43C195.899 135.43 198.312 133.016 198.312 130.039C198.312 127.062 195.899 124.648 192.922 124.648C189.945 124.648 187.531 127.062 187.531 130.039C187.531 133.016 189.945 135.43 192.922 135.43Z" fill="#E4B69D"/>
<path d="M194.797 127.969C194.328 139.531 185.109 152.813 173.078 152.813C161.047 152.813 151.75 139.531 151.281 127.969C150.773 115.195 156.398 100.82 173.039 100.82C189.68 100.82 195.344 115.195 194.797 127.969Z" fill="#F0D0B4"/>
<path d="M200.852 112.696C200.148 107.93 198.43 102.227 196.164 98.8283C194.125 95.7727 191.504 93.1493 188.45 91.1082C185.396 89.0672 181.969 87.6486 178.366 86.9338C174.763 86.219 171.054 86.222 167.452 86.9425C163.85 87.6631 160.426 89.0871 157.375 91.133C149.797 96.1721 145.188 108.906 145.266 117.578C156.594 118.672 174.68 116.094 182.375 107.031C182.215 107.629 182.019 108.216 181.789 108.789C181.225 110.081 180.431 111.259 179.445 112.266C178.946 112.799 178.396 113.283 177.805 113.711C177.211 114.127 176.584 114.493 175.93 114.805H175.891C175.768 114.87 175.67 114.975 175.613 115.103C175.557 115.23 175.544 115.373 175.578 115.508C175.6 115.583 175.637 115.653 175.687 115.713C175.737 115.773 175.798 115.823 175.867 115.86C175.936 115.896 176.012 115.918 176.09 115.925C176.168 115.932 176.246 115.923 176.32 115.899C177.896 115.443 179.368 114.687 180.656 113.672C181.982 112.638 183.118 111.383 184.016 109.961C184.905 108.518 185.539 106.932 185.891 105.274C185.936 105.121 185.962 104.964 185.969 104.805C191.008 108.594 194.836 115.664 194.836 124.961C196.359 125.899 198.547 118.164 200.891 118.477C200.852 117.461 201.047 113.946 200.852 112.696Z" fill="#091E42"/>
</g>
<rect x="255" y="106.078" width="282" height="24" rx="12" fill="#DEEBFF"/>
<rect x="255" y="138.078" width="224" height="16" rx="8" fill="#DEEBFF"/>
<rect x="91" y="228.156" width="538" height="164" rx="20" fill="white"/>
<g clip-path="url(#clip1_12_2004)">
<rect width="100" height="100" transform="translate(123 260.156)" fill="white" fill-opacity="0.01"/>
<path d="M173 360.156C200.614 360.156 223 337.77 223 310.156C223 282.542 200.614 260.156 173 260.156C145.386 260.156 123 282.542 123 310.156C123 337.77 145.386 360.156 173 360.156Z" fill="#6554C0"/>
<path d="M203.977 349.375L192.727 343.086C192.416 342.907 192.069 342.8 191.711 342.773L173 341.797L154.289 342.773C153.931 342.8 153.584 342.907 153.273 343.086L142.023 349.375C150.838 356.359 161.754 360.159 173 360.159C184.246 360.159 195.162 356.359 203.977 349.375V349.375Z" fill="#C0B6F2"/>
<path d="M190.578 344.727C190.188 345.313 183 354.844 171.203 353.906C161.633 353.164 156.242 346.133 155.422 345.039C157.798 343.254 159.482 340.7 160.187 337.813C161.594 331.719 157.766 327.07 157.297 326.523H187.219C187.023 326.797 182.609 332.891 185.383 339.18C186.46 341.548 188.285 343.497 190.578 344.727V344.727Z" fill="#E4B69D"/>
<path d="M146.75 299.61C146.789 298.555 147.688 297.617 147.844 296.602C148 295.586 147.453 294.414 147.766 293.399C148.078 292.383 149.094 291.68 149.485 290.742C149.875 289.805 149.602 288.516 150.11 287.578C150.617 286.641 151.789 286.211 152.375 285.352C152.961 284.492 153 283.203 153.664 282.422C154.328 281.641 155.617 281.445 156.399 280.742C157.18 280.039 157.453 278.789 158.313 278.203C159.172 277.617 160.422 277.695 161.32 277.188C162.219 276.68 162.805 275.547 163.781 275.156C164.758 274.766 165.969 275.195 166.985 274.922C168 274.649 168.82 273.711 169.875 273.555C170.93 273.399 171.945 274.141 173 274.141C174.055 274.141 175.149 273.438 176.125 273.555C177.102 273.672 178.039 274.649 179.016 274.922C179.992 275.195 181.281 274.766 182.219 275.156C183.156 275.547 183.781 276.68 184.68 277.188C185.578 277.695 186.867 277.578 187.688 278.203C188.508 278.828 188.86 280.078 189.602 280.742C190.344 281.406 191.633 281.641 192.336 282.422C193.039 283.203 193.039 284.531 193.625 285.352C194.211 286.172 195.383 286.68 195.891 287.578C196.399 288.477 196.125 289.766 196.516 290.742C196.906 291.719 197.961 292.422 198.235 293.399C198.508 294.375 198 295.586 198.156 296.602C198.313 297.617 199.211 298.555 199.25 299.61C199.289 300.664 198.508 301.758 198.391 302.852C198.274 303.945 198.938 305.156 198.703 306.211C198.469 307.266 197.453 308.125 197.102 309.18C196.75 310.235 197.063 311.485 196.594 312.5C196.125 313.516 194.914 314.063 194.328 315C193.742 315.938 193.781 317.266 193.117 318.125C192.453 318.985 191.125 319.297 190.344 320.039C189.563 320.781 189.289 322.149 188.391 322.813C187.492 323.477 186.203 323.438 185.266 324.024C184.328 324.61 183.703 325.781 182.727 326.211C181.75 326.641 180.422 326.25 179.367 326.563C178.313 326.875 177.414 327.813 176.32 327.969C175.227 328.125 174.094 327.422 173 327.422C171.906 327.422 170.735 328.125 169.68 327.969C168.625 327.813 167.688 326.836 166.633 326.563C165.578 326.289 164.289 326.641 163.274 326.211C162.258 325.781 161.672 324.57 160.735 324.024C159.797 323.477 158.43 323.477 157.57 322.813C156.711 322.149 156.438 320.82 155.656 320.039C154.875 319.258 153.586 318.985 152.883 318.125C152.18 317.266 152.219 315.938 151.672 315C151.125 314.063 149.875 313.477 149.406 312.5C148.938 311.524 149.25 310.195 148.899 309.141C148.547 308.086 147.531 307.266 147.297 306.211C147.063 305.156 147.688 303.945 147.61 302.852C147.531 301.758 146.711 300.703 146.75 299.61Z" fill="#543E36"/>
<path d="M153.31 317.034C156.092 316.33 157.639 312.962 156.766 309.511C155.892 306.06 152.93 303.833 150.148 304.537C147.366 305.241 145.819 308.609 146.692 312.06C147.566 315.511 150.528 317.738 153.31 317.034Z" fill="#E4B69D"/>
<path d="M199.591 312.051C200.465 308.601 198.918 305.233 196.136 304.529C193.354 303.825 190.392 306.052 189.518 309.503C188.645 312.953 190.192 316.322 192.974 317.025C195.755 317.729 198.718 315.502 199.591 312.051Z" fill="#E4B69D"/>
<path d="M172.961 278.164C183.781 278.242 190.383 285.547 191.398 286.719C198.234 294.609 197.531 304.023 197.375 306.016C196.984 310.859 195.031 314.727 191.242 322.539C189.527 326.134 187.61 329.63 185.5 333.008C184.898 333.961 184.047 334.731 183.039 335.234C179.91 336.828 176.47 337.721 172.961 337.852C169.438 337.726 165.985 336.833 162.844 335.234C161.854 334.719 161.019 333.951 160.422 333.008C158.297 329.631 156.367 326.136 154.641 322.539C150.891 314.727 148.898 310.859 148.547 306.016C148.391 304.023 147.648 294.609 154.523 286.719C155.539 285.547 162.141 278.242 172.961 278.164Z" fill="#EFC7B0"/>
<path d="M172.414 291.367C173.977 291.367 175.5 291.953 176.789 291.602C178.078 291.25 179.367 289.961 180.578 289.375C181.789 288.789 183.664 288.75 184.836 288.242C186.008 287.734 187.844 286.602 189.016 287.461C190.188 288.32 189.485 289.258 189.641 290.313C189.797 291.367 190.617 291.953 190.774 293.008C190.93 294.063 190.266 294.922 190.578 295.938C190.891 296.953 191.906 297.305 192.414 298.203C192.922 299.102 192.61 300 193.078 300.586C193.547 301.172 194.68 301.25 195.227 301.797C195.774 302.344 195.969 303.438 196.555 303.867C197.141 304.297 198.117 304.063 198.742 304.414C199.156 302.354 199.182 300.234 198.82 298.164C198.508 296.25 197.18 294.297 196.281 292.031C195.383 289.766 195.188 287.774 193.781 285.899C192.375 284.024 190.461 283.203 188.625 281.758C186.789 280.313 185.774 278.867 184.133 278.125C182.492 277.383 180.188 277.461 178.43 277.149C176.672 276.836 174.445 275.82 172.766 275.859C169.758 275.938 167.727 277.227 167.219 277.383C166.711 277.539 164.406 277.344 161.867 278.633C160.5 279.375 159.367 280.977 157.766 282.266C156.164 283.555 154.602 283.984 153.391 285.508C152.18 287.031 151.985 288.75 151.125 290.508C150.539 291.602 149.367 292.422 148.977 293.516C148.586 294.609 149.055 296.094 148.86 297.188C148.664 298.281 147.688 299.57 147.649 300.664C147.61 301.758 148.195 303.047 148.274 303.945C148.899 303.438 149.68 303.477 150.344 302.813C151.008 302.149 150.93 301.055 151.516 300.313C152.102 299.57 153.195 299.336 153.625 298.555C154.055 297.774 153.664 296.68 153.977 295.82C154.289 294.961 155.188 294.727 155.305 294.141C155.422 293.555 154.758 292.617 154.797 292.031C154.836 291.445 155.695 290.742 155.813 290.156C155.93 289.57 155.539 288.555 156.086 288.086C156.633 287.617 158.547 288.086 160.188 288.711C161.828 289.336 162.922 289.024 164.367 289.609C165.813 290.195 166.672 291.367 168.156 291.68C169.641 291.992 170.93 291.367 172.414 291.367Z" fill="#543E36"/>
<path d="M196.477 300.547L195.07 306.719C194.908 307.448 194.953 308.208 195.202 308.913C195.45 309.617 195.892 310.238 196.477 310.703V310.703C196.477 310.703 197.883 306.992 198.195 305.234C198.508 303.477 196.477 300.547 196.477 300.547Z" fill="#543E36"/>
<path d="M149.289 300.547L150.578 306.719C150.754 307.437 150.727 308.19 150.499 308.894C150.272 309.598 149.852 310.224 149.289 310.703V310.703C149.289 310.703 147.961 306.992 147.648 305.234C147.336 303.477 149.289 300.547 149.289 300.547Z" fill="#543E36"/>
</g>
<rect x="255" y="282.156" width="242" height="24" rx="12" fill="#DEEBFF"/>
<rect x="255" y="322.156" width="274" height="16" rx="8" fill="#DEEBFF"/>
<defs>
<linearGradient id="paint0_linear_12_2004" x1="8.15547e-06" y1="311.377" x2="720" y2="311.377" gradientUnits="userSpaceOnUse">
<stop stop-color="#0052CC"/>
<stop offset="1" stop-color="#4C9AFF"/>
</linearGradient>
<linearGradient id="paint1_linear_12_2004" x1="173.781" y1="149.996" x2="173.781" y2="171.938" gradientUnits="userSpaceOnUse">
<stop stop-color="#ECC19C"/>
<stop offset="1" stop-color="#F1DBCB"/>
</linearGradient>
<clipPath id="clip0_12_2004">
<rect width="100" height="100.156" fill="white" transform="translate(123 80)"/>
</clipPath>
<clipPath id="clip1_12_2004">
<rect width="100" height="100" fill="white" transform="translate(123 260.156)"/>
</clipPath>
</defs>
</svg>
