<svg width="771" height="685" viewBox="0 0 771 685" fill="none" xmlns="http://www.w3.org/2000/svg">
<rect x="0.42395" y="0.00195312" width="770" height="684.273" rx="40" fill="url(#paint0_linear_236_2049)"/>
<g filter="url(#filter0_d_236_2049)">
<path d="M98.424 116.002C98.424 104.956 107.378 96.002 118.424 96.002H652.424C663.47 96.002 672.424 104.956 672.424 116.002V260.002H98.424V116.002Z" fill="white"/>
<g clip-path="url(#clip0_236_2049)">
<rect width="100" height="100" transform="translate(130.424 128.002)" fill="white" fill-opacity="0.01"/>
<path d="M180.424 228.002C208.038 228.002 230.424 205.616 230.424 178.002C230.424 150.388 208.038 128.002 180.424 128.002C152.81 128.002 130.424 150.388 130.424 178.002C130.424 205.616 152.81 228.002 180.424 228.002Z" fill="#57D9A3"/>
<path d="M223.744 203.236C223.81 201.319 223.262 199.431 222.182 197.846C218.471 192.885 210.385 195.463 208.354 191.01C207.729 189.604 208.51 189.369 208.119 184.525C207.944 182.251 207.605 179.993 207.104 177.768C206.713 176.244 204.369 170.229 180.424 164.018C167.455 160.658 160.971 158.979 156.322 161.127C143.236 167.104 137.455 192.221 147.729 207.338C152.104 213.744 158.315 216.869 161.986 218.314C166.677 221.641 171.931 224.089 177.494 225.541C181.877 226.611 186.384 227.084 190.893 226.947C197.713 225.488 204.155 222.627 209.811 218.545C215.466 214.463 220.211 209.25 223.744 203.236V203.236Z" fill="url(#paint1_linear_236_2049)"/>
<path d="M196.44 211.244L181.205 210.463L165.932 211.244C165.643 211.282 165.365 211.375 165.111 211.518L152.846 219.643C161.161 225.166 170.937 228.077 180.919 228.001C190.901 227.924 200.632 224.864 208.861 219.213L197.26 211.518C197.011 211.364 196.731 211.27 196.44 211.244V211.244Z" fill="#ABF5D1"/>
<path d="M195.541 211.791C195.19 212.26 189.33 220.15 179.721 219.408C171.908 218.783 167.533 212.963 166.869 212.025C167.88 210.159 168.579 208.14 168.94 206.049C169.488 202.924 169.3 199.714 168.393 196.674H192.768C191.649 199.692 191.512 202.987 192.377 206.088C192.982 208.206 194.065 210.157 195.541 211.791V211.791Z" fill="url(#paint2_linear_236_2049)"/>
<path d="M208.08 191.674L208.158 181.557L208.315 161.557L152.885 159.799L152.768 191.674H208.08Z" fill="#F0D0B6"/>
<path d="M176.869 183.744C190.094 183.744 200.815 173.023 200.815 159.799C200.815 146.574 190.094 135.854 176.869 135.854C163.645 135.854 152.924 146.574 152.924 159.799C152.924 173.023 163.645 183.744 176.869 183.744Z" fill="#F0D0B6"/>
<path d="M162.26 176.908C162.26 179.369 161.752 184.096 159.291 184.096C156.83 184.096 153.315 179.369 153.315 176.908C153.419 175.794 153.935 174.759 154.762 174.006C155.59 173.252 156.668 172.834 157.787 172.834C158.906 172.834 159.985 173.252 160.812 174.006C161.639 174.759 162.156 175.794 162.26 176.908V176.908Z" fill="#473630"/>
<path d="M207.533 176.908C207.533 179.369 204.057 184.096 201.557 184.096C199.057 184.096 198.588 179.369 198.588 176.908C198.692 175.794 199.209 174.759 200.036 174.006C200.863 173.252 201.942 172.834 203.061 172.834C204.18 172.834 205.258 173.252 206.086 174.006C206.913 174.759 207.429 175.794 207.533 176.908V176.908Z" fill="#473630"/>
<path d="M203.588 181.362C203.557 182.305 203.345 183.233 202.963 184.096C201.835 186.651 200.29 189 198.393 191.049V191.049L192.963 196.596C189.825 199.859 185.535 201.766 181.01 201.908H180.151C175.56 201.804 171.196 199.895 168.002 196.596L163.705 192.182C161.231 189.915 159.25 187.162 157.885 184.096C157.503 183.233 157.291 182.305 157.26 181.362L156.518 159.877C156.484 159.071 156.59 158.265 156.83 157.494C158.368 152.419 161.501 147.974 165.766 144.821C170.03 141.668 175.198 139.974 180.502 139.992C185.805 140.009 190.962 141.737 195.205 144.918C199.449 148.1 202.553 152.565 204.057 157.651C204.285 158.356 204.377 159.098 204.33 159.838L203.588 181.362Z" fill="#533E37"/>
<path d="M208.197 159.799C207.104 151.713 199.721 145.033 193.705 145.033C189.408 145.033 185.58 147.221 182.924 150.189C184.33 154.604 186.479 157.064 188.08 158.471C192.807 162.65 197.729 161.752 201.244 166.049C203.276 168.51 203.783 171.4 203.94 173.236C204.877 172.143 209.135 166.83 208.197 159.799Z" fill="url(#paint3_linear_236_2049)"/>
<path d="M176.869 135.814C170.508 135.814 164.408 138.341 159.91 142.839C155.412 147.337 152.885 153.438 152.885 159.799C152.914 161.868 153.19 163.927 153.705 165.932C154.369 168.29 155.469 170.502 156.947 172.455C157.15 171.09 157.614 169.777 158.315 168.588C163.119 160.541 175.854 164.135 186.361 157.025C189.213 155.111 192.924 151.713 195.932 145.268C193.698 142.329 190.815 139.947 187.508 138.307C184.201 136.668 180.56 135.814 176.869 135.814V135.814Z" fill="#F0D0B6"/>
<path d="M181.01 156.635C177.05 157.824 172.954 158.506 168.822 158.666C165.736 158.744 163.901 158.51 161.049 159.174C158.058 159.921 155.27 161.322 152.885 163.275C152.646 160.984 152.725 158.67 153.119 156.4C153.774 152.019 155.617 147.9 158.447 144.491C161.278 141.082 164.987 138.514 169.174 137.064L181.01 156.635Z" fill="url(#paint4_linear_236_2049)"/>
</g>
<rect x="262.424" y="146.002" width="234" height="24" rx="12" fill="#DEEBFF"/>
<rect x="262.424" y="194.002" width="310" height="16" rx="8" fill="#DFE1E6"/>
</g>
<g filter="url(#filter1_d_236_2049)">
<rect width="574" height="164.273" transform="translate(98.424 260.002)" fill="white"/>
<g clip-path="url(#clip1_236_2049)">
<rect width="100" height="100.273" transform="translate(130.424 292.002)" fill="white" fill-opacity="0.01"/>
<path d="M230.424 342.666V341.611C230.422 332.993 228.15 324.528 223.837 317.067C219.523 309.606 213.321 303.413 205.854 299.111L204.994 298.564C197.519 294.267 189.047 292.005 180.424 292.005C171.801 292.005 163.329 294.267 155.854 298.564L154.994 299.111C147.527 303.413 141.325 309.606 137.011 317.067C132.698 324.528 130.426 332.993 130.424 341.611V342.666C130.426 351.284 132.698 359.749 137.011 367.21C141.325 374.671 147.527 380.864 154.994 385.166L155.854 385.713C163.329 390.011 171.801 392.272 180.424 392.272C189.047 392.272 197.519 390.011 204.994 385.713L205.854 385.166C213.321 380.864 219.523 374.671 223.837 367.21C228.15 359.749 230.422 351.284 230.424 342.666V342.666Z" fill="#0065FF"/>
<path d="M154.057 324.814C153.197 326.455 147.221 338.525 152.963 351.846C153.744 353.682 158.51 364.346 170.775 368.799C177.563 371.206 184.974 371.192 191.752 368.76C203.9 364.385 208.861 353.877 209.799 351.729C215.541 338.76 210.346 326.807 209.486 324.814L181.596 317.041L154.057 324.814Z" fill="#0C1F41"/>
<path d="M196.908 372.627L181.596 371.846L166.283 372.627C165.992 372.653 165.711 372.747 165.463 372.9L151.557 382.119C151.334 382.24 151.124 382.384 150.932 382.549C159.692 388.939 170.292 392.31 181.134 392.155C191.976 392 202.475 388.327 211.049 381.689L197.729 372.9C197.48 372.747 197.199 372.653 196.908 372.627V372.627Z" fill="#4C9AFF"/>
<path d="M196.01 373.291C195.658 373.76 189.799 381.572 180.111 380.83C172.299 380.205 167.885 374.463 167.221 373.564C169.168 372.095 170.548 369.997 171.127 367.627C172.26 362.627 169.135 358.799 168.744 358.369H193.236C193.08 358.604 189.486 363.604 191.752 368.76C192.649 370.687 194.142 372.276 196.01 373.291V373.291Z" fill="url(#paint5_linear_236_2049)"/>
<path d="M161.518 347.549C164.495 347.549 166.908 345.135 166.908 342.158C166.908 339.181 164.495 336.768 161.518 336.768C158.541 336.768 156.127 339.181 156.127 342.158C156.127 345.135 158.541 347.549 161.518 347.549Z" fill="url(#paint6_linear_236_2049)"/>
<path d="M201.518 347.549C204.495 347.549 206.908 345.135 206.908 342.158C206.908 339.181 204.495 336.768 201.518 336.768C198.541 336.768 196.127 339.181 196.127 342.158C196.127 345.135 198.541 347.549 201.518 347.549Z" fill="url(#paint7_linear_236_2049)"/>
<path d="M162.924 331.299C162.924 333.799 162.846 336.182 162.768 338.447C162.69 340.713 162.611 340.361 162.494 342.51C162.182 348.604 162.494 350.166 161.205 351.611C159.916 353.057 159.057 353.252 158.549 352.901C158.041 352.549 158.783 351.104 159.096 348.955C159.838 343.682 158.119 338.33 157.963 337.901C157.572 336.807 157.143 335.752 157.221 334.19C157.26 333.252 157.338 331.182 158.783 330.401C160.229 329.619 161.635 330.166 162.924 331.299Z" fill="#0C1F41"/>
<path d="M204.408 331.299C204.408 333.799 204.33 336.182 204.213 338.447C204.096 340.713 204.057 340.361 203.94 342.51C203.627 348.604 203.94 350.166 202.651 351.611C201.361 353.057 200.541 353.252 200.033 352.901C199.526 352.549 200.268 351.104 200.58 348.955C201.322 343.682 199.565 338.33 199.408 337.901C199.057 336.807 198.588 335.752 198.666 334.19C198.705 333.252 198.783 331.182 200.268 330.401C201.752 329.619 203.119 330.166 204.408 331.299Z" fill="#0C1F41"/>
<path d="M203.471 340.127C203.002 351.729 190.932 365.049 181.635 365.049C172.338 365.049 160.229 351.729 159.76 340.127C159.213 327.275 168.861 312.822 181.596 312.822C194.33 312.822 203.979 327.275 203.471 340.127Z" fill="#FFE1D7"/>
<path d="M158.315 345.791C158.66 345.791 158.94 345.511 158.94 345.166C158.94 344.821 158.66 344.541 158.315 344.541C157.969 344.541 157.69 344.821 157.69 345.166C157.69 345.511 157.969 345.791 158.315 345.791Z" fill="#0065FF"/>
<path d="M204.994 345.791C205.339 345.791 205.619 345.511 205.619 345.166C205.619 344.821 205.339 344.541 204.994 344.541C204.649 344.541 204.369 344.821 204.369 345.166C204.369 345.511 204.649 345.791 204.994 345.791Z" fill="#0065FF"/>
<path d="M165.971 303.252C172.136 299.13 179.685 297.625 186.959 299.068C194.232 300.512 200.636 304.784 204.76 310.947C207.065 314.346 208.783 320.088 209.486 324.814C209.643 326.103 209.643 327.588 209.721 328.603C194.369 329.346 185.033 329.463 181.596 318.369C175.815 329.971 166.205 329.853 153.588 328.603C154.135 320.205 158.432 308.33 165.971 303.252Z" fill="#0C1F41"/>
</g>
<rect x="262.424" y="310.139" width="188" height="24" rx="12" fill="#DEEBFF"/>
<rect x="262.424" y="358.139" width="366" height="16" rx="8" fill="#DFE1E6"/>
</g>
<g filter="url(#filter2_d_236_2049)">
<path d="M98.424 424.275H672.424V568.275C672.424 579.321 663.47 588.275 652.424 588.275H118.424C107.378 588.275 98.424 579.321 98.424 568.275V424.275Z" fill="white"/>
<g clip-path="url(#clip2_236_2049)">
<rect width="100" height="100" transform="translate(130.424 456.275)" fill="white" fill-opacity="0.01"/>
<path d="M180.424 556.275C208.038 556.275 230.424 533.89 230.424 506.275C230.424 478.661 208.038 456.275 180.424 456.275C152.81 456.275 130.424 478.661 130.424 506.275C130.424 533.89 152.81 556.275 180.424 556.275Z" fill="#FFAB00"/>
<path d="M155.736 496.666C156.283 483.346 167.182 470.807 181.596 470.807C196.01 470.807 206.869 483.346 207.455 496.666C208.041 510.963 196.635 524.869 181.596 524.83C166.557 524.791 155.111 510.963 155.736 496.666Z" fill="#253858"/>
<path d="M161.311 511.704C164.197 510.973 165.799 507.465 164.889 503.868C163.978 500.27 160.901 497.946 158.015 498.677C155.128 499.407 153.527 502.915 154.437 506.512C155.347 510.11 158.425 512.434 161.311 511.704Z" fill="#F7D0C3"/>
<path d="M208.296 506.589C209.206 502.991 207.604 499.483 204.718 498.753C201.832 498.023 198.754 500.347 197.844 503.944C196.934 507.541 198.536 511.05 201.422 511.78C204.308 512.51 207.386 510.186 208.296 506.589Z" fill="#F7D0C3"/>
<path d="M213.041 544.166L202.885 538.502C202.582 538.271 202.211 538.148 201.83 538.15L182.143 537.135L162.455 538.15C162.087 538.153 161.73 538.277 161.44 538.502L149.174 545.299C158.277 552.597 169.647 556.479 181.312 556.273C192.978 556.066 204.203 551.783 213.041 544.166Z" fill="#FF8B00"/>
<path d="M201.127 540.846C200.658 541.432 192.924 550.963 180.19 550.025C169.877 549.283 164.057 542.252 163.197 541.158C165.593 538.883 167.208 535.909 167.812 532.66C168.415 529.412 167.976 526.056 166.557 523.072L196.869 522.369C196.401 523.268 193.861 528.502 196.088 534.322C197.107 536.935 198.856 539.2 201.127 540.846V540.846Z" fill="url(#paint8_linear_236_2049)"/>
<path d="M181.557 472.33C192.377 472.408 198.979 479.713 199.994 480.885C206.83 488.775 206.127 498.189 205.971 500.182C205.58 505.025 203.627 508.893 199.838 516.705C198.123 520.3 196.206 523.796 194.096 527.174C193.505 528.136 192.651 528.909 191.635 529.4C188.509 531.009 185.069 531.916 181.557 532.057C178.031 531.92 174.578 531.013 171.44 529.4C170.441 528.898 169.602 528.127 169.018 527.174C166.893 523.797 164.962 520.302 163.236 516.705C159.486 508.893 157.494 505.025 157.143 500.182C156.986 498.189 156.244 488.775 163.119 480.885C164.135 479.713 170.736 472.408 181.557 472.33Z" fill="#FFE2D9"/>
<path d="M202.025 494.322C202.672 496.773 203.039 499.289 203.119 501.822C202.928 502.57 202.98 503.36 203.268 504.076C203.556 504.793 204.065 505.399 204.721 505.806V505.806C204.721 505.806 205.111 504.908 205.541 503.736C205.971 502.564 206.049 500.533 206.674 500.338C206.78 500.312 206.891 500.31 206.999 500.33C207.107 500.35 207.209 500.393 207.299 500.455C207.51 498.862 207.549 497.251 207.416 495.65C207.221 493.424 206.635 486.353 202.533 484.752C202.26 484.635 200.502 483.97 199.721 484.752C198.94 485.533 200.658 489.166 202.025 494.322Z" fill="url(#paint9_linear_236_2049)"/>
<path d="M161.127 493.853C160.48 496.304 160.113 498.82 160.033 501.353C160.224 502.101 160.172 502.891 159.884 503.607C159.596 504.324 159.088 504.93 158.432 505.338V505.338C158.432 505.338 158.041 504.439 157.611 503.267C157.182 502.095 157.104 500.064 156.479 499.869C156.373 499.835 156.26 499.827 156.151 499.848C156.042 499.868 155.94 499.916 155.854 499.986C155.643 498.393 155.604 496.783 155.736 495.181C155.932 492.955 156.518 485.885 160.619 484.283C160.893 484.166 162.651 483.502 163.432 484.283C164.213 485.064 162.494 488.697 161.127 493.853Z" fill="url(#paint10_linear_236_2049)"/>
<path d="M156.947 488.815C157.587 485.588 158.833 482.513 160.619 479.752C161.93 477.693 163.536 475.837 165.385 474.244C171.518 469.127 179.096 468.58 181.557 468.385C187.846 467.955 189.994 469.674 194.33 467.643C195.619 467.057 197.182 466.08 198.197 466.744C199.213 467.408 199.057 469.908 198.588 472.018C200.658 470.611 202.104 470.807 202.69 470.963C205.971 471.705 207.182 476.9 207.182 479.986C207.186 482.427 206.48 484.815 205.151 486.861L200.736 490.338C199.948 489.399 198.978 488.629 197.885 488.072C196.908 487.565 194.33 486.471 188.276 487.721C183.315 488.736 183.822 489.557 181.244 489.908C178.666 490.26 171.713 485.025 167.299 485.69C166.01 485.885 164.174 486.705 162.299 489.674L156.947 488.815Z" fill="#253858"/>
<path d="M204.955 486.978C205.159 486.748 205.342 486.499 205.502 486.236C206.61 484.34 207.19 482.182 207.182 479.986C207.182 479.557 207.182 479.127 207.143 478.619C205.815 478.385 203.315 482.447 196.986 484.557C194.213 485.455 193.197 485.143 189.604 486.432C187.661 487.134 185.779 487.996 183.979 489.01C185.363 488.434 186.803 488.002 188.276 487.721C194.33 486.471 196.908 487.564 197.885 488.072C198.978 488.628 199.948 489.399 200.736 490.338L204.955 486.978Z" fill="url(#paint11_linear_236_2049)"/>
<path d="M170.111 511.119C168.311 511.119 166.552 510.585 165.055 509.585C163.558 508.585 162.392 507.164 161.703 505.501C161.014 503.838 160.834 502.007 161.185 500.242C161.536 498.476 162.403 496.855 163.676 495.582C164.949 494.309 166.57 493.442 168.336 493.091C170.101 492.74 171.931 492.92 173.594 493.609C175.258 494.298 176.679 495.464 177.679 496.961C178.679 498.458 179.213 500.217 179.213 502.018C179.213 504.431 178.254 506.746 176.547 508.453C174.84 510.16 172.525 511.119 170.111 511.119V511.119ZM170.111 494.088C168.543 494.088 167.01 494.553 165.706 495.424C164.402 496.296 163.386 497.534 162.785 498.983C162.185 500.432 162.028 502.026 162.334 503.565C162.64 505.103 163.395 506.516 164.504 507.625C165.613 508.734 167.026 509.489 168.564 509.795C170.103 510.101 171.697 509.944 173.146 509.344C174.595 508.743 175.833 507.727 176.705 506.423C177.576 505.119 178.041 503.586 178.041 502.018C178.041 499.914 177.206 497.898 175.719 496.41C174.231 494.923 172.215 494.088 170.111 494.088V494.088Z" fill="#FF8B00"/>
<path d="M191.244 511.119C189.444 511.119 187.684 510.585 186.188 509.585C184.691 508.585 183.524 507.164 182.836 505.501C182.147 503.838 181.966 502.007 182.318 500.242C182.669 498.476 183.536 496.855 184.808 495.582C186.081 494.309 187.703 493.442 189.469 493.091C191.234 492.74 193.064 492.92 194.727 493.609C196.39 494.298 197.812 495.464 198.812 496.961C199.812 498.458 200.346 500.217 200.346 502.018C200.336 504.428 199.373 506.737 197.669 508.442C195.964 510.147 193.655 511.109 191.244 511.119ZM191.244 494.088C189.676 494.088 188.143 494.553 186.839 495.424C185.535 496.296 184.518 497.534 183.918 498.983C183.318 500.432 183.161 502.026 183.467 503.565C183.773 505.103 184.528 506.516 185.637 507.625C186.746 508.734 188.159 509.489 189.697 509.795C191.235 510.101 192.83 509.944 194.279 509.344C195.728 508.743 196.966 507.727 197.838 506.423C198.709 505.119 199.174 503.586 199.174 502.018C199.174 500.976 198.969 499.945 198.57 498.983C198.172 498.021 197.588 497.147 196.851 496.41C196.115 495.674 195.241 495.09 194.279 494.692C193.317 494.293 192.286 494.088 191.244 494.088V494.088Z" fill="#FF8B00"/>
<path d="M161.596 502.955H157.963C157.808 502.955 157.659 502.893 157.549 502.783C157.439 502.674 157.377 502.525 157.377 502.369C157.377 502.214 157.439 502.065 157.549 501.955C157.659 501.845 157.808 501.783 157.963 501.783H161.596C161.751 501.783 161.9 501.845 162.01 501.955C162.12 502.065 162.182 502.214 162.182 502.369C162.182 502.525 162.12 502.674 162.01 502.783C161.9 502.893 161.751 502.955 161.596 502.955V502.955Z" fill="#FF8B00"/>
<path d="M204.096 502.604H199.76C199.604 502.604 199.455 502.542 199.346 502.432C199.236 502.322 199.174 502.173 199.174 502.018C199.174 501.862 199.236 501.713 199.346 501.603C199.455 501.493 199.604 501.432 199.76 501.432H204.096C204.251 501.432 204.4 501.493 204.51 501.603C204.62 501.713 204.682 501.862 204.682 502.018C204.682 502.173 204.62 502.322 204.51 502.432C204.4 502.542 204.251 502.604 204.096 502.604V502.604Z" fill="#FF8B00"/>
<path d="M182.729 501.432H178.627V502.604H182.729V501.432Z" fill="#FF8B00"/>
</g>
<rect x="262.424" y="474.275" width="326" height="24" rx="12" fill="#DEEBFF"/>
<rect x="262.424" y="522.275" width="378" height="16" rx="8" fill="#DFE1E6"/>
</g>
<defs>
<filter id="filter0_d_236_2049" x="98.424" y="96.002" width="574" height="168" filterUnits="userSpaceOnUse" color-interpolation-filters="sRGB">
<feFlood flood-opacity="0" result="BackgroundImageFix"/>
<feColorMatrix in="SourceAlpha" type="matrix" values="0 0 0 0 0 0 0 0 0 0 0 0 0 0 0 0 0 0 127 0" result="hardAlpha"/>
<feOffset dy="4"/>
<feColorMatrix type="matrix" values="0 0 0 0 0.921569 0 0 0 0 0.92549 0 0 0 0 0.941176 0 0 0 1 0"/>
<feBlend mode="normal" in2="BackgroundImageFix" result="effect1_dropShadow_236_2049"/>
<feBlend mode="normal" in="SourceGraphic" in2="effect1_dropShadow_236_2049" result="shape"/>
</filter>
<filter id="filter1_d_236_2049" x="98.424" y="260.002" width="574" height="168.273" filterUnits="userSpaceOnUse" color-interpolation-filters="sRGB">
<feFlood flood-opacity="0" result="BackgroundImageFix"/>
<feColorMatrix in="SourceAlpha" type="matrix" values="0 0 0 0 0 0 0 0 0 0 0 0 0 0 0 0 0 0 127 0" result="hardAlpha"/>
<feOffset dy="4"/>
<feColorMatrix type="matrix" values="0 0 0 0 0.921569 0 0 0 0 0.92549 0 0 0 0 0.941176 0 0 0 1 0"/>
<feBlend mode="normal" in2="BackgroundImageFix" result="effect1_dropShadow_236_2049"/>
<feBlend mode="normal" in="SourceGraphic" in2="effect1_dropShadow_236_2049" result="shape"/>
</filter>
<filter id="filter2_d_236_2049" x="98.424" y="424.275" width="574" height="168" filterUnits="userSpaceOnUse" color-interpolation-filters="sRGB">
<feFlood flood-opacity="0" result="BackgroundImageFix"/>
<feColorMatrix in="SourceAlpha" type="matrix" values="0 0 0 0 0 0 0 0 0 0 0 0 0 0 0 0 0 0 127 0" result="hardAlpha"/>
<feOffset dy="4"/>
<feColorMatrix type="matrix" values="0 0 0 0 0.921569 0 0 0 0 0.92549 0 0 0 0 0.941176 0 0 0 1 0"/>
<feBlend mode="normal" in2="BackgroundImageFix" result="effect1_dropShadow_236_2049"/>
<feBlend mode="normal" in="SourceGraphic" in2="effect1_dropShadow_236_2049" result="shape"/>
</filter>
<linearGradient id="paint0_linear_236_2049" x1="0.423959" y1="484.073" x2="770.424" y2="484.073" gradientUnits="userSpaceOnUse">
<stop stop-color="#0052CC"/>
<stop offset="1" stop-color="#4C9AFF"/>
</linearGradient>
<linearGradient id="paint1_linear_236_2049" x1="183.096" y1="226.955" x2="183.096" y2="160.174" gradientUnits="userSpaceOnUse">
<stop stop-color="#CEA28B"/>
<stop offset="0.16" stop-color="#DDB69E"/>
<stop offset="0.36" stop-color="#EBC9B0"/>
<stop offset="0.49" stop-color="#F0D0B6"/>
</linearGradient>
<linearGradient id="paint2_linear_236_2049" x1="181.197" y1="219.451" x2="181.197" y2="196.689" gradientUnits="userSpaceOnUse">
<stop stop-color="#533E37"/>
<stop offset="0.43" stop-color="#503B34"/>
<stop offset="0.75" stop-color="#47312B"/>
<stop offset="1" stop-color="#3B241E"/>
</linearGradient>
<linearGradient id="paint3_linear_236_2049" x1="182.916" y1="159.135" x2="208.318" y2="159.135" gradientUnits="userSpaceOnUse">
<stop stop-color="#CEA28B"/>
<stop offset="0.32" stop-color="#DDB69E"/>
<stop offset="0.72" stop-color="#EBC9B0"/>
<stop offset="1" stop-color="#F0D0B6"/>
</linearGradient>
<linearGradient id="paint4_linear_236_2049" x1="152.744" y1="150.17" x2="180.998" y2="150.17" gradientUnits="userSpaceOnUse">
<stop stop-color="#CEA28B"/>
<stop offset="0.15" stop-color="#DDB69E"/>
<stop offset="0.33" stop-color="#EBC9B0"/>
<stop offset="0.46" stop-color="#F0D0B6"/>
</linearGradient>
<linearGradient id="paint5_linear_236_2049" x1="181.604" y1="358.814" x2="181.604" y2="380.756" gradientUnits="userSpaceOnUse">
<stop stop-color="#EBBDAC"/>
<stop offset="1" stop-color="#FFE1D7"/>
</linearGradient>
<linearGradient id="paint6_linear_236_2049" x1="1151.78" y1="1721.19" x2="886.341" y2="1721.19" gradientUnits="userSpaceOnUse">
<stop stop-color="#EBBDAC"/>
<stop offset="1" stop-color="#FFE1D7"/>
</linearGradient>
<linearGradient id="paint7_linear_236_2049" x1="2022.26" y1="1716.88" x2="2261.06" y2="1724.53" gradientUnits="userSpaceOnUse">
<stop stop-color="#EBBDAC"/>
<stop offset="1" stop-color="#FFE1D7"/>
</linearGradient>
<linearGradient id="paint8_linear_236_2049" x1="182.154" y1="550.1" x2="182.154" y2="522.373" gradientUnits="userSpaceOnUse">
<stop stop-color="#FFE2D9"/>
<stop offset="1" stop-color="#EBBEAE"/>
</linearGradient>
<linearGradient id="paint9_linear_236_2049" x1="203.428" y1="505.822" x2="203.428" y2="484.388" gradientUnits="userSpaceOnUse">
<stop offset="0.39" stop-color="#97A0AF"/>
<stop offset="0.43" stop-color="#8A94A5"/>
<stop offset="0.54" stop-color="#667389"/>
<stop offset="0.66" stop-color="#495974"/>
<stop offset="0.77" stop-color="#354764"/>
<stop offset="0.89" stop-color="#293C5B"/>
<stop offset="1" stop-color="#253858"/>
</linearGradient>
<linearGradient id="paint10_linear_236_2049" x1="159.725" y1="505.353" x2="159.725" y2="483.916" gradientUnits="userSpaceOnUse">
<stop offset="0.18" stop-color="#97A0AF"/>
<stop offset="0.22" stop-color="#8A94A5"/>
<stop offset="0.32" stop-color="#667389"/>
<stop offset="0.42" stop-color="#495974"/>
<stop offset="0.52" stop-color="#354764"/>
<stop offset="0.61" stop-color="#293C5B"/>
<stop offset="0.71" stop-color="#253858"/>
</linearGradient>
<linearGradient id="paint11_linear_236_2049" x1="201.928" y1="490.197" x2="192.174" y2="480.443" gradientUnits="userSpaceOnUse">
<stop stop-color="#091E42" stop-opacity="0.1"/>
<stop offset="1" stop-color="#091E42"/>
</linearGradient>
<clipPath id="clip0_236_2049">
<rect width="100" height="100" fill="white" transform="translate(130.424 128.002)"/>
</clipPath>
<clipPath id="clip1_236_2049">
<rect width="100" height="100.273" fill="white" transform="translate(130.424 292.002)"/>
</clipPath>
<clipPath id="clip2_236_2049">
<rect width="100" height="100" fill="white" transform="translate(130.424 456.275)"/>
</clipPath>
</defs>
</svg>
